%TF.GenerationSoftware,KiCad,Pcbnew,9.0.3*%
%TF.CreationDate,2025-08-29T17:45:50+02:00*%
%TF.ProjectId,RadioHAT_Card_Dorji,52616469-6f48-4415-945f-436172645f44,rev?*%
%TF.SameCoordinates,Original*%
%TF.FileFunction,Paste,Top*%
%TF.FilePolarity,Positive*%
%FSLAX46Y46*%
G04 Gerber Fmt 4.6, Leading zero omitted, Abs format (unit mm)*
G04 Created by KiCad (PCBNEW 9.0.3) date 2025-08-29 17:45:50*
%MOMM*%
%LPD*%
G01*
G04 APERTURE LIST*
G04 Aperture macros list*
%AMRoundRect*
0 Rectangle with rounded corners*
0 $1 Rounding radius*
0 $2 $3 $4 $5 $6 $7 $8 $9 X,Y pos of 4 corners*
0 Add a 4 corners polygon primitive as box body*
4,1,4,$2,$3,$4,$5,$6,$7,$8,$9,$2,$3,0*
0 Add four circle primitives for the rounded corners*
1,1,$1+$1,$2,$3*
1,1,$1+$1,$4,$5*
1,1,$1+$1,$6,$7*
1,1,$1+$1,$8,$9*
0 Add four rect primitives between the rounded corners*
20,1,$1+$1,$2,$3,$4,$5,0*
20,1,$1+$1,$4,$5,$6,$7,0*
20,1,$1+$1,$6,$7,$8,$9,0*
20,1,$1+$1,$8,$9,$2,$3,0*%
G04 Aperture macros list end*
%ADD10R,0.600000X2.300000*%
%ADD11RoundRect,0.100000X0.400000X-0.400000X0.400000X0.400000X-0.400000X0.400000X-0.400000X-0.400000X0*%
%ADD12RoundRect,0.105000X0.995000X-0.420000X0.995000X0.420000X-0.995000X0.420000X-0.995000X-0.420000X0*%
%ADD13RoundRect,0.070000X1.430000X0.630000X-1.430000X0.630000X-1.430000X-0.630000X1.430000X-0.630000X0*%
%ADD14RoundRect,0.045000X-1.255000X-0.405000X1.255000X-0.405000X1.255000X0.405000X-1.255000X0.405000X0*%
G04 APERTURE END LIST*
D10*
%TO.C,J1*%
X121000000Y-118600000D03*
X121800000Y-118600000D03*
X122600000Y-118600000D03*
X123400000Y-118600000D03*
X124200000Y-118600000D03*
X125000000Y-118600000D03*
X125800000Y-118600000D03*
X126600000Y-118600000D03*
X130600000Y-118600000D03*
X131400000Y-118600000D03*
X132200000Y-118600000D03*
X133000000Y-118600000D03*
X133800000Y-118600000D03*
X134600000Y-118600000D03*
X135400000Y-118600000D03*
X136200000Y-118600000D03*
X137000000Y-118600000D03*
X137800000Y-118600000D03*
X138600000Y-118600000D03*
X139400000Y-118600000D03*
X140200000Y-118600000D03*
X141000000Y-118600000D03*
X141800000Y-118600000D03*
X142600000Y-118600000D03*
X143400000Y-118600000D03*
X144200000Y-118600000D03*
%TD*%
D11*
%TO.C,J4*%
X143300000Y-90387500D03*
D12*
X144800000Y-88912500D03*
D11*
X146300000Y-90387500D03*
D12*
X144800000Y-91862500D03*
%TD*%
D11*
%TO.C,J2*%
X143300000Y-111000000D03*
D12*
X144800000Y-109525000D03*
D11*
X146300000Y-111000000D03*
D12*
X144800000Y-112475000D03*
%TD*%
D13*
%TO.C,U1*%
X137600000Y-111000000D03*
X137600000Y-109200000D03*
X137600000Y-107400000D03*
X137600000Y-105600000D03*
X137600000Y-103800000D03*
X137600000Y-102000000D03*
X137600000Y-100200000D03*
X137600000Y-98400000D03*
X123600000Y-98400000D03*
X123600000Y-100200000D03*
X123600000Y-102000000D03*
X123600000Y-103800000D03*
X123600000Y-105600000D03*
X123600000Y-107400000D03*
X123600000Y-109200000D03*
X123600000Y-111000000D03*
%TD*%
D11*
%TO.C,J3*%
X143300000Y-76587500D03*
D12*
X144800000Y-75112500D03*
D11*
X146300000Y-76587500D03*
D12*
X144800000Y-78062500D03*
%TD*%
D14*
%TO.C,U2*%
X122125000Y-76500000D03*
X122125000Y-77770000D03*
X122125000Y-79040000D03*
X122125000Y-80310000D03*
X122125000Y-81580000D03*
X122125000Y-82850000D03*
X122125000Y-84120000D03*
X122125000Y-85390000D03*
X122125000Y-86660000D03*
X122125000Y-87930000D03*
X122125000Y-89200000D03*
X122125000Y-90470000D03*
X122125000Y-91740000D03*
X139125000Y-91740000D03*
X139125000Y-90470000D03*
X139125000Y-77770000D03*
X139125000Y-76500000D03*
%TD*%
M02*
