%TF.GenerationSoftware,KiCad,Pcbnew,9.0.3*%
%TF.CreationDate,2025-08-29T17:45:50+02:00*%
%TF.ProjectId,RadioHAT_Card_Dorji,52616469-6f48-4415-945f-436172645f44,rev?*%
%TF.SameCoordinates,Original*%
%TF.FileFunction,Legend,Bot*%
%TF.FilePolarity,Positive*%
%FSLAX46Y46*%
G04 Gerber Fmt 4.6, Leading zero omitted, Abs format (unit mm)*
G04 Created by KiCad (PCBNEW 9.0.3) date 2025-08-29 17:45:50*
%MOMM*%
%LPD*%
G01*
G04 APERTURE LIST*
%ADD10C,0.100000*%
%ADD11C,0.150000*%
%ADD12C,0.350000*%
%ADD13C,0.120000*%
G04 APERTURE END LIST*
D10*
X130238095Y-101842580D02*
X130238095Y-101033057D01*
X130238095Y-101033057D02*
X130285714Y-100937819D01*
X130285714Y-100937819D02*
X130333333Y-100890200D01*
X130333333Y-100890200D02*
X130428571Y-100842580D01*
X130428571Y-100842580D02*
X130619047Y-100842580D01*
X130619047Y-100842580D02*
X130714285Y-100890200D01*
X130714285Y-100890200D02*
X130761904Y-100937819D01*
X130761904Y-100937819D02*
X130809523Y-101033057D01*
X130809523Y-101033057D02*
X130809523Y-101842580D01*
X131714285Y-101509247D02*
X131714285Y-100842580D01*
X131476190Y-101890200D02*
X131238095Y-101175914D01*
X131238095Y-101175914D02*
X131857142Y-101175914D01*
X127903884Y-107327580D02*
X127903884Y-108327580D01*
X127903884Y-108327580D02*
X128141979Y-108327580D01*
X128141979Y-108327580D02*
X128284836Y-108279961D01*
X128284836Y-108279961D02*
X128380074Y-108184723D01*
X128380074Y-108184723D02*
X128427693Y-108089485D01*
X128427693Y-108089485D02*
X128475312Y-107899009D01*
X128475312Y-107899009D02*
X128475312Y-107756152D01*
X128475312Y-107756152D02*
X128427693Y-107565676D01*
X128427693Y-107565676D02*
X128380074Y-107470438D01*
X128380074Y-107470438D02*
X128284836Y-107375200D01*
X128284836Y-107375200D02*
X128141979Y-107327580D01*
X128141979Y-107327580D02*
X127903884Y-107327580D01*
X129475312Y-107327580D02*
X129141979Y-107803771D01*
X128903884Y-107327580D02*
X128903884Y-108327580D01*
X128903884Y-108327580D02*
X129284836Y-108327580D01*
X129284836Y-108327580D02*
X129380074Y-108279961D01*
X129380074Y-108279961D02*
X129427693Y-108232342D01*
X129427693Y-108232342D02*
X129475312Y-108137104D01*
X129475312Y-108137104D02*
X129475312Y-107994247D01*
X129475312Y-107994247D02*
X129427693Y-107899009D01*
X129427693Y-107899009D02*
X129380074Y-107851390D01*
X129380074Y-107851390D02*
X129284836Y-107803771D01*
X129284836Y-107803771D02*
X128903884Y-107803771D01*
X130237217Y-107851390D02*
X129903884Y-107851390D01*
X129903884Y-107327580D02*
X129903884Y-108327580D01*
X129903884Y-108327580D02*
X130380074Y-108327580D01*
X131189598Y-107994247D02*
X131189598Y-107327580D01*
X130951503Y-108375200D02*
X130713408Y-107660914D01*
X130713408Y-107660914D02*
X131332455Y-107660914D01*
X132141979Y-107994247D02*
X132141979Y-107327580D01*
X131903884Y-108375200D02*
X131665789Y-107660914D01*
X131665789Y-107660914D02*
X132284836Y-107660914D01*
X132570551Y-108327580D02*
X133189598Y-108327580D01*
X133189598Y-108327580D02*
X132856265Y-107946628D01*
X132856265Y-107946628D02*
X132999122Y-107946628D01*
X132999122Y-107946628D02*
X133094360Y-107899009D01*
X133094360Y-107899009D02*
X133141979Y-107851390D01*
X133141979Y-107851390D02*
X133189598Y-107756152D01*
X133189598Y-107756152D02*
X133189598Y-107518057D01*
X133189598Y-107518057D02*
X133141979Y-107422819D01*
X133141979Y-107422819D02*
X133094360Y-107375200D01*
X133094360Y-107375200D02*
X132999122Y-107327580D01*
X132999122Y-107327580D02*
X132713408Y-107327580D01*
X132713408Y-107327580D02*
X132618170Y-107375200D01*
X132618170Y-107375200D02*
X132570551Y-107422819D01*
X133522932Y-108327580D02*
X134189598Y-107327580D01*
X134189598Y-108327580D02*
X133522932Y-107327580D01*
X129838095Y-83430080D02*
X129838095Y-82620557D01*
X129838095Y-82620557D02*
X129885714Y-82525319D01*
X129885714Y-82525319D02*
X129933333Y-82477700D01*
X129933333Y-82477700D02*
X130028571Y-82430080D01*
X130028571Y-82430080D02*
X130219047Y-82430080D01*
X130219047Y-82430080D02*
X130314285Y-82477700D01*
X130314285Y-82477700D02*
X130361904Y-82525319D01*
X130361904Y-82525319D02*
X130409523Y-82620557D01*
X130409523Y-82620557D02*
X130409523Y-83430080D01*
X130790476Y-83430080D02*
X131409523Y-83430080D01*
X131409523Y-83430080D02*
X131076190Y-83049128D01*
X131076190Y-83049128D02*
X131219047Y-83049128D01*
X131219047Y-83049128D02*
X131314285Y-83001509D01*
X131314285Y-83001509D02*
X131361904Y-82953890D01*
X131361904Y-82953890D02*
X131409523Y-82858652D01*
X131409523Y-82858652D02*
X131409523Y-82620557D01*
X131409523Y-82620557D02*
X131361904Y-82525319D01*
X131361904Y-82525319D02*
X131314285Y-82477700D01*
X131314285Y-82477700D02*
X131219047Y-82430080D01*
X131219047Y-82430080D02*
X130933333Y-82430080D01*
X130933333Y-82430080D02*
X130838095Y-82477700D01*
X130838095Y-82477700D02*
X130790476Y-82525319D01*
X127503884Y-88915080D02*
X127503884Y-89915080D01*
X127503884Y-89915080D02*
X127741979Y-89915080D01*
X127741979Y-89915080D02*
X127884836Y-89867461D01*
X127884836Y-89867461D02*
X127980074Y-89772223D01*
X127980074Y-89772223D02*
X128027693Y-89676985D01*
X128027693Y-89676985D02*
X128075312Y-89486509D01*
X128075312Y-89486509D02*
X128075312Y-89343652D01*
X128075312Y-89343652D02*
X128027693Y-89153176D01*
X128027693Y-89153176D02*
X127980074Y-89057938D01*
X127980074Y-89057938D02*
X127884836Y-88962700D01*
X127884836Y-88962700D02*
X127741979Y-88915080D01*
X127741979Y-88915080D02*
X127503884Y-88915080D01*
X129075312Y-88915080D02*
X128741979Y-89391271D01*
X128503884Y-88915080D02*
X128503884Y-89915080D01*
X128503884Y-89915080D02*
X128884836Y-89915080D01*
X128884836Y-89915080D02*
X128980074Y-89867461D01*
X128980074Y-89867461D02*
X129027693Y-89819842D01*
X129027693Y-89819842D02*
X129075312Y-89724604D01*
X129075312Y-89724604D02*
X129075312Y-89581747D01*
X129075312Y-89581747D02*
X129027693Y-89486509D01*
X129027693Y-89486509D02*
X128980074Y-89438890D01*
X128980074Y-89438890D02*
X128884836Y-89391271D01*
X128884836Y-89391271D02*
X128503884Y-89391271D01*
X129837217Y-89438890D02*
X129503884Y-89438890D01*
X129503884Y-88915080D02*
X129503884Y-89915080D01*
X129503884Y-89915080D02*
X129980074Y-89915080D01*
X130884836Y-88915080D02*
X130313408Y-88915080D01*
X130599122Y-88915080D02*
X130599122Y-89915080D01*
X130599122Y-89915080D02*
X130503884Y-89772223D01*
X130503884Y-89772223D02*
X130408646Y-89676985D01*
X130408646Y-89676985D02*
X130313408Y-89629366D01*
X131837217Y-88915080D02*
X131265789Y-88915080D01*
X131551503Y-88915080D02*
X131551503Y-89915080D01*
X131551503Y-89915080D02*
X131456265Y-89772223D01*
X131456265Y-89772223D02*
X131361027Y-89676985D01*
X131361027Y-89676985D02*
X131265789Y-89629366D01*
X132456265Y-89915080D02*
X132551503Y-89915080D01*
X132551503Y-89915080D02*
X132646741Y-89867461D01*
X132646741Y-89867461D02*
X132694360Y-89819842D01*
X132694360Y-89819842D02*
X132741979Y-89724604D01*
X132741979Y-89724604D02*
X132789598Y-89534128D01*
X132789598Y-89534128D02*
X132789598Y-89296033D01*
X132789598Y-89296033D02*
X132741979Y-89105557D01*
X132741979Y-89105557D02*
X132694360Y-89010319D01*
X132694360Y-89010319D02*
X132646741Y-88962700D01*
X132646741Y-88962700D02*
X132551503Y-88915080D01*
X132551503Y-88915080D02*
X132456265Y-88915080D01*
X132456265Y-88915080D02*
X132361027Y-88962700D01*
X132361027Y-88962700D02*
X132313408Y-89010319D01*
X132313408Y-89010319D02*
X132265789Y-89105557D01*
X132265789Y-89105557D02*
X132218170Y-89296033D01*
X132218170Y-89296033D02*
X132218170Y-89534128D01*
X132218170Y-89534128D02*
X132265789Y-89724604D01*
X132265789Y-89724604D02*
X132313408Y-89819842D01*
X132313408Y-89819842D02*
X132361027Y-89867461D01*
X132361027Y-89867461D02*
X132456265Y-89915080D01*
X133741979Y-88915080D02*
X133170551Y-88915080D01*
X133456265Y-88915080D02*
X133456265Y-89915080D01*
X133456265Y-89915080D02*
X133361027Y-89772223D01*
X133361027Y-89772223D02*
X133265789Y-89676985D01*
X133265789Y-89676985D02*
X133170551Y-89629366D01*
D11*
X145133333Y-85642319D02*
X145133333Y-86356604D01*
X145133333Y-86356604D02*
X145180952Y-86499461D01*
X145180952Y-86499461D02*
X145276190Y-86594700D01*
X145276190Y-86594700D02*
X145419047Y-86642319D01*
X145419047Y-86642319D02*
X145514285Y-86642319D01*
X144180952Y-85642319D02*
X144657142Y-85642319D01*
X144657142Y-85642319D02*
X144704761Y-86118509D01*
X144704761Y-86118509D02*
X144657142Y-86070890D01*
X144657142Y-86070890D02*
X144561904Y-86023271D01*
X144561904Y-86023271D02*
X144323809Y-86023271D01*
X144323809Y-86023271D02*
X144228571Y-86070890D01*
X144228571Y-86070890D02*
X144180952Y-86118509D01*
X144180952Y-86118509D02*
X144133333Y-86213747D01*
X144133333Y-86213747D02*
X144133333Y-86451842D01*
X144133333Y-86451842D02*
X144180952Y-86547080D01*
X144180952Y-86547080D02*
X144228571Y-86594700D01*
X144228571Y-86594700D02*
X144323809Y-86642319D01*
X144323809Y-86642319D02*
X144561904Y-86642319D01*
X144561904Y-86642319D02*
X144657142Y-86594700D01*
X144657142Y-86594700D02*
X144704761Y-86547080D01*
X145133333Y-104654819D02*
X145133333Y-105369104D01*
X145133333Y-105369104D02*
X145180952Y-105511961D01*
X145180952Y-105511961D02*
X145276190Y-105607200D01*
X145276190Y-105607200D02*
X145419047Y-105654819D01*
X145419047Y-105654819D02*
X145514285Y-105654819D01*
X144228571Y-104654819D02*
X144419047Y-104654819D01*
X144419047Y-104654819D02*
X144514285Y-104702438D01*
X144514285Y-104702438D02*
X144561904Y-104750057D01*
X144561904Y-104750057D02*
X144657142Y-104892914D01*
X144657142Y-104892914D02*
X144704761Y-105083390D01*
X144704761Y-105083390D02*
X144704761Y-105464342D01*
X144704761Y-105464342D02*
X144657142Y-105559580D01*
X144657142Y-105559580D02*
X144609523Y-105607200D01*
X144609523Y-105607200D02*
X144514285Y-105654819D01*
X144514285Y-105654819D02*
X144323809Y-105654819D01*
X144323809Y-105654819D02*
X144228571Y-105607200D01*
X144228571Y-105607200D02*
X144180952Y-105559580D01*
X144180952Y-105559580D02*
X144133333Y-105464342D01*
X144133333Y-105464342D02*
X144133333Y-105226247D01*
X144133333Y-105226247D02*
X144180952Y-105131009D01*
X144180952Y-105131009D02*
X144228571Y-105083390D01*
X144228571Y-105083390D02*
X144323809Y-105035771D01*
X144323809Y-105035771D02*
X144514285Y-105035771D01*
X144514285Y-105035771D02*
X144609523Y-105083390D01*
X144609523Y-105083390D02*
X144657142Y-105131009D01*
X144657142Y-105131009D02*
X144704761Y-105226247D01*
D10*
%TO.C,U4*%
X122750000Y-93700000D02*
X122750000Y-94500000D01*
X122750000Y-93700000D02*
X139250000Y-93700000D01*
X122750000Y-110700000D02*
X122750000Y-109900000D01*
X122750000Y-110700000D02*
X139250000Y-110700000D01*
X139250000Y-106600000D02*
X139250000Y-93700000D01*
X139250000Y-110700000D02*
X139250000Y-109300000D01*
D12*
X121775000Y-111300000D02*
G75*
G02*
X121425000Y-111300000I-175000J0D01*
G01*
X121425000Y-111300000D02*
G75*
G02*
X121775000Y-111300000I175000J0D01*
G01*
D10*
%TO.C,U3*%
X121100000Y-75287500D02*
X140100000Y-75287500D01*
X121100000Y-92287500D02*
X140100000Y-92287500D01*
X140100000Y-79287500D02*
X140100000Y-75287500D01*
X140100000Y-92287500D02*
X140100000Y-86187500D01*
D12*
X119975000Y-92387500D02*
G75*
G02*
X119625000Y-92387500I-175000J0D01*
G01*
X119625000Y-92387500D02*
G75*
G02*
X119975000Y-92387500I175000J0D01*
G01*
D13*
%TO.C,J5*%
X143300000Y-81287500D02*
X143300000Y-82087500D01*
X143300000Y-83487500D02*
X143300000Y-84287500D01*
X143300000Y-84287500D02*
X143500000Y-84287500D01*
X143500000Y-81287500D02*
X143300000Y-81287500D01*
X146100000Y-84287500D02*
X146300000Y-84287500D01*
X146300000Y-81487500D02*
X146100000Y-81287500D01*
X146300000Y-82087500D02*
X146300000Y-81487500D01*
X146300000Y-82087500D02*
X146800000Y-82087500D01*
X146300000Y-83487500D02*
X146800000Y-83487500D01*
X146300000Y-84287500D02*
X146300000Y-83487500D01*
%TO.C,J6*%
X143300000Y-107100000D02*
X143300000Y-107900000D01*
X143300000Y-109300000D02*
X143300000Y-110100000D01*
X143300000Y-110100000D02*
X143500000Y-110100000D01*
X143500000Y-107100000D02*
X143300000Y-107100000D01*
X146100000Y-110100000D02*
X146300000Y-110100000D01*
X146300000Y-107300000D02*
X146100000Y-107100000D01*
X146300000Y-107900000D02*
X146300000Y-107300000D01*
X146300000Y-107900000D02*
X146800000Y-107900000D01*
X146300000Y-109300000D02*
X146800000Y-109300000D01*
X146300000Y-110100000D02*
X146300000Y-109300000D01*
%TD*%
M02*
