M48
; DRILL file {KiCad 9.0.3} date 2025-08-29T17:45:57+0200
; FORMAT={-:-/ absolute / metric / decimal}
; #@! TF.CreationDate,2025-08-29T17:45:57+02:00
; #@! TF.GenerationSoftware,Kicad,Pcbnew,9.0.3
; #@! TF.FileFunction,Plated,1,2,PTH
FMAT,2
METRIC
; #@! TA.AperFunction,Plated,PTH,ViaDrill
T1C0.300
%
G90
G05
T1
X118.4Y-79.688
X119.0Y-74.5
X119.1Y-77.4
X119.1Y-98.4
X119.1Y-107.9
X120.0Y-100.2
X120.0Y-103.6
X120.4Y-93.2
X121.1Y-112.05
X121.4Y-113.4
X121.5Y-74.5
X122.1Y-93.2
X123.4Y-113.4
X124.0Y-74.5
X124.2Y-115.2
X124.55Y-88.8
X125.05Y-78.3
X125.05Y-79.95
X125.6Y-113.4
X125.65Y-88.15
X126.05Y-106.6
X126.05Y-109.2
X126.3Y-101.55
X126.5Y-74.5
X126.5Y-86.7
X126.95Y-100.3
X127.5Y-105.55
X127.5Y-108.25
X127.6Y-115.2
X127.8Y-112.1
X127.9Y-102.8
X128.25Y-104.15
X128.5Y-90.787
X129.0Y-74.5
X129.2Y-97.05
X129.2Y-99.9
X129.2Y-107.4
X129.5Y-87.0
X129.5Y-91.787
X131.2Y-91.8
X131.5Y-74.5
X132.0Y-110.0
X133.4Y-86.3
X133.4Y-99.05
X133.4Y-102.1
X133.7Y-109.0
X134.0Y-74.5
X134.0Y-104.15
X134.3Y-83.1
X134.8Y-98.4
X135.2Y-78.4
X136.4Y-115.2
X136.5Y-74.5
X139.0Y-74.5
X139.8Y-114.2
X141.0Y-115.2
X141.5Y-74.5
X146.0Y-79.5
X146.0Y-86.5
X146.0Y-94.0
X146.0Y-96.0
X146.0Y-98.0
X146.0Y-100.0
X146.0Y-102.0
X146.0Y-104.0
X146.0Y-114.0
M30
