%TF.GenerationSoftware,KiCad,Pcbnew,9.0.3*%
%TF.CreationDate,2025-08-29T17:45:50+02:00*%
%TF.ProjectId,RadioHAT_Card_Dorji,52616469-6f48-4415-945f-436172645f44,rev?*%
%TF.SameCoordinates,Original*%
%TF.FileFunction,Legend,Top*%
%TF.FilePolarity,Positive*%
%FSLAX46Y46*%
G04 Gerber Fmt 4.6, Leading zero omitted, Abs format (unit mm)*
G04 Created by KiCad (PCBNEW 9.0.3) date 2025-08-29 17:45:50*
%MOMM*%
%LPD*%
G01*
G04 APERTURE LIST*
%ADD10C,0.100000*%
%ADD11C,0.150000*%
%ADD12C,0.120000*%
%ADD13C,0.350000*%
G04 APERTURE END LIST*
D10*
X122600000Y-70000000D02*
X143000000Y-70000000D01*
X143000000Y-74000000D01*
X122600000Y-74000000D01*
X122600000Y-70000000D01*
G36*
X122600000Y-70000000D02*
G01*
X143000000Y-70000000D01*
X143000000Y-74000000D01*
X122600000Y-74000000D01*
X122600000Y-70000000D01*
G37*
X111516666Y-118207419D02*
X111516666Y-118921704D01*
X111516666Y-118921704D02*
X111469047Y-119064561D01*
X111469047Y-119064561D02*
X111373809Y-119159800D01*
X111373809Y-119159800D02*
X111230952Y-119207419D01*
X111230952Y-119207419D02*
X111135714Y-119207419D01*
X112516666Y-119207419D02*
X111945238Y-119207419D01*
X112230952Y-119207419D02*
X112230952Y-118207419D01*
X112230952Y-118207419D02*
X112135714Y-118350276D01*
X112135714Y-118350276D02*
X112040476Y-118445514D01*
X112040476Y-118445514D02*
X111945238Y-118493133D01*
D11*
X144466666Y-93442319D02*
X144466666Y-94156604D01*
X144466666Y-94156604D02*
X144419047Y-94299461D01*
X144419047Y-94299461D02*
X144323809Y-94394700D01*
X144323809Y-94394700D02*
X144180952Y-94442319D01*
X144180952Y-94442319D02*
X144085714Y-94442319D01*
X145371428Y-93775652D02*
X145371428Y-94442319D01*
X145133333Y-93394700D02*
X144895238Y-94108985D01*
X144895238Y-94108985D02*
X145514285Y-94108985D01*
X144466666Y-107054819D02*
X144466666Y-107769104D01*
X144466666Y-107769104D02*
X144419047Y-107911961D01*
X144419047Y-107911961D02*
X144323809Y-108007200D01*
X144323809Y-108007200D02*
X144180952Y-108054819D01*
X144180952Y-108054819D02*
X144085714Y-108054819D01*
X144895238Y-107150057D02*
X144942857Y-107102438D01*
X144942857Y-107102438D02*
X145038095Y-107054819D01*
X145038095Y-107054819D02*
X145276190Y-107054819D01*
X145276190Y-107054819D02*
X145371428Y-107102438D01*
X145371428Y-107102438D02*
X145419047Y-107150057D01*
X145419047Y-107150057D02*
X145466666Y-107245295D01*
X145466666Y-107245295D02*
X145466666Y-107340533D01*
X145466666Y-107340533D02*
X145419047Y-107483390D01*
X145419047Y-107483390D02*
X144847619Y-108054819D01*
X144847619Y-108054819D02*
X145466666Y-108054819D01*
D10*
X131361904Y-105242580D02*
X131361904Y-104433057D01*
X131361904Y-104433057D02*
X131314285Y-104337819D01*
X131314285Y-104337819D02*
X131266666Y-104290200D01*
X131266666Y-104290200D02*
X131171428Y-104242580D01*
X131171428Y-104242580D02*
X130980952Y-104242580D01*
X130980952Y-104242580D02*
X130885714Y-104290200D01*
X130885714Y-104290200D02*
X130838095Y-104337819D01*
X130838095Y-104337819D02*
X130790476Y-104433057D01*
X130790476Y-104433057D02*
X130790476Y-105242580D01*
X129790476Y-104242580D02*
X130361904Y-104242580D01*
X130076190Y-104242580D02*
X130076190Y-105242580D01*
X130076190Y-105242580D02*
X130171428Y-105099723D01*
X130171428Y-105099723D02*
X130266666Y-105004485D01*
X130266666Y-105004485D02*
X130361904Y-104956866D01*
X133696115Y-110727580D02*
X133696115Y-111727580D01*
X133696115Y-111727580D02*
X133458020Y-111727580D01*
X133458020Y-111727580D02*
X133315163Y-111679961D01*
X133315163Y-111679961D02*
X133219925Y-111584723D01*
X133219925Y-111584723D02*
X133172306Y-111489485D01*
X133172306Y-111489485D02*
X133124687Y-111299009D01*
X133124687Y-111299009D02*
X133124687Y-111156152D01*
X133124687Y-111156152D02*
X133172306Y-110965676D01*
X133172306Y-110965676D02*
X133219925Y-110870438D01*
X133219925Y-110870438D02*
X133315163Y-110775200D01*
X133315163Y-110775200D02*
X133458020Y-110727580D01*
X133458020Y-110727580D02*
X133696115Y-110727580D01*
X132124687Y-110727580D02*
X132458020Y-111203771D01*
X132696115Y-110727580D02*
X132696115Y-111727580D01*
X132696115Y-111727580D02*
X132315163Y-111727580D01*
X132315163Y-111727580D02*
X132219925Y-111679961D01*
X132219925Y-111679961D02*
X132172306Y-111632342D01*
X132172306Y-111632342D02*
X132124687Y-111537104D01*
X132124687Y-111537104D02*
X132124687Y-111394247D01*
X132124687Y-111394247D02*
X132172306Y-111299009D01*
X132172306Y-111299009D02*
X132219925Y-111251390D01*
X132219925Y-111251390D02*
X132315163Y-111203771D01*
X132315163Y-111203771D02*
X132696115Y-111203771D01*
X131362782Y-111251390D02*
X131696115Y-111251390D01*
X131696115Y-110727580D02*
X131696115Y-111727580D01*
X131696115Y-111727580D02*
X131219925Y-111727580D01*
X130315163Y-110727580D02*
X130886591Y-110727580D01*
X130600877Y-110727580D02*
X130600877Y-111727580D01*
X130600877Y-111727580D02*
X130696115Y-111584723D01*
X130696115Y-111584723D02*
X130791353Y-111489485D01*
X130791353Y-111489485D02*
X130886591Y-111441866D01*
X129934210Y-111632342D02*
X129886591Y-111679961D01*
X129886591Y-111679961D02*
X129791353Y-111727580D01*
X129791353Y-111727580D02*
X129553258Y-111727580D01*
X129553258Y-111727580D02*
X129458020Y-111679961D01*
X129458020Y-111679961D02*
X129410401Y-111632342D01*
X129410401Y-111632342D02*
X129362782Y-111537104D01*
X129362782Y-111537104D02*
X129362782Y-111441866D01*
X129362782Y-111441866D02*
X129410401Y-111299009D01*
X129410401Y-111299009D02*
X129981829Y-110727580D01*
X129981829Y-110727580D02*
X129362782Y-110727580D01*
X128505639Y-111727580D02*
X128696115Y-111727580D01*
X128696115Y-111727580D02*
X128791353Y-111679961D01*
X128791353Y-111679961D02*
X128838972Y-111632342D01*
X128838972Y-111632342D02*
X128934210Y-111489485D01*
X128934210Y-111489485D02*
X128981829Y-111299009D01*
X128981829Y-111299009D02*
X128981829Y-110918057D01*
X128981829Y-110918057D02*
X128934210Y-110822819D01*
X128934210Y-110822819D02*
X128886591Y-110775200D01*
X128886591Y-110775200D02*
X128791353Y-110727580D01*
X128791353Y-110727580D02*
X128600877Y-110727580D01*
X128600877Y-110727580D02*
X128505639Y-110775200D01*
X128505639Y-110775200D02*
X128458020Y-110822819D01*
X128458020Y-110822819D02*
X128410401Y-110918057D01*
X128410401Y-110918057D02*
X128410401Y-111156152D01*
X128410401Y-111156152D02*
X128458020Y-111251390D01*
X128458020Y-111251390D02*
X128505639Y-111299009D01*
X128505639Y-111299009D02*
X128600877Y-111346628D01*
X128600877Y-111346628D02*
X128791353Y-111346628D01*
X128791353Y-111346628D02*
X128886591Y-111299009D01*
X128886591Y-111299009D02*
X128934210Y-111251390D01*
X128934210Y-111251390D02*
X128981829Y-111156152D01*
X128077067Y-111727580D02*
X127410401Y-110727580D01*
X127410401Y-111727580D02*
X128077067Y-110727580D01*
D11*
X144466666Y-79842319D02*
X144466666Y-80556604D01*
X144466666Y-80556604D02*
X144419047Y-80699461D01*
X144419047Y-80699461D02*
X144323809Y-80794700D01*
X144323809Y-80794700D02*
X144180952Y-80842319D01*
X144180952Y-80842319D02*
X144085714Y-80842319D01*
X144847619Y-79842319D02*
X145466666Y-79842319D01*
X145466666Y-79842319D02*
X145133333Y-80223271D01*
X145133333Y-80223271D02*
X145276190Y-80223271D01*
X145276190Y-80223271D02*
X145371428Y-80270890D01*
X145371428Y-80270890D02*
X145419047Y-80318509D01*
X145419047Y-80318509D02*
X145466666Y-80413747D01*
X145466666Y-80413747D02*
X145466666Y-80651842D01*
X145466666Y-80651842D02*
X145419047Y-80747080D01*
X145419047Y-80747080D02*
X145371428Y-80794700D01*
X145371428Y-80794700D02*
X145276190Y-80842319D01*
X145276190Y-80842319D02*
X144990476Y-80842319D01*
X144990476Y-80842319D02*
X144895238Y-80794700D01*
X144895238Y-80794700D02*
X144847619Y-80747080D01*
D10*
X129863095Y-84557419D02*
X129863095Y-85366942D01*
X129863095Y-85366942D02*
X129910714Y-85462180D01*
X129910714Y-85462180D02*
X129958333Y-85509800D01*
X129958333Y-85509800D02*
X130053571Y-85557419D01*
X130053571Y-85557419D02*
X130244047Y-85557419D01*
X130244047Y-85557419D02*
X130339285Y-85509800D01*
X130339285Y-85509800D02*
X130386904Y-85462180D01*
X130386904Y-85462180D02*
X130434523Y-85366942D01*
X130434523Y-85366942D02*
X130434523Y-84557419D01*
X130863095Y-84652657D02*
X130910714Y-84605038D01*
X130910714Y-84605038D02*
X131005952Y-84557419D01*
X131005952Y-84557419D02*
X131244047Y-84557419D01*
X131244047Y-84557419D02*
X131339285Y-84605038D01*
X131339285Y-84605038D02*
X131386904Y-84652657D01*
X131386904Y-84652657D02*
X131434523Y-84747895D01*
X131434523Y-84747895D02*
X131434523Y-84843133D01*
X131434523Y-84843133D02*
X131386904Y-84985990D01*
X131386904Y-84985990D02*
X130815476Y-85557419D01*
X130815476Y-85557419D02*
X131434523Y-85557419D01*
X127528884Y-79072419D02*
X127528884Y-78072419D01*
X127528884Y-78072419D02*
X127766979Y-78072419D01*
X127766979Y-78072419D02*
X127909836Y-78120038D01*
X127909836Y-78120038D02*
X128005074Y-78215276D01*
X128005074Y-78215276D02*
X128052693Y-78310514D01*
X128052693Y-78310514D02*
X128100312Y-78500990D01*
X128100312Y-78500990D02*
X128100312Y-78643847D01*
X128100312Y-78643847D02*
X128052693Y-78834323D01*
X128052693Y-78834323D02*
X128005074Y-78929561D01*
X128005074Y-78929561D02*
X127909836Y-79024800D01*
X127909836Y-79024800D02*
X127766979Y-79072419D01*
X127766979Y-79072419D02*
X127528884Y-79072419D01*
X129100312Y-79072419D02*
X128766979Y-78596228D01*
X128528884Y-79072419D02*
X128528884Y-78072419D01*
X128528884Y-78072419D02*
X128909836Y-78072419D01*
X128909836Y-78072419D02*
X129005074Y-78120038D01*
X129005074Y-78120038D02*
X129052693Y-78167657D01*
X129052693Y-78167657D02*
X129100312Y-78262895D01*
X129100312Y-78262895D02*
X129100312Y-78405752D01*
X129100312Y-78405752D02*
X129052693Y-78500990D01*
X129052693Y-78500990D02*
X129005074Y-78548609D01*
X129005074Y-78548609D02*
X128909836Y-78596228D01*
X128909836Y-78596228D02*
X128528884Y-78596228D01*
X129862217Y-78548609D02*
X129528884Y-78548609D01*
X129528884Y-79072419D02*
X129528884Y-78072419D01*
X129528884Y-78072419D02*
X130005074Y-78072419D01*
X130909836Y-79072419D02*
X130338408Y-79072419D01*
X130624122Y-79072419D02*
X130624122Y-78072419D01*
X130624122Y-78072419D02*
X130528884Y-78215276D01*
X130528884Y-78215276D02*
X130433646Y-78310514D01*
X130433646Y-78310514D02*
X130338408Y-78358133D01*
X131290789Y-78167657D02*
X131338408Y-78120038D01*
X131338408Y-78120038D02*
X131433646Y-78072419D01*
X131433646Y-78072419D02*
X131671741Y-78072419D01*
X131671741Y-78072419D02*
X131766979Y-78120038D01*
X131766979Y-78120038D02*
X131814598Y-78167657D01*
X131814598Y-78167657D02*
X131862217Y-78262895D01*
X131862217Y-78262895D02*
X131862217Y-78358133D01*
X131862217Y-78358133D02*
X131814598Y-78500990D01*
X131814598Y-78500990D02*
X131243170Y-79072419D01*
X131243170Y-79072419D02*
X131862217Y-79072419D01*
X132195551Y-78072419D02*
X132862217Y-78072419D01*
X132862217Y-78072419D02*
X132433646Y-79072419D01*
X133147932Y-78072419D02*
X133814598Y-79072419D01*
X133814598Y-78072419D02*
X133147932Y-79072419D01*
D12*
%TO.C,J4*%
X143300000Y-88887500D02*
X143500000Y-88887500D01*
X143300000Y-89687500D02*
X143300000Y-88887500D01*
X143300000Y-91887500D02*
X143300000Y-91087500D01*
X143500000Y-91887500D02*
X143300000Y-91887500D01*
X146100000Y-88887500D02*
X146300000Y-88887500D01*
X146300000Y-88887500D02*
X146300000Y-89687500D01*
X146300000Y-89687500D02*
X146800000Y-89687500D01*
X146300000Y-91087500D02*
X146300000Y-91687500D01*
X146300000Y-91087500D02*
X146800000Y-91087500D01*
X146300000Y-91687500D02*
X146100000Y-91887500D01*
%TO.C,J2*%
X143300000Y-109500000D02*
X143500000Y-109500000D01*
X143300000Y-110300000D02*
X143300000Y-109500000D01*
X143300000Y-112500000D02*
X143300000Y-111700000D01*
X143500000Y-112500000D02*
X143300000Y-112500000D01*
X146100000Y-109500000D02*
X146300000Y-109500000D01*
X146300000Y-109500000D02*
X146300000Y-110300000D01*
X146300000Y-110300000D02*
X146800000Y-110300000D01*
X146300000Y-111700000D02*
X146300000Y-112300000D01*
X146300000Y-111700000D02*
X146800000Y-111700000D01*
X146300000Y-112300000D02*
X146100000Y-112500000D01*
D10*
%TO.C,U1*%
X123600000Y-96700000D02*
X123600000Y-97500000D01*
X123600000Y-112700000D02*
X123600000Y-111900000D01*
X137600000Y-96700000D02*
X123600000Y-96700000D01*
X137600000Y-97500000D02*
X137600000Y-96700000D01*
X137600000Y-111900000D02*
X137600000Y-112700000D01*
X137600000Y-112700000D02*
X123600000Y-112700000D01*
D13*
X138875000Y-112400000D02*
G75*
G02*
X138525000Y-112400000I-175000J0D01*
G01*
X138525000Y-112400000D02*
G75*
G02*
X138875000Y-112400000I175000J0D01*
G01*
D12*
%TO.C,J3*%
X143300000Y-75087500D02*
X143500000Y-75087500D01*
X143300000Y-75887500D02*
X143300000Y-75087500D01*
X143300000Y-78087500D02*
X143300000Y-77287500D01*
X143500000Y-78087500D02*
X143300000Y-78087500D01*
X146100000Y-75087500D02*
X146300000Y-75087500D01*
X146300000Y-75087500D02*
X146300000Y-75887500D01*
X146300000Y-75887500D02*
X146800000Y-75887500D01*
X146300000Y-77287500D02*
X146300000Y-77887500D01*
X146300000Y-77287500D02*
X146800000Y-77287500D01*
X146300000Y-77887500D02*
X146100000Y-78087500D01*
D10*
%TO.C,U2*%
X122125000Y-75700000D02*
X139125000Y-75700000D01*
X122125000Y-92700000D02*
X139125000Y-92700000D01*
X139125000Y-78600000D02*
X139125000Y-89800000D01*
D13*
X121400000Y-75100000D02*
G75*
G02*
X121050000Y-75100000I-175000J0D01*
G01*
X121050000Y-75100000D02*
G75*
G02*
X121400000Y-75100000I175000J0D01*
G01*
%TD*%
M02*
