%TF.GenerationSoftware,KiCad,Pcbnew,9.0.3*%
%TF.CreationDate,2025-08-29T17:44:56+02:00*%
%TF.ProjectId,RadioHAT,52616469-6f48-4415-942e-6b696361645f,rev?*%
%TF.SameCoordinates,Original*%
%TF.FileFunction,Soldermask,Bot*%
%TF.FilePolarity,Negative*%
%FSLAX46Y46*%
G04 Gerber Fmt 4.6, Leading zero omitted, Abs format (unit mm)*
G04 Created by KiCad (PCBNEW 9.0.3) date 2025-08-29 17:44:56*
%MOMM*%
%LPD*%
G01*
G04 APERTURE LIST*
%ADD10C,1.600000*%
%ADD11C,1.100000*%
%ADD12C,6.500000*%
%ADD13C,1.700000*%
%ADD14O,1.700000X1.700000*%
%ADD15R,1.700000X1.700000*%
G04 APERTURE END LIST*
D10*
%TO.C,J2*%
X119600000Y-91300000D03*
D11*
X119600000Y-116300000D03*
D12*
X143500000Y-91700000D03*
X143500000Y-115900000D03*
X167650000Y-91700000D03*
X167650000Y-115900000D03*
%TD*%
D13*
%TO.C,J1*%
X115900000Y-75628000D03*
D14*
X115900000Y-73088000D03*
X118440000Y-75628000D03*
X118440000Y-73088000D03*
X120980000Y-75628000D03*
D15*
X120980000Y-73088000D03*
D14*
X123520000Y-75628000D03*
X123520000Y-73088000D03*
D15*
X126060000Y-75628000D03*
D14*
X126060000Y-73088000D03*
X128600000Y-75628000D03*
X128600000Y-73088000D03*
X131140000Y-75628000D03*
D15*
X131140000Y-73088000D03*
D14*
X133680000Y-75628000D03*
X133680000Y-73088000D03*
X136220000Y-75628000D03*
X136220000Y-73088000D03*
X138760000Y-75628000D03*
D15*
X138760000Y-73088000D03*
D14*
X141300000Y-75628000D03*
X141300000Y-73088000D03*
X143840000Y-75628000D03*
X143840000Y-73088000D03*
D15*
X146380000Y-75628000D03*
D14*
X146380000Y-73088000D03*
X148920000Y-75628000D03*
X148920000Y-73088000D03*
X151460000Y-75628000D03*
D15*
X151460000Y-73088000D03*
D14*
X154000000Y-75628000D03*
X154000000Y-73088000D03*
X156540000Y-75628000D03*
D15*
X156540000Y-73088000D03*
D14*
X159080000Y-75628000D03*
X159080000Y-73088000D03*
X161620000Y-75628000D03*
X161620000Y-73088000D03*
D15*
X164160000Y-75628000D03*
D14*
X164160000Y-73088000D03*
%TD*%
M02*
