%TF.GenerationSoftware,KiCad,Pcbnew,9.0.3*%
%TF.CreationDate,2025-08-29T17:44:56+02:00*%
%TF.ProjectId,RadioHAT,52616469-6f48-4415-942e-6b696361645f,rev?*%
%TF.SameCoordinates,Original*%
%TF.FileFunction,Copper,L1,Top*%
%TF.FilePolarity,Positive*%
%FSLAX46Y46*%
G04 Gerber Fmt 4.6, Leading zero omitted, Abs format (unit mm)*
G04 Created by KiCad (PCBNEW 9.0.3) date 2025-08-29 17:44:56*
%MOMM*%
%LPD*%
G01*
G04 APERTURE LIST*
G04 Aperture macros list*
%AMRoundRect*
0 Rectangle with rounded corners*
0 $1 Rounding radius*
0 $2 $3 $4 $5 $6 $7 $8 $9 X,Y pos of 4 corners*
0 Add a 4 corners polygon primitive as box body*
4,1,4,$2,$3,$4,$5,$6,$7,$8,$9,$2,$3,0*
0 Add four circle primitives for the rounded corners*
1,1,$1+$1,$2,$3*
1,1,$1+$1,$4,$5*
1,1,$1+$1,$6,$7*
1,1,$1+$1,$8,$9*
0 Add four rect primitives between the rounded corners*
20,1,$1+$1,$2,$3,$4,$5,0*
20,1,$1+$1,$4,$5,$6,$7,0*
20,1,$1+$1,$6,$7,$8,$9,0*
20,1,$1+$1,$8,$9,$2,$3,0*%
G04 Aperture macros list end*
%TA.AperFunction,SMDPad,CuDef*%
%ADD10RoundRect,0.060000X0.940000X0.240000X-0.940000X0.240000X-0.940000X-0.240000X0.940000X-0.240000X0*%
%TD*%
%TA.AperFunction,SMDPad,CuDef*%
%ADD11R,3.200000X2.300000*%
%TD*%
%TA.AperFunction,ComponentPad*%
%ADD12C,6.500000*%
%TD*%
%TA.AperFunction,ComponentPad*%
%ADD13C,1.700000*%
%TD*%
%TA.AperFunction,ComponentPad*%
%ADD14O,1.700000X1.700000*%
%TD*%
%TA.AperFunction,ComponentPad*%
%ADD15R,1.700000X1.700000*%
%TD*%
%TA.AperFunction,ViaPad*%
%ADD16C,0.700000*%
%TD*%
%TA.AperFunction,Conductor*%
%ADD17C,0.200000*%
%TD*%
%TA.AperFunction,Conductor*%
%ADD18C,0.400000*%
%TD*%
G04 APERTURE END LIST*
D10*
%TO.P,J2,1,GPIO0*%
%TO.N,GPIO0*%
X115500000Y-92000000D03*
%TO.P,J2,2,3V3*%
%TO.N,+3.3V*%
X123700000Y-92400000D03*
%TO.P,J2,3,IRQ0*%
%TO.N,IRQ0*%
X115500000Y-92800000D03*
%TO.P,J2,4,GND*%
%TO.N,GND*%
X123700000Y-93200000D03*
%TO.P,J2,5,IRQ1*%
%TO.N,IRQ1*%
X115500000Y-93600000D03*
%TO.P,J2,6*%
%TO.N,N/C*%
X123700000Y-94000000D03*
%TO.P,J2,7,GPIO1*%
%TO.N,GPIO1*%
X115500000Y-94400000D03*
%TO.P,J2,8*%
%TO.N,N/C*%
X123700000Y-94800000D03*
%TO.P,J2,9,GND*%
%TO.N,GND*%
X115500000Y-95200000D03*
%TO.P,J2,10*%
%TO.N,N/C*%
X123700000Y-95600000D03*
%TO.P,J2,11,RST0*%
%TO.N,RST0*%
X115500000Y-96000000D03*
%TO.P,J2,12*%
%TO.N,N/C*%
X123700000Y-96400000D03*
%TO.P,J2,13,RST1*%
%TO.N,RST1*%
X115500000Y-96800000D03*
%TO.P,J2,14*%
%TO.N,N/C*%
X123700000Y-97200000D03*
%TO.P,J2,15,GND*%
%TO.N,GND*%
X115500000Y-97600000D03*
%TO.P,J2,16*%
%TO.N,N/C*%
X123700000Y-98000000D03*
%TO.P,J2,17*%
X115500000Y-101600000D03*
%TO.P,J2,18,GND*%
%TO.N,GND*%
X123700000Y-102000000D03*
%TO.P,J2,19*%
%TO.N,N/C*%
X115500000Y-102400000D03*
%TO.P,J2,20*%
X123700000Y-102800000D03*
%TO.P,J2,21,GND*%
%TO.N,GND*%
X115500000Y-103200000D03*
%TO.P,J2,22*%
%TO.N,N/C*%
X123700000Y-103600000D03*
%TO.P,J2,23*%
X115500000Y-104000000D03*
%TO.P,J2,24,3V3*%
%TO.N,+3.3V*%
X123700000Y-104400000D03*
%TO.P,J2,25*%
%TO.N,N/C*%
X115500000Y-104800000D03*
%TO.P,J2,26,GND*%
%TO.N,GND*%
X123700000Y-105200000D03*
%TO.P,J2,27,GND*%
X115500000Y-105600000D03*
%TO.P,J2,28*%
%TO.N,N/C*%
X123700000Y-106000000D03*
%TO.P,J2,29,GND*%
%TO.N,GND*%
X115500000Y-106400000D03*
%TO.P,J2,30,I2C_SCL*%
%TO.N,SDA*%
X123700000Y-106800000D03*
%TO.P,J2,31,PPS*%
%TO.N,unconnected-(J2-PPS-Pad31)*%
X115500000Y-107200000D03*
%TO.P,J2,32,I2C_SCL*%
%TO.N,SCL*%
X123700000Y-107600000D03*
%TO.P,J2,33*%
%TO.N,N/C*%
X115500000Y-108000000D03*
%TO.P,J2,34,GND*%
%TO.N,GND*%
X123700000Y-108400000D03*
%TO.P,J2,35,GND*%
X115500000Y-108800000D03*
%TO.P,J2,36,USB_D-*%
%TO.N,unconnected-(J2-USB_D--Pad36)*%
X123700000Y-109200000D03*
%TO.P,J2,37,GND*%
%TO.N,GND*%
X115500000Y-109600000D03*
%TO.P,J2,38,USB_D+*%
%TO.N,unconnected-(J2-USB_D+-Pad38)*%
X123700000Y-110000000D03*
%TO.P,J2,39,3V3*%
%TO.N,+3.3V*%
X115500000Y-110400000D03*
%TO.P,J2,40,GND*%
%TO.N,GND*%
X123700000Y-110800000D03*
%TO.P,J2,41,3V3*%
%TO.N,+3.3V*%
X115500000Y-111200000D03*
%TO.P,J2,42,LED0*%
%TO.N,unconnected-(J2-LED0-Pad42)*%
X123700000Y-111600000D03*
%TO.P,J2,43,GND*%
%TO.N,GND*%
X115500000Y-112000000D03*
%TO.P,J2,44,LED1*%
%TO.N,unconnected-(J2-LED1-Pad44)*%
X123700000Y-112400000D03*
%TO.P,J2,45,SPI_SCK*%
%TO.N,SCK*%
X115500000Y-112800000D03*
%TO.P,J2,46,LED2*%
%TO.N,unconnected-(J2-LED2-Pad46)*%
X123700000Y-113200000D03*
%TO.P,J2,47,SPI_MISO*%
%TO.N,MISO*%
X115500000Y-113600000D03*
%TO.P,J2,48*%
%TO.N,N/C*%
X123700000Y-114000000D03*
%TO.P,J2,49,SPI_MOSI*%
%TO.N,MOSI*%
X115500000Y-114400000D03*
%TO.P,J2,50,GND*%
%TO.N,GND*%
X123700000Y-114800000D03*
%TO.P,J2,51,SPI_NSS*%
%TO.N,NSS*%
X115500000Y-115200000D03*
%TO.P,J2,52,3V3*%
%TO.N,+3.3V*%
X123700000Y-115600000D03*
D11*
%TO.P,J2,53,PAD*%
%TO.N,GND*%
X116100000Y-89100000D03*
%TO.P,J2,54,PAD*%
X116100000Y-118400000D03*
D12*
%TO.P,J2,55,MNT_HALF*%
X143500000Y-91700000D03*
%TO.P,J2,56,MNT_HALF*%
X143500000Y-115900000D03*
%TO.P,J2,57,MNT_FULL*%
X167650000Y-91700000D03*
%TO.P,J2,58,MNT_FULL*%
X167650000Y-115900000D03*
%TD*%
D13*
%TO.P,J1,1,3.3V*%
%TO.N,+3.3V*%
X115900000Y-75628000D03*
D14*
%TO.P,J1,2,5V*%
%TO.N,unconnected-(J1-5V-Pad2)*%
X115900000Y-73088000D03*
%TO.P,J1,3,BCM2_SDA*%
%TO.N,SDA*%
X118440000Y-75628000D03*
%TO.P,J1,4,5V*%
%TO.N,unconnected-(J1-5V-Pad4)*%
X118440000Y-73088000D03*
%TO.P,J1,5,BCM3_SCL*%
%TO.N,SCL*%
X120980000Y-75628000D03*
D15*
%TO.P,J1,6,GND*%
%TO.N,GND*%
X120980000Y-73088000D03*
D14*
%TO.P,J1,7,BCM4_GPCLK0*%
%TO.N,unconnected-(J1-BCM4_GPCLK0-Pad7)*%
X123520000Y-75628000D03*
%TO.P,J1,8,BCM14_TXD*%
%TO.N,unconnected-(J1-BCM14_TXD-Pad8)*%
X123520000Y-73088000D03*
D15*
%TO.P,J1,9,GND*%
%TO.N,GND*%
X126060000Y-75628000D03*
D14*
%TO.P,J1,10,BCM15_RXD*%
%TO.N,unconnected-(J1-BCM15_RXD-Pad10)*%
X126060000Y-73088000D03*
%TO.P,J1,11,BCM17*%
%TO.N,unconnected-(J1-BCM17-Pad11)*%
X128600000Y-75628000D03*
%TO.P,J1,12,BCM18_PCM_C*%
%TO.N,RST0*%
X128600000Y-73088000D03*
%TO.P,J1,13,BCM27*%
%TO.N,unconnected-(J1-BCM27-Pad13)*%
X131140000Y-75628000D03*
D15*
%TO.P,J1,14,GND*%
%TO.N,GND*%
X131140000Y-73088000D03*
D14*
%TO.P,J1,15,BCM22*%
%TO.N,unconnected-(J1-BCM22-Pad15)*%
X133680000Y-75628000D03*
%TO.P,J1,16,BCM23*%
%TO.N,GPIO1*%
X133680000Y-73088000D03*
%TO.P,J1,17,3.3V*%
%TO.N,+3.3V*%
X136220000Y-75628000D03*
%TO.P,J1,18,BCM24*%
%TO.N,IRQ1*%
X136220000Y-73088000D03*
%TO.P,J1,19,BCM10_MOSI*%
%TO.N,MOSI*%
X138760000Y-75628000D03*
D15*
%TO.P,J1,20,GND*%
%TO.N,GND*%
X138760000Y-73088000D03*
D14*
%TO.P,J1,21,BCM9_MISO*%
%TO.N,MISO*%
X141300000Y-75628000D03*
%TO.P,J1,22,BCM25*%
%TO.N,RST1*%
X141300000Y-73088000D03*
%TO.P,J1,23,BCM11_SCLK*%
%TO.N,SCK*%
X143840000Y-75628000D03*
%TO.P,J1,24,BCM8_CE0*%
%TO.N,unconnected-(J1-BCM8_CE0-Pad24)*%
X143840000Y-73088000D03*
D15*
%TO.P,J1,25,GND*%
%TO.N,GND*%
X146380000Y-75628000D03*
D14*
%TO.P,J1,26,BCM7_CE1*%
%TO.N,unconnected-(J1-BCM7_CE1-Pad26)*%
X146380000Y-73088000D03*
%TO.P,J1,27,BCM0_ID_SD*%
%TO.N,unconnected-(J1-BCM0_ID_SD-Pad27)*%
X148920000Y-75628000D03*
%TO.P,J1,28,BCM1_ID_SC*%
%TO.N,unconnected-(J1-BCM1_ID_SC-Pad28)*%
X148920000Y-73088000D03*
%TO.P,J1,29,BCM5*%
%TO.N,unconnected-(J1-BCM5-Pad29)*%
X151460000Y-75628000D03*
D15*
%TO.P,J1,30,GND*%
%TO.N,GND*%
X151460000Y-73088000D03*
D14*
%TO.P,J1,31,BCM6*%
%TO.N,unconnected-(J1-BCM6-Pad31)*%
X154000000Y-75628000D03*
%TO.P,J1,32,BCM12_PWM0*%
%TO.N,unconnected-(J1-BCM12_PWM0-Pad32)*%
X154000000Y-73088000D03*
%TO.P,J1,33,BCM13_PWM1*%
%TO.N,unconnected-(J1-BCM13_PWM1-Pad33)*%
X156540000Y-75628000D03*
D15*
%TO.P,J1,34,GND*%
%TO.N,GND*%
X156540000Y-73088000D03*
D14*
%TO.P,J1,35,BCM19_MISO_PCM_FS*%
%TO.N,unconnected-(J1-BCM19_MISO_PCM_FS-Pad35)*%
X159080000Y-75628000D03*
%TO.P,J1,36,BCM16*%
%TO.N,IRQ0*%
X159080000Y-73088000D03*
%TO.P,J1,37,BCM26*%
%TO.N,unconnected-(J1-BCM26-Pad37)*%
X161620000Y-75628000D03*
%TO.P,J1,38,BCM20_MOSI_PCM_DI*%
%TO.N,GPIO0*%
X161620000Y-73088000D03*
D15*
%TO.P,J1,39,GND*%
%TO.N,GND*%
X164160000Y-75628000D03*
D14*
%TO.P,J1,40,BCM21_SCLK_PCM_DO*%
%TO.N,NSS*%
X164160000Y-73088000D03*
%TD*%
D16*
%TO.N,GPIO1*%
X117900000Y-94400000D03*
%TO.N,SDA*%
X118400000Y-106800000D03*
%TO.N,IRQ0*%
X121900000Y-92800000D03*
%TO.N,RST1*%
X119400000Y-96800000D03*
%TO.N,MISO*%
X131300000Y-113600000D03*
X117500000Y-113600000D03*
%TO.N,RST0*%
X117900000Y-96000000D03*
%TO.N,MOSI*%
X113500000Y-114400000D03*
X129800000Y-114400000D03*
%TO.N,SCK*%
X132800000Y-112800000D03*
X113500000Y-112800000D03*
%TO.N,SCL*%
X121400000Y-107600000D03*
%TO.N,GPIO0*%
X126200000Y-87600000D03*
%TO.N,IRQ1*%
X118900000Y-93600000D03*
%TD*%
D17*
%TO.N,GPIO1*%
X117900000Y-94400000D02*
X115500000Y-94400000D01*
%TO.N,SDA*%
X118400000Y-106800000D02*
X123700000Y-106800000D01*
%TO.N,IRQ0*%
X115500000Y-92800000D02*
X121900000Y-92800000D01*
D18*
%TO.N,+3.3V*%
X123700000Y-92400000D02*
X127600000Y-92400000D01*
X132848000Y-79000000D02*
X136220000Y-75628000D01*
X126400000Y-115600000D02*
X126500000Y-115500000D01*
X127600000Y-79000000D02*
X119200000Y-79000000D01*
X115900000Y-75700000D02*
X115900000Y-75628000D01*
X123700000Y-115600000D02*
X126400000Y-115600000D01*
X123700000Y-104400000D02*
X127600000Y-104400000D01*
X117250000Y-110850000D02*
X116900000Y-111200000D01*
X127600000Y-79000000D02*
X132848000Y-79000000D01*
X127600000Y-114400000D02*
X127600000Y-104400000D01*
X122000000Y-115600000D02*
X117250000Y-110850000D01*
X119200000Y-79000000D02*
X115900000Y-75700000D01*
X116800000Y-110400000D02*
X115500000Y-110400000D01*
X123700000Y-115600000D02*
X122000000Y-115600000D01*
X126500000Y-115500000D02*
X127600000Y-114400000D01*
X116900000Y-111200000D02*
X115500000Y-111200000D01*
X127600000Y-92400000D02*
X127600000Y-79000000D01*
X117250000Y-110850000D02*
X116800000Y-110400000D01*
X127600000Y-104400000D02*
X127600000Y-92400000D01*
D17*
%TO.N,RST1*%
X119400000Y-96800000D02*
X115500000Y-96800000D01*
%TO.N,NSS*%
X162900000Y-74348000D02*
X162900000Y-86100000D01*
X131600000Y-117400000D02*
X118812897Y-117400000D01*
X162900000Y-86100000D02*
X131600000Y-117400000D01*
X164160000Y-73088000D02*
X162900000Y-74348000D01*
X118812897Y-117400000D02*
X116612897Y-115200000D01*
X116612897Y-115200000D02*
X115500000Y-115200000D01*
%TO.N,MISO*%
X131300000Y-113600000D02*
X131300000Y-85628000D01*
X131300000Y-85628000D02*
X141300000Y-75628000D01*
X117500000Y-113600000D02*
X115500000Y-113600000D01*
%TO.N,RST0*%
X117900000Y-96000000D02*
X115500000Y-96000000D01*
%TO.N,MOSI*%
X113500000Y-114400000D02*
X115500000Y-114400000D01*
X129800000Y-114400000D02*
X129800000Y-84588000D01*
X129800000Y-84588000D02*
X138760000Y-75628000D01*
%TO.N,SCK*%
X132800000Y-112800000D02*
X132800000Y-86668000D01*
X113500000Y-112800000D02*
X115500000Y-112800000D01*
X132800000Y-86668000D02*
X143840000Y-75628000D01*
%TO.N,SCL*%
X121400000Y-107600000D02*
X123700000Y-107600000D01*
%TO.N,GPIO0*%
X126200000Y-87600000D02*
X121212859Y-87600000D01*
X116812859Y-92000000D02*
X115500000Y-92000000D01*
X121212859Y-87600000D02*
X116812859Y-92000000D01*
%TO.N,IRQ1*%
X118900000Y-93600000D02*
X115500000Y-93600000D01*
%TD*%
%TA.AperFunction,Conductor*%
%TO.N,GND*%
G36*
X169503736Y-70750726D02*
G01*
X169793796Y-70768271D01*
X169808659Y-70770076D01*
X170090798Y-70821780D01*
X170105335Y-70825363D01*
X170379172Y-70910695D01*
X170393163Y-70916000D01*
X170654743Y-71033727D01*
X170667989Y-71040680D01*
X170913465Y-71189075D01*
X170925776Y-71197573D01*
X171151573Y-71374473D01*
X171162781Y-71384403D01*
X171365596Y-71587218D01*
X171375526Y-71598426D01*
X171495481Y-71751538D01*
X171552422Y-71824217D01*
X171560928Y-71836540D01*
X171709316Y-72082004D01*
X171716275Y-72095263D01*
X171833997Y-72356831D01*
X171839306Y-72370832D01*
X171924635Y-72644663D01*
X171928219Y-72659201D01*
X171979923Y-72941340D01*
X171981728Y-72956205D01*
X171999274Y-73246263D01*
X171999500Y-73253750D01*
X171999500Y-123746249D01*
X171999274Y-123753736D01*
X171981728Y-124043794D01*
X171979923Y-124058659D01*
X171928219Y-124340798D01*
X171924635Y-124355336D01*
X171839306Y-124629167D01*
X171833997Y-124643168D01*
X171716275Y-124904736D01*
X171709316Y-124917995D01*
X171560928Y-125163459D01*
X171552422Y-125175782D01*
X171375526Y-125401573D01*
X171365596Y-125412781D01*
X171162781Y-125615596D01*
X171151573Y-125625526D01*
X170925782Y-125802422D01*
X170913459Y-125810928D01*
X170667995Y-125959316D01*
X170654736Y-125966275D01*
X170393168Y-126083997D01*
X170379167Y-126089306D01*
X170105336Y-126174635D01*
X170090798Y-126178219D01*
X169808659Y-126229923D01*
X169793794Y-126231728D01*
X169503736Y-126249274D01*
X169496249Y-126249500D01*
X110503751Y-126249500D01*
X110496264Y-126249274D01*
X110206205Y-126231728D01*
X110191340Y-126229923D01*
X109909201Y-126178219D01*
X109894663Y-126174635D01*
X109620832Y-126089306D01*
X109606831Y-126083997D01*
X109345263Y-125966275D01*
X109332004Y-125959316D01*
X109086540Y-125810928D01*
X109074217Y-125802422D01*
X108848426Y-125625526D01*
X108837218Y-125615596D01*
X108634403Y-125412781D01*
X108624473Y-125401573D01*
X108506115Y-125250500D01*
X108447573Y-125175776D01*
X108439075Y-125163465D01*
X108290680Y-124917989D01*
X108283727Y-124904743D01*
X108166000Y-124643163D01*
X108160693Y-124629167D01*
X108142832Y-124571850D01*
X108075363Y-124355335D01*
X108071780Y-124340798D01*
X108020076Y-124058659D01*
X108018271Y-124043794D01*
X108000726Y-123753736D01*
X108000500Y-123746249D01*
X108000500Y-123118872D01*
X108999499Y-123118872D01*
X108999499Y-123381127D01*
X109020435Y-123540140D01*
X109033729Y-123641116D01*
X109101601Y-123894420D01*
X109101604Y-123894427D01*
X109201954Y-124136693D01*
X109201959Y-124136704D01*
X109333071Y-124363795D01*
X109333082Y-124363811D01*
X109492715Y-124571850D01*
X109492721Y-124571857D01*
X109678142Y-124757278D01*
X109678148Y-124757283D01*
X109886197Y-124916924D01*
X109886204Y-124916928D01*
X110113295Y-125048040D01*
X110113300Y-125048042D01*
X110113303Y-125048044D01*
X110355580Y-125148399D01*
X110608884Y-125216271D01*
X110868880Y-125250501D01*
X110868887Y-125250501D01*
X111131113Y-125250501D01*
X111131120Y-125250501D01*
X111391116Y-125216271D01*
X111644420Y-125148399D01*
X111886697Y-125048044D01*
X112113803Y-124916924D01*
X112321852Y-124757283D01*
X112507283Y-124571852D01*
X112666924Y-124363803D01*
X112798044Y-124136697D01*
X112898399Y-123894420D01*
X112966271Y-123641116D01*
X113000501Y-123381120D01*
X113000501Y-123118880D01*
X113000500Y-123118872D01*
X166999499Y-123118872D01*
X166999499Y-123381127D01*
X167020435Y-123540140D01*
X167033729Y-123641116D01*
X167101601Y-123894420D01*
X167101604Y-123894427D01*
X167201954Y-124136693D01*
X167201959Y-124136704D01*
X167333071Y-124363795D01*
X167333082Y-124363811D01*
X167492715Y-124571850D01*
X167492721Y-124571857D01*
X167678142Y-124757278D01*
X167678148Y-124757283D01*
X167886197Y-124916924D01*
X167886204Y-124916928D01*
X168113295Y-125048040D01*
X168113300Y-125048042D01*
X168113303Y-125048044D01*
X168355580Y-125148399D01*
X168608884Y-125216271D01*
X168868880Y-125250501D01*
X168868887Y-125250501D01*
X169131113Y-125250501D01*
X169131120Y-125250501D01*
X169391116Y-125216271D01*
X169644420Y-125148399D01*
X169886697Y-125048044D01*
X170113803Y-124916924D01*
X170321852Y-124757283D01*
X170507283Y-124571852D01*
X170666924Y-124363803D01*
X170798044Y-124136697D01*
X170898399Y-123894420D01*
X170966271Y-123641116D01*
X171000501Y-123381120D01*
X171000501Y-123118880D01*
X170966271Y-122858884D01*
X170898399Y-122605580D01*
X170798044Y-122363303D01*
X170798042Y-122363300D01*
X170798040Y-122363295D01*
X170666928Y-122136204D01*
X170666924Y-122136197D01*
X170507283Y-121928148D01*
X170507278Y-121928142D01*
X170321857Y-121742721D01*
X170321850Y-121742715D01*
X170113811Y-121583082D01*
X170113809Y-121583080D01*
X170113803Y-121583076D01*
X170113798Y-121583073D01*
X170113795Y-121583071D01*
X169886704Y-121451959D01*
X169886693Y-121451954D01*
X169644427Y-121351604D01*
X169644428Y-121351604D01*
X169644420Y-121351601D01*
X169391116Y-121283729D01*
X169347662Y-121278008D01*
X169131127Y-121249499D01*
X169131120Y-121249499D01*
X168868880Y-121249499D01*
X168868872Y-121249499D01*
X168621402Y-121282080D01*
X168608884Y-121283729D01*
X168524449Y-121306353D01*
X168355586Y-121351599D01*
X168355572Y-121351604D01*
X168113306Y-121451954D01*
X168113295Y-121451959D01*
X167886204Y-121583071D01*
X167886188Y-121583082D01*
X167678149Y-121742715D01*
X167678142Y-121742721D01*
X167492721Y-121928142D01*
X167492715Y-121928149D01*
X167333082Y-122136188D01*
X167333071Y-122136204D01*
X167201959Y-122363295D01*
X167201954Y-122363306D01*
X167101604Y-122605572D01*
X167101599Y-122605586D01*
X167033730Y-122858881D01*
X167033728Y-122858892D01*
X166999499Y-123118872D01*
X113000500Y-123118872D01*
X112966271Y-122858884D01*
X112898399Y-122605580D01*
X112798044Y-122363303D01*
X112798042Y-122363300D01*
X112798040Y-122363295D01*
X112666928Y-122136204D01*
X112666924Y-122136197D01*
X112507283Y-121928148D01*
X112507278Y-121928142D01*
X112321857Y-121742721D01*
X112321850Y-121742715D01*
X112113811Y-121583082D01*
X112113809Y-121583080D01*
X112113803Y-121583076D01*
X112113798Y-121583073D01*
X112113795Y-121583071D01*
X111886704Y-121451959D01*
X111886693Y-121451954D01*
X111644427Y-121351604D01*
X111644428Y-121351604D01*
X111644420Y-121351601D01*
X111391116Y-121283729D01*
X111347662Y-121278008D01*
X111131127Y-121249499D01*
X111131120Y-121249499D01*
X110868880Y-121249499D01*
X110868872Y-121249499D01*
X110621402Y-121282080D01*
X110608884Y-121283729D01*
X110524449Y-121306353D01*
X110355586Y-121351599D01*
X110355572Y-121351604D01*
X110113306Y-121451954D01*
X110113295Y-121451959D01*
X109886204Y-121583071D01*
X109886188Y-121583082D01*
X109678149Y-121742715D01*
X109678142Y-121742721D01*
X109492721Y-121928142D01*
X109492715Y-121928149D01*
X109333082Y-122136188D01*
X109333071Y-122136204D01*
X109201959Y-122363295D01*
X109201954Y-122363306D01*
X109101604Y-122605572D01*
X109101599Y-122605586D01*
X109033730Y-122858881D01*
X109033728Y-122858892D01*
X108999499Y-123118872D01*
X108000500Y-123118872D01*
X108000500Y-119574628D01*
X114250000Y-119574628D01*
X114264503Y-119647540D01*
X114264505Y-119647544D01*
X114319760Y-119730239D01*
X114402455Y-119785494D01*
X114402459Y-119785496D01*
X114475371Y-119799999D01*
X114475374Y-119800000D01*
X115975000Y-119800000D01*
X116225000Y-119800000D01*
X117724626Y-119800000D01*
X117724628Y-119799999D01*
X117797540Y-119785496D01*
X117797544Y-119785494D01*
X117880239Y-119730239D01*
X117935494Y-119647544D01*
X117935496Y-119647540D01*
X117949999Y-119574628D01*
X117950000Y-119574626D01*
X117950000Y-118525000D01*
X116225000Y-118525000D01*
X116225000Y-119800000D01*
X115975000Y-119800000D01*
X115975000Y-118525000D01*
X114250000Y-118525000D01*
X114250000Y-119574628D01*
X108000500Y-119574628D01*
X108000500Y-117225371D01*
X114250000Y-117225371D01*
X114250000Y-118275000D01*
X115975000Y-118275000D01*
X115975000Y-117000000D01*
X114475373Y-117000000D01*
X114402459Y-117014503D01*
X114402455Y-117014505D01*
X114319760Y-117069760D01*
X114264505Y-117152455D01*
X114264503Y-117152459D01*
X114250000Y-117225371D01*
X108000500Y-117225371D01*
X108000500Y-112727525D01*
X112949500Y-112727525D01*
X112949500Y-112872475D01*
X112987016Y-113012485D01*
X112987017Y-113012488D01*
X113059488Y-113138011D01*
X113059490Y-113138013D01*
X113059491Y-113138015D01*
X113161985Y-113240509D01*
X113161986Y-113240510D01*
X113161988Y-113240511D01*
X113287511Y-113312982D01*
X113287512Y-113312982D01*
X113287515Y-113312984D01*
X113427525Y-113350500D01*
X113427528Y-113350500D01*
X113572472Y-113350500D01*
X113572475Y-113350500D01*
X113712485Y-113312984D01*
X113838015Y-113240509D01*
X113940509Y-113138015D01*
X113940509Y-113138014D01*
X113941705Y-113136819D01*
X113968632Y-113122115D01*
X113994451Y-113105523D01*
X114000651Y-113104631D01*
X114003028Y-113103334D01*
X114029386Y-113100500D01*
X114194920Y-113100500D01*
X114261959Y-113120185D01*
X114307714Y-113172989D01*
X114317658Y-113242147D01*
X114316537Y-113248691D01*
X114299500Y-113334341D01*
X114299500Y-113865658D01*
X114316537Y-113951309D01*
X114314659Y-113972292D01*
X114317658Y-113993147D01*
X114311608Y-114006394D01*
X114310310Y-114020901D01*
X114297384Y-114037539D01*
X114288633Y-114056703D01*
X114276381Y-114064576D01*
X114267447Y-114076078D01*
X114247578Y-114083087D01*
X114229855Y-114094477D01*
X114205271Y-114098011D01*
X114201557Y-114099322D01*
X114194920Y-114099500D01*
X114029386Y-114099500D01*
X113962347Y-114079815D01*
X113941705Y-114063181D01*
X113838017Y-113959493D01*
X113838011Y-113959488D01*
X113712488Y-113887017D01*
X113712489Y-113887017D01*
X113701006Y-113883940D01*
X113572475Y-113849500D01*
X113427525Y-113849500D01*
X113298993Y-113883940D01*
X113287511Y-113887017D01*
X113161988Y-113959488D01*
X113161982Y-113959493D01*
X113059493Y-114061982D01*
X113059488Y-114061988D01*
X112987017Y-114187511D01*
X112987016Y-114187515D01*
X112949500Y-114327525D01*
X112949500Y-114472475D01*
X112971503Y-114554589D01*
X112987017Y-114612488D01*
X113059488Y-114738011D01*
X113059490Y-114738013D01*
X113059491Y-114738015D01*
X113161985Y-114840509D01*
X113161986Y-114840510D01*
X113161988Y-114840511D01*
X113287511Y-114912982D01*
X113287512Y-114912982D01*
X113287515Y-114912984D01*
X113427525Y-114950500D01*
X113427528Y-114950500D01*
X113572472Y-114950500D01*
X113572475Y-114950500D01*
X113712485Y-114912984D01*
X113838015Y-114840509D01*
X113940509Y-114738015D01*
X113940509Y-114738014D01*
X113941705Y-114736819D01*
X113968632Y-114722115D01*
X113994451Y-114705523D01*
X114000651Y-114704631D01*
X114003028Y-114703334D01*
X114029386Y-114700500D01*
X114194920Y-114700500D01*
X114261959Y-114720185D01*
X114307714Y-114772989D01*
X114317658Y-114842147D01*
X114316537Y-114848691D01*
X114299500Y-114934341D01*
X114299500Y-115465658D01*
X114314614Y-115541641D01*
X114314614Y-115541642D01*
X114347329Y-115590602D01*
X114372190Y-115627810D01*
X114423843Y-115662323D01*
X114458357Y-115685385D01*
X114534341Y-115700499D01*
X114534344Y-115700500D01*
X114534346Y-115700500D01*
X116465656Y-115700500D01*
X116465657Y-115700499D01*
X116491211Y-115695416D01*
X116541639Y-115685386D01*
X116541640Y-115685385D01*
X116541642Y-115685385D01*
X116541642Y-115685384D01*
X116552923Y-115680712D01*
X116554081Y-115683509D01*
X116602611Y-115668304D01*
X116669995Y-115686776D01*
X116692529Y-115704603D01*
X117776245Y-116788319D01*
X117809730Y-116849642D01*
X117804746Y-116919334D01*
X117762874Y-116975267D01*
X117697410Y-116999684D01*
X117688564Y-117000000D01*
X116225000Y-117000000D01*
X116225000Y-118275000D01*
X117950000Y-118275000D01*
X117950000Y-117261436D01*
X117969685Y-117194397D01*
X118022489Y-117148642D01*
X118091647Y-117138698D01*
X118155203Y-117167723D01*
X118161681Y-117173755D01*
X118572437Y-117584511D01*
X118628386Y-117640460D01*
X118628388Y-117640461D01*
X118628392Y-117640464D01*
X118696901Y-117680017D01*
X118696908Y-117680021D01*
X118773335Y-117700500D01*
X118773337Y-117700500D01*
X131639560Y-117700500D01*
X131639562Y-117700500D01*
X131715989Y-117680021D01*
X131784511Y-117640460D01*
X131840460Y-117584511D01*
X133696912Y-115728059D01*
X140000000Y-115728059D01*
X140000000Y-116071940D01*
X140033705Y-116414165D01*
X140033708Y-116414182D01*
X140100791Y-116751437D01*
X140100792Y-116751443D01*
X140200623Y-117080540D01*
X140332219Y-117398241D01*
X140332226Y-117398255D01*
X140494322Y-117701518D01*
X140494333Y-117701536D01*
X140685377Y-117987453D01*
X140685387Y-117987467D01*
X140903543Y-118253290D01*
X140936738Y-118286484D01*
X141891331Y-117331890D01*
X142068107Y-117508666D01*
X141113514Y-118463260D01*
X141146709Y-118496456D01*
X141412532Y-118714612D01*
X141412546Y-118714622D01*
X141698463Y-118905666D01*
X141698481Y-118905677D01*
X142001744Y-119067773D01*
X142001758Y-119067780D01*
X142319459Y-119199376D01*
X142648556Y-119299207D01*
X142648562Y-119299208D01*
X142985817Y-119366291D01*
X142985834Y-119366294D01*
X143328059Y-119400000D01*
X143671941Y-119400000D01*
X144014165Y-119366294D01*
X144014182Y-119366291D01*
X144351437Y-119299208D01*
X144351443Y-119299207D01*
X144680540Y-119199376D01*
X144998241Y-119067780D01*
X144998255Y-119067773D01*
X145301518Y-118905677D01*
X145301536Y-118905666D01*
X145587453Y-118714622D01*
X145587467Y-118714612D01*
X145853295Y-118496452D01*
X145886485Y-118463261D01*
X145886485Y-118463260D01*
X144931891Y-117508667D01*
X145108667Y-117331891D01*
X146063260Y-118286485D01*
X146063262Y-118286485D01*
X146096452Y-118253295D01*
X146314612Y-117987467D01*
X146314622Y-117987453D01*
X146505666Y-117701536D01*
X146505677Y-117701518D01*
X146667773Y-117398255D01*
X146667780Y-117398241D01*
X146799376Y-117080540D01*
X146899207Y-116751443D01*
X146899208Y-116751437D01*
X146966291Y-116414182D01*
X146966294Y-116414165D01*
X147000000Y-116071940D01*
X147000000Y-115728059D01*
X164150000Y-115728059D01*
X164150000Y-116071940D01*
X164183705Y-116414165D01*
X164183708Y-116414182D01*
X164250791Y-116751437D01*
X164250792Y-116751443D01*
X164350623Y-117080540D01*
X164482219Y-117398241D01*
X164482226Y-117398255D01*
X164644322Y-117701518D01*
X164644333Y-117701536D01*
X164835377Y-117987453D01*
X164835387Y-117987467D01*
X165053543Y-118253290D01*
X165086738Y-118286484D01*
X166041331Y-117331890D01*
X166218107Y-117508666D01*
X165263514Y-118463260D01*
X165296709Y-118496456D01*
X165562532Y-118714612D01*
X165562546Y-118714622D01*
X165848463Y-118905666D01*
X165848481Y-118905677D01*
X166151744Y-119067773D01*
X166151758Y-119067780D01*
X166469459Y-119199376D01*
X166798556Y-119299207D01*
X166798562Y-119299208D01*
X167135817Y-119366291D01*
X167135834Y-119366294D01*
X167478059Y-119400000D01*
X167821941Y-119400000D01*
X168164165Y-119366294D01*
X168164182Y-119366291D01*
X168501437Y-119299208D01*
X168501443Y-119299207D01*
X168830540Y-119199376D01*
X169148241Y-119067780D01*
X169148255Y-119067773D01*
X169451518Y-118905677D01*
X169451536Y-118905666D01*
X169737453Y-118714622D01*
X169737467Y-118714612D01*
X170003295Y-118496452D01*
X170036485Y-118463261D01*
X170036485Y-118463260D01*
X169081891Y-117508667D01*
X169258667Y-117331892D01*
X170213260Y-118286485D01*
X170213262Y-118286485D01*
X170246452Y-118253295D01*
X170464612Y-117987467D01*
X170464622Y-117987453D01*
X170655666Y-117701536D01*
X170655677Y-117701518D01*
X170817773Y-117398255D01*
X170817780Y-117398241D01*
X170949376Y-117080540D01*
X171049207Y-116751443D01*
X171049208Y-116751437D01*
X171116291Y-116414182D01*
X171116294Y-116414165D01*
X171150000Y-116071940D01*
X171150000Y-115728059D01*
X171116294Y-115385834D01*
X171116291Y-115385817D01*
X171049208Y-115048562D01*
X171049207Y-115048556D01*
X170949376Y-114719459D01*
X170817780Y-114401758D01*
X170817773Y-114401744D01*
X170655677Y-114098481D01*
X170655666Y-114098463D01*
X170464622Y-113812546D01*
X170464612Y-113812532D01*
X170246456Y-113546709D01*
X170213261Y-113513514D01*
X170213260Y-113513514D01*
X169258666Y-114468107D01*
X169081890Y-114291331D01*
X170036485Y-113336738D01*
X170003290Y-113303543D01*
X169737467Y-113085387D01*
X169737453Y-113085377D01*
X169451536Y-112894333D01*
X169451518Y-112894322D01*
X169148255Y-112732226D01*
X169148241Y-112732219D01*
X168830540Y-112600623D01*
X168501443Y-112500792D01*
X168501437Y-112500791D01*
X168164182Y-112433708D01*
X168164165Y-112433705D01*
X167821941Y-112400000D01*
X167478059Y-112400000D01*
X167135834Y-112433705D01*
X167135817Y-112433708D01*
X166798562Y-112500791D01*
X166798556Y-112500792D01*
X166469459Y-112600623D01*
X166151758Y-112732219D01*
X166151744Y-112732226D01*
X165848481Y-112894322D01*
X165848463Y-112894333D01*
X165562546Y-113085377D01*
X165562532Y-113085387D01*
X165296703Y-113303548D01*
X165263514Y-113336737D01*
X166218108Y-114291332D01*
X166041332Y-114468108D01*
X165086738Y-113513514D01*
X165086737Y-113513514D01*
X165053548Y-113546703D01*
X164835387Y-113812532D01*
X164835377Y-113812546D01*
X164644333Y-114098463D01*
X164644322Y-114098481D01*
X164482226Y-114401744D01*
X164482219Y-114401758D01*
X164350623Y-114719459D01*
X164250792Y-115048556D01*
X164250791Y-115048562D01*
X164183708Y-115385817D01*
X164183705Y-115385834D01*
X164150000Y-115728059D01*
X147000000Y-115728059D01*
X146966294Y-115385834D01*
X146966291Y-115385817D01*
X146899208Y-115048562D01*
X146899207Y-115048556D01*
X146799376Y-114719459D01*
X146667780Y-114401758D01*
X146667773Y-114401744D01*
X146505677Y-114098481D01*
X146505666Y-114098463D01*
X146314622Y-113812546D01*
X146314612Y-113812532D01*
X146096456Y-113546709D01*
X146063261Y-113513514D01*
X146063260Y-113513514D01*
X145108666Y-114468107D01*
X144931890Y-114291331D01*
X145886485Y-113336738D01*
X145853290Y-113303543D01*
X145587467Y-113085387D01*
X145587453Y-113085377D01*
X145301536Y-112894333D01*
X145301518Y-112894322D01*
X144998255Y-112732226D01*
X144998241Y-112732219D01*
X144680540Y-112600623D01*
X144351443Y-112500792D01*
X144351437Y-112500791D01*
X144014182Y-112433708D01*
X144014165Y-112433705D01*
X143671941Y-112400000D01*
X143328059Y-112400000D01*
X142985834Y-112433705D01*
X142985817Y-112433708D01*
X142648562Y-112500791D01*
X142648556Y-112500792D01*
X142319459Y-112600623D01*
X142001758Y-112732219D01*
X142001744Y-112732226D01*
X141698481Y-112894322D01*
X141698463Y-112894333D01*
X141412546Y-113085377D01*
X141412532Y-113085387D01*
X141146703Y-113303548D01*
X141113514Y-113336737D01*
X142068108Y-114291332D01*
X141891332Y-114468108D01*
X140936738Y-113513514D01*
X140936737Y-113513514D01*
X140903548Y-113546703D01*
X140685387Y-113812532D01*
X140685377Y-113812546D01*
X140494333Y-114098463D01*
X140494322Y-114098481D01*
X140332226Y-114401744D01*
X140332219Y-114401758D01*
X140200623Y-114719459D01*
X140100792Y-115048556D01*
X140100791Y-115048562D01*
X140033708Y-115385817D01*
X140033705Y-115385834D01*
X140000000Y-115728059D01*
X133696912Y-115728059D01*
X157896912Y-91528059D01*
X164150000Y-91528059D01*
X164150000Y-91871940D01*
X164183705Y-92214165D01*
X164183708Y-92214182D01*
X164250791Y-92551437D01*
X164250792Y-92551443D01*
X164350623Y-92880540D01*
X164482219Y-93198241D01*
X164482226Y-93198255D01*
X164644322Y-93501518D01*
X164644333Y-93501536D01*
X164835377Y-93787453D01*
X164835387Y-93787467D01*
X165053543Y-94053290D01*
X165086738Y-94086484D01*
X166041331Y-93131890D01*
X166218107Y-93308666D01*
X165263514Y-94263260D01*
X165296709Y-94296456D01*
X165562532Y-94514612D01*
X165562546Y-94514622D01*
X165848463Y-94705666D01*
X165848481Y-94705677D01*
X166151744Y-94867773D01*
X166151758Y-94867780D01*
X166469459Y-94999376D01*
X166798556Y-95099207D01*
X166798562Y-95099208D01*
X167135817Y-95166291D01*
X167135834Y-95166294D01*
X167478059Y-95200000D01*
X167821941Y-95200000D01*
X168164165Y-95166294D01*
X168164182Y-95166291D01*
X168501437Y-95099208D01*
X168501443Y-95099207D01*
X168830540Y-94999376D01*
X169148241Y-94867780D01*
X169148255Y-94867773D01*
X169451518Y-94705677D01*
X169451536Y-94705666D01*
X169737453Y-94514622D01*
X169737467Y-94514612D01*
X170003295Y-94296452D01*
X170036485Y-94263261D01*
X170036485Y-94263260D01*
X169081891Y-93308667D01*
X169258667Y-93131892D01*
X170213260Y-94086485D01*
X170213262Y-94086485D01*
X170246452Y-94053295D01*
X170464612Y-93787467D01*
X170464622Y-93787453D01*
X170655666Y-93501536D01*
X170655677Y-93501518D01*
X170817773Y-93198255D01*
X170817780Y-93198241D01*
X170949376Y-92880540D01*
X171049207Y-92551443D01*
X171049208Y-92551437D01*
X171116291Y-92214182D01*
X171116294Y-92214165D01*
X171150000Y-91871940D01*
X171150000Y-91528059D01*
X171116294Y-91185834D01*
X171116291Y-91185817D01*
X171049208Y-90848562D01*
X171049207Y-90848556D01*
X170949376Y-90519459D01*
X170817780Y-90201758D01*
X170817773Y-90201744D01*
X170655677Y-89898481D01*
X170655666Y-89898463D01*
X170464622Y-89612546D01*
X170464612Y-89612532D01*
X170246456Y-89346709D01*
X170213261Y-89313514D01*
X170213260Y-89313514D01*
X169258666Y-90268107D01*
X169081890Y-90091331D01*
X170036485Y-89136738D01*
X170003290Y-89103543D01*
X169737467Y-88885387D01*
X169737453Y-88885377D01*
X169451536Y-88694333D01*
X169451518Y-88694322D01*
X169148255Y-88532226D01*
X169148241Y-88532219D01*
X168830540Y-88400623D01*
X168501443Y-88300792D01*
X168501437Y-88300791D01*
X168164182Y-88233708D01*
X168164165Y-88233705D01*
X167821941Y-88200000D01*
X167478059Y-88200000D01*
X167135834Y-88233705D01*
X167135817Y-88233708D01*
X166798562Y-88300791D01*
X166798556Y-88300792D01*
X166469459Y-88400623D01*
X166151758Y-88532219D01*
X166151744Y-88532226D01*
X165848481Y-88694322D01*
X165848463Y-88694333D01*
X165562546Y-88885377D01*
X165562532Y-88885387D01*
X165296703Y-89103548D01*
X165263514Y-89136737D01*
X166218108Y-90091332D01*
X166041332Y-90268108D01*
X165086738Y-89313514D01*
X165086737Y-89313514D01*
X165053548Y-89346703D01*
X164835387Y-89612532D01*
X164835377Y-89612546D01*
X164644333Y-89898463D01*
X164644322Y-89898481D01*
X164482226Y-90201744D01*
X164482219Y-90201758D01*
X164350623Y-90519459D01*
X164250792Y-90848556D01*
X164250791Y-90848562D01*
X164183708Y-91185817D01*
X164183705Y-91185834D01*
X164150000Y-91528059D01*
X157896912Y-91528059D01*
X163140460Y-86284511D01*
X163180022Y-86215988D01*
X163200500Y-86139562D01*
X163200500Y-86060438D01*
X163200500Y-76852000D01*
X163220185Y-76784961D01*
X163272989Y-76739206D01*
X163324500Y-76728000D01*
X164035000Y-76728000D01*
X164035000Y-76112144D01*
X164094174Y-76128000D01*
X164225826Y-76128000D01*
X164285000Y-76112144D01*
X164285000Y-76728000D01*
X165034626Y-76728000D01*
X165034628Y-76727999D01*
X165107540Y-76713496D01*
X165107544Y-76713494D01*
X165190239Y-76658239D01*
X165245494Y-76575544D01*
X165245496Y-76575540D01*
X165259999Y-76502628D01*
X165260000Y-76502626D01*
X165260000Y-75753000D01*
X164644144Y-75753000D01*
X164660000Y-75693826D01*
X164660000Y-75562174D01*
X164644144Y-75503000D01*
X165260000Y-75503000D01*
X165260000Y-74753373D01*
X165259999Y-74753371D01*
X165245496Y-74680459D01*
X165245494Y-74680455D01*
X165190239Y-74597760D01*
X165107544Y-74542505D01*
X165107540Y-74542503D01*
X165034627Y-74528000D01*
X164285000Y-74528000D01*
X164285000Y-75143855D01*
X164225826Y-75128000D01*
X164094174Y-75128000D01*
X164035000Y-75143855D01*
X164035000Y-74528000D01*
X163444333Y-74528000D01*
X163377294Y-74508315D01*
X163331539Y-74455511D01*
X163321595Y-74386353D01*
X163350620Y-74322797D01*
X163356642Y-74316328D01*
X163597897Y-74075072D01*
X163659216Y-74041590D01*
X163728908Y-74046574D01*
X163733007Y-74048186D01*
X163853580Y-74098130D01*
X164056530Y-74138499D01*
X164056534Y-74138500D01*
X164056535Y-74138500D01*
X164263466Y-74138500D01*
X164263467Y-74138499D01*
X164362141Y-74118872D01*
X166999499Y-74118872D01*
X166999499Y-74381127D01*
X167028008Y-74597662D01*
X167033729Y-74641116D01*
X167101601Y-74894420D01*
X167101604Y-74894427D01*
X167201954Y-75136693D01*
X167201959Y-75136704D01*
X167333071Y-75363795D01*
X167333082Y-75363811D01*
X167492715Y-75571850D01*
X167492721Y-75571857D01*
X167678142Y-75757278D01*
X167678148Y-75757283D01*
X167886197Y-75916924D01*
X167886204Y-75916928D01*
X168113295Y-76048040D01*
X168113300Y-76048042D01*
X168113303Y-76048044D01*
X168355580Y-76148399D01*
X168608884Y-76216271D01*
X168868880Y-76250501D01*
X168868887Y-76250501D01*
X169131113Y-76250501D01*
X169131120Y-76250501D01*
X169391116Y-76216271D01*
X169644420Y-76148399D01*
X169886697Y-76048044D01*
X170113803Y-75916924D01*
X170321852Y-75757283D01*
X170507283Y-75571852D01*
X170666924Y-75363803D01*
X170798044Y-75136697D01*
X170898399Y-74894420D01*
X170966271Y-74641116D01*
X171000501Y-74381120D01*
X171000501Y-74118880D01*
X170966271Y-73858884D01*
X170898399Y-73605580D01*
X170798044Y-73363303D01*
X170798042Y-73363300D01*
X170798040Y-73363295D01*
X170666928Y-73136204D01*
X170666924Y-73136197D01*
X170507283Y-72928148D01*
X170507278Y-72928142D01*
X170321857Y-72742721D01*
X170321850Y-72742715D01*
X170113811Y-72583082D01*
X170113809Y-72583080D01*
X170113803Y-72583076D01*
X170113798Y-72583073D01*
X170113795Y-72583071D01*
X169886704Y-72451959D01*
X169886693Y-72451954D01*
X169644427Y-72351604D01*
X169644428Y-72351604D01*
X169644420Y-72351601D01*
X169391116Y-72283729D01*
X169347662Y-72278008D01*
X169131127Y-72249499D01*
X169131120Y-72249499D01*
X168868880Y-72249499D01*
X168868872Y-72249499D01*
X168621402Y-72282080D01*
X168608884Y-72283729D01*
X168524449Y-72306353D01*
X168355586Y-72351599D01*
X168355572Y-72351604D01*
X168113306Y-72451954D01*
X168113295Y-72451959D01*
X167886204Y-72583071D01*
X167886188Y-72583082D01*
X167678149Y-72742715D01*
X167678142Y-72742721D01*
X167492721Y-72928142D01*
X167492715Y-72928149D01*
X167333082Y-73136188D01*
X167333071Y-73136204D01*
X167201959Y-73363295D01*
X167201954Y-73363306D01*
X167101604Y-73605572D01*
X167101599Y-73605586D01*
X167033730Y-73858881D01*
X167033728Y-73858892D01*
X166999499Y-74118872D01*
X164362141Y-74118872D01*
X164466420Y-74098130D01*
X164657598Y-74018941D01*
X164662618Y-74015587D01*
X164668409Y-74011718D01*
X164668409Y-74011717D01*
X164829655Y-73903977D01*
X164975977Y-73757655D01*
X165090941Y-73585598D01*
X165170130Y-73394420D01*
X165210500Y-73191465D01*
X165210500Y-72984535D01*
X165170130Y-72781580D01*
X165090941Y-72590402D01*
X164975977Y-72418345D01*
X164975975Y-72418342D01*
X164829657Y-72272024D01*
X164741875Y-72213371D01*
X164657598Y-72157059D01*
X164617522Y-72140459D01*
X164466420Y-72077870D01*
X164466412Y-72077868D01*
X164263469Y-72037500D01*
X164263465Y-72037500D01*
X164056535Y-72037500D01*
X164056530Y-72037500D01*
X163853587Y-72077868D01*
X163853579Y-72077870D01*
X163662403Y-72157058D01*
X163490342Y-72272024D01*
X163344024Y-72418342D01*
X163229058Y-72590403D01*
X163149870Y-72781579D01*
X163149868Y-72781587D01*
X163109500Y-72984530D01*
X163109500Y-73191469D01*
X163149868Y-73394412D01*
X163149871Y-73394424D01*
X163199803Y-73514971D01*
X163207272Y-73584440D01*
X163175997Y-73646919D01*
X163172923Y-73650104D01*
X162715489Y-74107540D01*
X162659541Y-74163487D01*
X162659535Y-74163495D01*
X162619982Y-74232004D01*
X162619979Y-74232009D01*
X162599500Y-74308439D01*
X162599500Y-74822505D01*
X162579815Y-74889544D01*
X162527011Y-74935299D01*
X162457853Y-74945243D01*
X162394297Y-74916218D01*
X162387819Y-74910186D01*
X162289657Y-74812024D01*
X162153671Y-74721162D01*
X162117598Y-74697059D01*
X162077522Y-74680459D01*
X161926420Y-74617870D01*
X161926412Y-74617868D01*
X161723469Y-74577500D01*
X161723465Y-74577500D01*
X161516535Y-74577500D01*
X161516530Y-74577500D01*
X161313587Y-74617868D01*
X161313579Y-74617870D01*
X161122403Y-74697058D01*
X160950342Y-74812024D01*
X160804024Y-74958342D01*
X160689058Y-75130403D01*
X160609870Y-75321579D01*
X160609868Y-75321587D01*
X160569500Y-75524530D01*
X160569500Y-75731469D01*
X160609868Y-75934412D01*
X160609870Y-75934420D01*
X160675939Y-76093925D01*
X160689059Y-76125598D01*
X160704294Y-76148399D01*
X160804024Y-76297657D01*
X160950342Y-76443975D01*
X160950345Y-76443977D01*
X161122402Y-76558941D01*
X161313580Y-76638130D01*
X161494711Y-76674159D01*
X161516530Y-76678499D01*
X161516534Y-76678500D01*
X161516535Y-76678500D01*
X161723466Y-76678500D01*
X161723467Y-76678499D01*
X161926420Y-76638130D01*
X162117598Y-76558941D01*
X162289655Y-76443977D01*
X162308983Y-76424649D01*
X162387819Y-76345814D01*
X162449142Y-76312329D01*
X162518834Y-76317313D01*
X162574767Y-76359185D01*
X162599184Y-76424649D01*
X162599500Y-76433495D01*
X162599500Y-85924167D01*
X162579815Y-85991206D01*
X162563181Y-86011848D01*
X131511848Y-117063181D01*
X131450525Y-117096666D01*
X131424167Y-117099500D01*
X120231941Y-117099500D01*
X120164902Y-117079815D01*
X120119147Y-117027011D01*
X120109203Y-116957853D01*
X120138228Y-116894297D01*
X120144260Y-116887819D01*
X120221786Y-116810292D01*
X120221789Y-116810289D01*
X120309394Y-116679179D01*
X120369737Y-116533497D01*
X120400500Y-116378842D01*
X120400500Y-116221158D01*
X120400500Y-116221155D01*
X120400499Y-116221153D01*
X120369738Y-116066510D01*
X120369737Y-116066503D01*
X120369735Y-116066498D01*
X120309397Y-115920827D01*
X120309390Y-115920814D01*
X120221789Y-115789711D01*
X120221786Y-115789707D01*
X120110292Y-115678213D01*
X120110288Y-115678210D01*
X119979185Y-115590609D01*
X119979172Y-115590602D01*
X119833501Y-115530264D01*
X119833489Y-115530261D01*
X119678845Y-115499500D01*
X119678842Y-115499500D01*
X119521158Y-115499500D01*
X119521155Y-115499500D01*
X119366510Y-115530261D01*
X119366498Y-115530264D01*
X119220827Y-115590602D01*
X119220814Y-115590609D01*
X119089711Y-115678210D01*
X119089707Y-115678213D01*
X118978213Y-115789707D01*
X118978210Y-115789711D01*
X118890609Y-115920814D01*
X118890602Y-115920827D01*
X118830264Y-116066498D01*
X118830261Y-116066510D01*
X118799500Y-116221153D01*
X118799500Y-116378846D01*
X118830261Y-116533489D01*
X118830264Y-116533501D01*
X118890602Y-116679172D01*
X118890609Y-116679185D01*
X118943370Y-116758147D01*
X118964248Y-116824825D01*
X118945763Y-116892205D01*
X118893784Y-116938895D01*
X118824814Y-116950071D01*
X118760751Y-116922185D01*
X118752587Y-116914719D01*
X116797409Y-114959541D01*
X116797401Y-114959535D01*
X116753770Y-114934345D01*
X116753770Y-114934346D01*
X116741712Y-114927384D01*
X116725938Y-114910841D01*
X116707164Y-114897807D01*
X116696707Y-114880184D01*
X116693497Y-114876818D01*
X116689153Y-114867454D01*
X116680869Y-114847457D01*
X116673397Y-114777988D01*
X116680870Y-114752541D01*
X116685386Y-114741639D01*
X116700499Y-114665658D01*
X116700500Y-114665656D01*
X116700500Y-114134343D01*
X116700499Y-114134341D01*
X116683463Y-114048691D01*
X116685340Y-114027707D01*
X116682342Y-114006853D01*
X116688391Y-113993605D01*
X116689690Y-113979099D01*
X116702615Y-113962460D01*
X116711367Y-113943297D01*
X116723618Y-113935423D01*
X116732553Y-113923922D01*
X116752421Y-113916912D01*
X116770145Y-113905523D01*
X116794728Y-113901988D01*
X116798443Y-113900678D01*
X116805080Y-113900500D01*
X116970614Y-113900500D01*
X117037653Y-113920185D01*
X117058295Y-113936819D01*
X117059491Y-113938015D01*
X117161985Y-114040509D01*
X117161986Y-114040510D01*
X117161988Y-114040511D01*
X117287511Y-114112982D01*
X117287512Y-114112982D01*
X117287515Y-114112984D01*
X117427525Y-114150500D01*
X117427528Y-114150500D01*
X117572472Y-114150500D01*
X117572475Y-114150500D01*
X117712485Y-114112984D01*
X117838015Y-114040509D01*
X117940509Y-113938015D01*
X118012984Y-113812485D01*
X118050500Y-113672475D01*
X118050500Y-113527525D01*
X118012984Y-113387515D01*
X117991613Y-113350500D01*
X117940511Y-113261988D01*
X117940510Y-113261986D01*
X117940509Y-113261985D01*
X117838015Y-113159491D01*
X117838013Y-113159490D01*
X117838011Y-113159488D01*
X117712488Y-113087017D01*
X117712489Y-113087017D01*
X117701006Y-113083940D01*
X117572475Y-113049500D01*
X117427525Y-113049500D01*
X117298993Y-113083940D01*
X117287511Y-113087017D01*
X117161988Y-113159488D01*
X117161982Y-113159493D01*
X117058295Y-113263181D01*
X117031367Y-113277884D01*
X117005549Y-113294477D01*
X116999348Y-113295368D01*
X116996972Y-113296666D01*
X116970614Y-113299500D01*
X116805080Y-113299500D01*
X116738041Y-113279815D01*
X116692286Y-113227011D01*
X116682342Y-113157853D01*
X116683463Y-113151309D01*
X116697323Y-113081624D01*
X116700500Y-113065654D01*
X116700500Y-112534346D01*
X116700500Y-112534343D01*
X116692121Y-112492221D01*
X116698348Y-112422629D01*
X116700304Y-112417942D01*
X116746992Y-112312205D01*
X116746992Y-112312204D01*
X116749999Y-112286287D01*
X116750000Y-112286284D01*
X116750000Y-112125000D01*
X114250000Y-112125000D01*
X114250000Y-112286287D01*
X114253007Y-112312203D01*
X114258840Y-112325414D01*
X114263283Y-112359350D01*
X114268143Y-112393147D01*
X114267805Y-112393886D01*
X114267911Y-112394692D01*
X114253326Y-112425590D01*
X114239118Y-112456703D01*
X114238433Y-112457142D01*
X114238087Y-112457877D01*
X114209109Y-112475987D01*
X114180340Y-112494477D01*
X114179284Y-112494628D01*
X114178838Y-112494908D01*
X114145405Y-112499500D01*
X114029386Y-112499500D01*
X113962347Y-112479815D01*
X113941705Y-112463181D01*
X113838017Y-112359493D01*
X113838011Y-112359488D01*
X113712488Y-112287017D01*
X113712489Y-112287017D01*
X113701006Y-112283940D01*
X113572475Y-112249500D01*
X113427525Y-112249500D01*
X113298993Y-112283940D01*
X113287511Y-112287017D01*
X113161988Y-112359488D01*
X113161982Y-112359493D01*
X113059493Y-112461982D01*
X113059488Y-112461988D01*
X112987017Y-112587511D01*
X112987016Y-112587515D01*
X112949500Y-112727525D01*
X108000500Y-112727525D01*
X108000500Y-109086287D01*
X114250000Y-109086287D01*
X114253007Y-109112204D01*
X114253008Y-109112209D01*
X114269657Y-109149916D01*
X114278727Y-109219194D01*
X114269657Y-109250084D01*
X114253008Y-109287790D01*
X114253007Y-109287795D01*
X114250000Y-109313712D01*
X114250000Y-109475000D01*
X115375000Y-109475000D01*
X115625000Y-109475000D01*
X116750000Y-109475000D01*
X116750000Y-109313715D01*
X116749999Y-109313712D01*
X116746992Y-109287795D01*
X116746992Y-109287794D01*
X116730343Y-109250089D01*
X116721270Y-109180810D01*
X116730343Y-109149911D01*
X116746992Y-109112205D01*
X116746992Y-109112204D01*
X116749999Y-109086287D01*
X116750000Y-109086284D01*
X116750000Y-108925000D01*
X115625000Y-108925000D01*
X115625000Y-109475000D01*
X115375000Y-109475000D01*
X115375000Y-108925000D01*
X114250000Y-108925000D01*
X114250000Y-109086287D01*
X108000500Y-109086287D01*
X108000500Y-108686287D01*
X122450000Y-108686287D01*
X122453007Y-108712204D01*
X122453008Y-108712208D01*
X122499695Y-108817944D01*
X122508767Y-108887222D01*
X122507879Y-108892220D01*
X122499500Y-108934346D01*
X122499500Y-109465658D01*
X122514614Y-109541641D01*
X122519133Y-109552552D01*
X122526599Y-109622021D01*
X122519133Y-109647448D01*
X122514614Y-109658358D01*
X122499500Y-109734341D01*
X122499500Y-109734346D01*
X122499500Y-110265654D01*
X122502244Y-110279449D01*
X122507879Y-110307780D01*
X122501650Y-110377372D01*
X122499695Y-110382056D01*
X122453008Y-110487791D01*
X122453007Y-110487795D01*
X122450000Y-110513712D01*
X122450000Y-110675000D01*
X124950000Y-110675000D01*
X124950000Y-110513715D01*
X124949999Y-110513712D01*
X124946992Y-110487795D01*
X124946992Y-110487794D01*
X124900304Y-110382057D01*
X124891232Y-110312779D01*
X124892121Y-110307778D01*
X124900500Y-110265656D01*
X124900500Y-109734343D01*
X124900499Y-109734341D01*
X124885386Y-109658360D01*
X124880870Y-109647459D01*
X124873397Y-109577990D01*
X124880870Y-109552541D01*
X124885386Y-109541639D01*
X124900499Y-109465658D01*
X124900500Y-109465656D01*
X124900500Y-108934343D01*
X124892121Y-108892221D01*
X124898348Y-108822629D01*
X124900304Y-108817942D01*
X124946992Y-108712205D01*
X124946992Y-108712204D01*
X124949999Y-108686287D01*
X124950000Y-108686284D01*
X124950000Y-108525000D01*
X122450000Y-108525000D01*
X122450000Y-108686287D01*
X108000500Y-108686287D01*
X108000500Y-108256961D01*
X108001280Y-108243077D01*
X108011459Y-108152731D01*
X108017635Y-108125670D01*
X108045353Y-108046456D01*
X108057396Y-108021450D01*
X108102046Y-107950389D01*
X108119351Y-107928690D01*
X108178690Y-107869351D01*
X108200389Y-107852046D01*
X108271450Y-107807396D01*
X108296456Y-107795353D01*
X108375670Y-107767635D01*
X108402733Y-107761459D01*
X108465419Y-107754396D01*
X108493079Y-107751280D01*
X108506962Y-107750500D01*
X111607317Y-107750500D01*
X111607318Y-107750500D01*
X111789612Y-107724290D01*
X111819764Y-107719955D01*
X111819765Y-107719954D01*
X111819769Y-107719954D01*
X112025710Y-107659484D01*
X112025713Y-107659482D01*
X112025715Y-107659482D01*
X112220938Y-107570327D01*
X112220944Y-107570323D01*
X112220950Y-107570321D01*
X112401513Y-107454281D01*
X112563724Y-107313724D01*
X112704281Y-107151513D01*
X112820321Y-106970950D01*
X112820323Y-106970944D01*
X112820327Y-106970938D01*
X112909482Y-106775715D01*
X112909482Y-106775713D01*
X112909484Y-106775710D01*
X112935741Y-106686287D01*
X114250000Y-106686287D01*
X114253007Y-106712204D01*
X114253008Y-106712208D01*
X114299695Y-106817944D01*
X114308767Y-106887222D01*
X114307879Y-106892220D01*
X114299500Y-106934346D01*
X114299500Y-107465658D01*
X114314614Y-107541641D01*
X114319133Y-107552552D01*
X114326599Y-107622021D01*
X114319133Y-107647448D01*
X114314614Y-107658358D01*
X114299500Y-107734341D01*
X114299500Y-107734346D01*
X114299500Y-108265654D01*
X114301359Y-108275000D01*
X114307879Y-108307780D01*
X114301650Y-108377372D01*
X114299695Y-108382056D01*
X114253008Y-108487791D01*
X114253007Y-108487795D01*
X114250000Y-108513712D01*
X114250000Y-108675000D01*
X116750000Y-108675000D01*
X116750000Y-108513715D01*
X116749998Y-108513697D01*
X116748904Y-108504264D01*
X116698544Y-108377866D01*
X116695484Y-108345252D01*
X116691232Y-108312779D01*
X116692021Y-108308338D01*
X116692018Y-108308302D01*
X116692033Y-108308273D01*
X116692121Y-108307778D01*
X116700500Y-108265656D01*
X116700500Y-107734343D01*
X116700499Y-107734341D01*
X116685386Y-107658360D01*
X116680870Y-107647459D01*
X116673397Y-107577990D01*
X116680870Y-107552541D01*
X116685386Y-107541639D01*
X116700499Y-107465658D01*
X116700500Y-107465656D01*
X116700500Y-106934343D01*
X116692121Y-106892221D01*
X116693626Y-106874685D01*
X116690155Y-106857863D01*
X116697579Y-106828659D01*
X116698026Y-106823457D01*
X116734978Y-106727525D01*
X117849500Y-106727525D01*
X117849500Y-106872475D01*
X117875887Y-106970950D01*
X117887017Y-107012488D01*
X117959488Y-107138011D01*
X117959490Y-107138013D01*
X117959491Y-107138015D01*
X118061985Y-107240509D01*
X118061986Y-107240510D01*
X118061988Y-107240511D01*
X118187511Y-107312982D01*
X118187512Y-107312982D01*
X118187515Y-107312984D01*
X118327525Y-107350500D01*
X118327528Y-107350500D01*
X118472472Y-107350500D01*
X118472475Y-107350500D01*
X118612485Y-107312984D01*
X118738015Y-107240509D01*
X118840509Y-107138015D01*
X118840509Y-107138014D01*
X118841705Y-107136819D01*
X118903028Y-107103334D01*
X118929386Y-107100500D01*
X120837950Y-107100500D01*
X120904989Y-107120185D01*
X120950744Y-107172989D01*
X120960688Y-107242147D01*
X120945337Y-107286500D01*
X120887017Y-107387511D01*
X120887016Y-107387515D01*
X120849500Y-107527525D01*
X120849500Y-107672475D01*
X120873763Y-107763024D01*
X120887017Y-107812488D01*
X120959488Y-107938011D01*
X120959490Y-107938013D01*
X120959491Y-107938015D01*
X121061985Y-108040509D01*
X121061986Y-108040510D01*
X121061988Y-108040511D01*
X121187511Y-108112982D01*
X121187512Y-108112982D01*
X121187515Y-108112984D01*
X121327525Y-108150500D01*
X121327528Y-108150500D01*
X121472472Y-108150500D01*
X121472475Y-108150500D01*
X121612485Y-108112984D01*
X121738015Y-108040509D01*
X121840509Y-107938015D01*
X121840509Y-107938014D01*
X121841705Y-107936819D01*
X121903028Y-107903334D01*
X121929386Y-107900500D01*
X122345405Y-107900500D01*
X122412444Y-107920185D01*
X122458199Y-107972989D01*
X122468143Y-108042147D01*
X122458840Y-108074586D01*
X122453007Y-108087796D01*
X122450000Y-108113712D01*
X122450000Y-108275000D01*
X124950000Y-108275000D01*
X124950000Y-108113715D01*
X124949999Y-108113712D01*
X124946992Y-108087795D01*
X124946992Y-108087794D01*
X124900304Y-107982057D01*
X124891232Y-107912779D01*
X124892121Y-107907778D01*
X124900500Y-107865656D01*
X124900500Y-107334343D01*
X124900499Y-107334341D01*
X124885386Y-107258360D01*
X124880870Y-107247459D01*
X124873397Y-107177990D01*
X124880870Y-107152541D01*
X124885386Y-107141639D01*
X124900499Y-107065658D01*
X124900500Y-107065656D01*
X124900500Y-106534343D01*
X124900499Y-106534341D01*
X124885386Y-106458360D01*
X124880870Y-106447459D01*
X124873397Y-106377990D01*
X124880870Y-106352541D01*
X124885386Y-106341639D01*
X124900499Y-106265658D01*
X124900500Y-106265656D01*
X124900500Y-105734343D01*
X124892121Y-105692221D01*
X124898348Y-105622629D01*
X124900304Y-105617942D01*
X124946992Y-105512205D01*
X124946992Y-105512204D01*
X124949999Y-105486287D01*
X124950000Y-105486284D01*
X124950000Y-105325000D01*
X122450000Y-105325000D01*
X122450000Y-105486287D01*
X122453007Y-105512204D01*
X122453008Y-105512208D01*
X122499695Y-105617944D01*
X122508767Y-105687222D01*
X122507879Y-105692220D01*
X122499500Y-105734346D01*
X122499500Y-106265658D01*
X122516537Y-106351309D01*
X122510310Y-106420901D01*
X122467447Y-106476078D01*
X122401557Y-106499322D01*
X122394920Y-106499500D01*
X118929386Y-106499500D01*
X118862347Y-106479815D01*
X118841705Y-106463181D01*
X118738017Y-106359493D01*
X118738011Y-106359488D01*
X118612488Y-106287017D01*
X118612489Y-106287017D01*
X118601006Y-106283940D01*
X118472475Y-106249500D01*
X118327525Y-106249500D01*
X118198993Y-106283940D01*
X118187511Y-106287017D01*
X118061988Y-106359488D01*
X118061982Y-106359493D01*
X117959493Y-106461982D01*
X117959488Y-106461988D01*
X117887017Y-106587511D01*
X117887016Y-106587515D01*
X117849500Y-106727525D01*
X116734978Y-106727525D01*
X116749628Y-106689492D01*
X116749999Y-106686300D01*
X116750000Y-106686284D01*
X116750000Y-106525000D01*
X114250000Y-106525000D01*
X114250000Y-106686287D01*
X112935741Y-106686287D01*
X112969954Y-106569769D01*
X112982888Y-106479815D01*
X112986313Y-106455991D01*
X112994363Y-106400000D01*
X113000500Y-106357318D01*
X113000500Y-106250000D01*
X113000500Y-106184108D01*
X113000500Y-105886287D01*
X114250000Y-105886287D01*
X114253007Y-105912204D01*
X114253008Y-105912209D01*
X114269657Y-105949916D01*
X114278727Y-106019194D01*
X114269657Y-106050084D01*
X114253008Y-106087790D01*
X114253007Y-106087795D01*
X114250000Y-106113712D01*
X114250000Y-106275000D01*
X115375000Y-106275000D01*
X115625000Y-106275000D01*
X116750000Y-106275000D01*
X116750000Y-106113715D01*
X116749999Y-106113712D01*
X116746992Y-106087795D01*
X116746992Y-106087794D01*
X116730343Y-106050089D01*
X116721270Y-105980810D01*
X116730343Y-105949911D01*
X116746992Y-105912205D01*
X116746992Y-105912204D01*
X116749999Y-105886287D01*
X116750000Y-105886284D01*
X116750000Y-105725000D01*
X115625000Y-105725000D01*
X115625000Y-106275000D01*
X115375000Y-106275000D01*
X115375000Y-105725000D01*
X114250000Y-105725000D01*
X114250000Y-105886287D01*
X113000500Y-105886287D01*
X113000500Y-103486287D01*
X114250000Y-103486287D01*
X114253007Y-103512204D01*
X114253008Y-103512208D01*
X114299695Y-103617944D01*
X114308767Y-103687222D01*
X114307879Y-103692220D01*
X114299500Y-103734346D01*
X114299500Y-104265658D01*
X114314614Y-104341641D01*
X114319133Y-104352552D01*
X114326599Y-104422021D01*
X114319133Y-104447448D01*
X114314614Y-104458358D01*
X114299500Y-104534341D01*
X114299500Y-104534346D01*
X114299500Y-105065654D01*
X114301359Y-105075000D01*
X114307879Y-105107780D01*
X114301650Y-105177372D01*
X114299695Y-105182056D01*
X114253008Y-105287791D01*
X114253007Y-105287795D01*
X114250000Y-105313712D01*
X114250000Y-105475000D01*
X116750000Y-105475000D01*
X116750000Y-105313715D01*
X116749999Y-105313712D01*
X116746992Y-105287795D01*
X116746992Y-105287794D01*
X116700304Y-105182057D01*
X116691232Y-105112779D01*
X116692121Y-105107778D01*
X116700500Y-105065656D01*
X116700500Y-104534343D01*
X116700499Y-104534341D01*
X116685386Y-104458360D01*
X116680870Y-104447459D01*
X116673397Y-104377990D01*
X116680870Y-104352541D01*
X116685386Y-104341639D01*
X116700499Y-104265658D01*
X116700500Y-104265656D01*
X116700500Y-103734343D01*
X116692121Y-103692221D01*
X116698348Y-103622629D01*
X116700304Y-103617942D01*
X116746992Y-103512205D01*
X116746992Y-103512204D01*
X116749999Y-103486287D01*
X116750000Y-103486284D01*
X116750000Y-103325000D01*
X114250000Y-103325000D01*
X114250000Y-103486287D01*
X113000500Y-103486287D01*
X113000500Y-102930535D01*
X114250000Y-102930535D01*
X114250000Y-103075000D01*
X116750000Y-103075000D01*
X116750000Y-102913715D01*
X116749999Y-102913712D01*
X116746992Y-102887795D01*
X116746992Y-102887794D01*
X116700304Y-102782057D01*
X116691232Y-102712779D01*
X116692121Y-102707778D01*
X116700500Y-102665656D01*
X116700500Y-102134343D01*
X116700499Y-102134341D01*
X116685386Y-102058360D01*
X116680870Y-102047459D01*
X116673397Y-101977990D01*
X116680870Y-101952541D01*
X116685386Y-101941639D01*
X116700499Y-101865658D01*
X116700500Y-101865656D01*
X116700500Y-101713712D01*
X122450000Y-101713712D01*
X122450000Y-101875000D01*
X123575000Y-101875000D01*
X123825000Y-101875000D01*
X124950000Y-101875000D01*
X124950000Y-101713715D01*
X124949999Y-101713712D01*
X124946992Y-101687795D01*
X124946992Y-101687793D01*
X124900180Y-101581777D01*
X124900176Y-101581770D01*
X124818229Y-101499823D01*
X124818222Y-101499819D01*
X124712205Y-101453007D01*
X124686287Y-101450000D01*
X123825000Y-101450000D01*
X123825000Y-101875000D01*
X123575000Y-101875000D01*
X123575000Y-101450000D01*
X122713712Y-101450000D01*
X122687795Y-101453007D01*
X122687793Y-101453007D01*
X122581777Y-101499819D01*
X122581770Y-101499823D01*
X122499823Y-101581770D01*
X122499819Y-101581777D01*
X122453007Y-101687793D01*
X122453007Y-101687795D01*
X122450000Y-101713712D01*
X116700500Y-101713712D01*
X116700500Y-101334343D01*
X116700499Y-101334341D01*
X116685385Y-101258358D01*
X116685385Y-101258357D01*
X116662323Y-101223843D01*
X116627810Y-101172190D01*
X116593295Y-101149128D01*
X116541642Y-101114614D01*
X116465657Y-101099500D01*
X116465654Y-101099500D01*
X114534346Y-101099500D01*
X114534343Y-101099500D01*
X114458358Y-101114614D01*
X114458357Y-101114614D01*
X114372190Y-101172190D01*
X114314614Y-101258357D01*
X114314614Y-101258358D01*
X114299500Y-101334341D01*
X114299500Y-101865658D01*
X114314614Y-101941641D01*
X114319133Y-101952552D01*
X114326599Y-102022021D01*
X114319133Y-102047448D01*
X114314614Y-102058358D01*
X114299500Y-102134341D01*
X114299500Y-102134346D01*
X114299500Y-102665654D01*
X114302244Y-102679449D01*
X114307879Y-102707780D01*
X114306554Y-102722582D01*
X114310159Y-102736998D01*
X114303724Y-102771700D01*
X114250000Y-102930535D01*
X113000500Y-102930535D01*
X113000500Y-97886287D01*
X114250000Y-97886287D01*
X114253007Y-97912204D01*
X114253007Y-97912206D01*
X114299819Y-98018222D01*
X114299823Y-98018229D01*
X114381770Y-98100176D01*
X114381777Y-98100180D01*
X114487794Y-98146992D01*
X114513712Y-98149999D01*
X114513715Y-98150000D01*
X115375000Y-98150000D01*
X115625000Y-98150000D01*
X116486285Y-98150000D01*
X116486287Y-98149999D01*
X116512204Y-98146992D01*
X116512206Y-98146992D01*
X116618222Y-98100180D01*
X116618229Y-98100176D01*
X116700176Y-98018229D01*
X116700180Y-98018222D01*
X116746992Y-97912206D01*
X116746992Y-97912204D01*
X116749999Y-97886287D01*
X116750000Y-97886284D01*
X116750000Y-97725000D01*
X115625000Y-97725000D01*
X115625000Y-98150000D01*
X115375000Y-98150000D01*
X115375000Y-97725000D01*
X114250000Y-97725000D01*
X114250000Y-97886287D01*
X113000500Y-97886287D01*
X113000500Y-95486287D01*
X114250000Y-95486287D01*
X114253007Y-95512204D01*
X114253008Y-95512208D01*
X114299695Y-95617944D01*
X114308767Y-95687222D01*
X114307879Y-95692220D01*
X114299500Y-95734346D01*
X114299500Y-96265658D01*
X114314614Y-96341641D01*
X114319133Y-96352552D01*
X114326599Y-96422021D01*
X114319133Y-96447448D01*
X114314614Y-96458358D01*
X114299500Y-96534341D01*
X114299500Y-97065653D01*
X114307879Y-97107780D01*
X114301650Y-97177372D01*
X114299695Y-97182056D01*
X114253008Y-97287791D01*
X114253007Y-97287795D01*
X114250000Y-97313712D01*
X114250000Y-97475000D01*
X116750000Y-97475000D01*
X116750000Y-97313715D01*
X116749999Y-97313712D01*
X116746992Y-97287796D01*
X116741160Y-97274586D01*
X116732089Y-97205308D01*
X116761913Y-97142123D01*
X116821162Y-97105092D01*
X116854595Y-97100500D01*
X118870614Y-97100500D01*
X118937653Y-97120185D01*
X118958295Y-97136819D01*
X118959491Y-97138015D01*
X119061985Y-97240509D01*
X119061986Y-97240510D01*
X119061988Y-97240511D01*
X119187511Y-97312982D01*
X119187512Y-97312982D01*
X119187515Y-97312984D01*
X119327525Y-97350500D01*
X119327528Y-97350500D01*
X119472472Y-97350500D01*
X119472475Y-97350500D01*
X119612485Y-97312984D01*
X119738015Y-97240509D01*
X119840509Y-97138015D01*
X119912984Y-97012485D01*
X119950500Y-96872475D01*
X119950500Y-96727525D01*
X119912984Y-96587515D01*
X119862168Y-96499500D01*
X119840511Y-96461988D01*
X119840506Y-96461982D01*
X119738017Y-96359493D01*
X119738011Y-96359488D01*
X119612488Y-96287017D01*
X119612489Y-96287017D01*
X119601006Y-96283940D01*
X119472475Y-96249500D01*
X119327525Y-96249500D01*
X119198993Y-96283940D01*
X119187511Y-96287017D01*
X119061988Y-96359488D01*
X119061982Y-96359493D01*
X118958295Y-96463181D01*
X118896972Y-96496666D01*
X118870614Y-96499500D01*
X118462050Y-96499500D01*
X118395011Y-96479815D01*
X118349256Y-96427011D01*
X118339312Y-96357853D01*
X118354663Y-96313500D01*
X118412982Y-96212488D01*
X118412981Y-96212488D01*
X118412984Y-96212485D01*
X118450500Y-96072475D01*
X118450500Y-95927525D01*
X118412984Y-95787515D01*
X118362168Y-95699500D01*
X118340511Y-95661988D01*
X118340506Y-95661982D01*
X118238017Y-95559493D01*
X118238011Y-95559488D01*
X118112488Y-95487017D01*
X118112489Y-95487017D01*
X118101006Y-95483940D01*
X117972475Y-95449500D01*
X117827525Y-95449500D01*
X117698993Y-95483940D01*
X117687511Y-95487017D01*
X117561988Y-95559488D01*
X117561982Y-95559493D01*
X117458295Y-95663181D01*
X117396972Y-95696666D01*
X117370614Y-95699500D01*
X116854595Y-95699500D01*
X116787556Y-95679815D01*
X116741801Y-95627011D01*
X116731857Y-95557853D01*
X116741160Y-95525414D01*
X116746992Y-95512203D01*
X116749999Y-95486287D01*
X116750000Y-95486284D01*
X116750000Y-95325000D01*
X114250000Y-95325000D01*
X114250000Y-95486287D01*
X113000500Y-95486287D01*
X113000500Y-94930535D01*
X114250000Y-94930535D01*
X114250000Y-95075000D01*
X116750000Y-95075000D01*
X116750000Y-94913715D01*
X116749999Y-94913712D01*
X116746992Y-94887796D01*
X116741160Y-94874586D01*
X116732089Y-94805308D01*
X116761913Y-94742123D01*
X116821162Y-94705092D01*
X116854595Y-94700500D01*
X117370614Y-94700500D01*
X117437653Y-94720185D01*
X117458295Y-94736819D01*
X117459491Y-94738015D01*
X117561985Y-94840509D01*
X117561986Y-94840510D01*
X117561988Y-94840511D01*
X117687511Y-94912982D01*
X117687512Y-94912982D01*
X117687515Y-94912984D01*
X117827525Y-94950500D01*
X117827528Y-94950500D01*
X117972472Y-94950500D01*
X117972475Y-94950500D01*
X118112485Y-94912984D01*
X118238015Y-94840509D01*
X118340509Y-94738015D01*
X118412984Y-94612485D01*
X118450500Y-94472475D01*
X118450500Y-94327525D01*
X118416596Y-94200995D01*
X118418259Y-94131147D01*
X118457421Y-94073284D01*
X118521650Y-94045780D01*
X118590552Y-94057366D01*
X118598348Y-94061503D01*
X118687515Y-94112984D01*
X118827525Y-94150500D01*
X118827528Y-94150500D01*
X118972472Y-94150500D01*
X118972475Y-94150500D01*
X119112485Y-94112984D01*
X119238015Y-94040509D01*
X119340509Y-93938015D01*
X119412984Y-93812485D01*
X119450500Y-93672475D01*
X119450500Y-93527525D01*
X119412984Y-93387515D01*
X119407276Y-93377628D01*
X122450000Y-93377628D01*
X122450000Y-93486287D01*
X122453007Y-93512204D01*
X122453008Y-93512208D01*
X122499695Y-93617944D01*
X122508767Y-93687222D01*
X122507879Y-93692220D01*
X122499500Y-93734346D01*
X122499500Y-94265658D01*
X122514614Y-94341641D01*
X122519133Y-94352552D01*
X122526599Y-94422021D01*
X122519133Y-94447448D01*
X122514614Y-94458358D01*
X122499500Y-94534341D01*
X122499500Y-95065658D01*
X122514614Y-95141641D01*
X122519133Y-95152552D01*
X122526599Y-95222021D01*
X122519133Y-95247448D01*
X122514614Y-95258358D01*
X122499500Y-95334341D01*
X122499500Y-95865658D01*
X122514614Y-95941641D01*
X122519133Y-95952552D01*
X122526599Y-96022021D01*
X122519133Y-96047448D01*
X122514614Y-96058358D01*
X122499500Y-96134341D01*
X122499500Y-96665658D01*
X122514614Y-96741641D01*
X122519133Y-96752552D01*
X122526599Y-96822021D01*
X122519133Y-96847448D01*
X122514614Y-96858358D01*
X122499500Y-96934341D01*
X122499500Y-97465658D01*
X122514614Y-97541641D01*
X122519133Y-97552552D01*
X122526599Y-97622021D01*
X122519133Y-97647448D01*
X122514614Y-97658358D01*
X122499500Y-97734341D01*
X122499500Y-98265658D01*
X122514614Y-98341641D01*
X122514614Y-98341642D01*
X122549128Y-98393295D01*
X122572190Y-98427810D01*
X122623843Y-98462323D01*
X122658357Y-98485385D01*
X122734341Y-98500499D01*
X122734344Y-98500500D01*
X122734346Y-98500500D01*
X124665656Y-98500500D01*
X124665657Y-98500499D01*
X124741642Y-98485385D01*
X124827810Y-98427810D01*
X124885385Y-98341642D01*
X124900500Y-98265654D01*
X124900500Y-97734346D01*
X124900500Y-97734343D01*
X124900499Y-97734341D01*
X124885386Y-97658360D01*
X124880870Y-97647459D01*
X124873397Y-97577990D01*
X124880870Y-97552541D01*
X124885386Y-97541639D01*
X124900499Y-97465658D01*
X124900500Y-97465656D01*
X124900500Y-96934343D01*
X124900499Y-96934341D01*
X124885386Y-96858360D01*
X124880870Y-96847459D01*
X124873397Y-96777990D01*
X124880870Y-96752541D01*
X124885386Y-96741639D01*
X124900499Y-96665658D01*
X124900500Y-96665656D01*
X124900500Y-96134343D01*
X124900499Y-96134341D01*
X124885386Y-96058360D01*
X124880870Y-96047459D01*
X124873397Y-95977990D01*
X124880870Y-95952541D01*
X124885386Y-95941639D01*
X124900499Y-95865658D01*
X124900500Y-95865656D01*
X124900500Y-95334343D01*
X124900499Y-95334341D01*
X124885386Y-95258360D01*
X124880870Y-95247459D01*
X124873397Y-95177990D01*
X124880870Y-95152541D01*
X124885386Y-95141639D01*
X124900499Y-95065658D01*
X124900500Y-95065656D01*
X124900500Y-94534343D01*
X124900499Y-94534341D01*
X124885386Y-94458360D01*
X124880870Y-94447459D01*
X124873397Y-94377990D01*
X124880870Y-94352541D01*
X124885386Y-94341639D01*
X124900499Y-94265658D01*
X124900500Y-94265656D01*
X124900500Y-93734343D01*
X124892121Y-93692221D01*
X124898348Y-93622629D01*
X124900304Y-93617942D01*
X124946992Y-93512205D01*
X124946992Y-93512204D01*
X124949999Y-93486287D01*
X124950000Y-93486284D01*
X124950000Y-93325000D01*
X122500323Y-93325000D01*
X122450000Y-93377628D01*
X119407276Y-93377628D01*
X119391613Y-93350500D01*
X119354663Y-93286500D01*
X119338190Y-93218600D01*
X119361042Y-93152573D01*
X119415963Y-93109383D01*
X119462050Y-93100500D01*
X121370614Y-93100500D01*
X121437653Y-93120185D01*
X121458295Y-93136819D01*
X121459491Y-93138015D01*
X121561985Y-93240509D01*
X121561986Y-93240510D01*
X121561988Y-93240511D01*
X121687511Y-93312982D01*
X121687512Y-93312982D01*
X121687515Y-93312984D01*
X121827525Y-93350500D01*
X121827528Y-93350500D01*
X121972472Y-93350500D01*
X121972475Y-93350500D01*
X122112485Y-93312984D01*
X122238015Y-93240509D01*
X122340509Y-93138015D01*
X122347397Y-93126083D01*
X122357705Y-93115304D01*
X122373205Y-93106383D01*
X122391674Y-93088778D01*
X122412630Y-93083695D01*
X122418263Y-93080454D01*
X122424694Y-93080769D01*
X122448482Y-93075000D01*
X124950000Y-93075000D01*
X124950000Y-92924500D01*
X124969685Y-92857461D01*
X125022489Y-92811706D01*
X125074000Y-92800500D01*
X127075500Y-92800500D01*
X127142539Y-92820185D01*
X127188294Y-92872989D01*
X127199500Y-92924500D01*
X127199500Y-103875500D01*
X127179815Y-103942539D01*
X127127011Y-103988294D01*
X127075500Y-103999500D01*
X125024130Y-103999500D01*
X124957091Y-103979815D01*
X124911336Y-103927011D01*
X124902129Y-103871746D01*
X124900500Y-103871746D01*
X124900500Y-103334343D01*
X124900499Y-103334341D01*
X124885386Y-103258360D01*
X124880870Y-103247459D01*
X124873397Y-103177990D01*
X124880870Y-103152541D01*
X124885386Y-103141639D01*
X124900499Y-103065658D01*
X124900500Y-103065656D01*
X124900500Y-102534343D01*
X124892121Y-102492221D01*
X124898348Y-102422629D01*
X124900304Y-102417942D01*
X124946992Y-102312205D01*
X124946992Y-102312204D01*
X124949999Y-102286287D01*
X124950000Y-102286284D01*
X124950000Y-102125000D01*
X122450000Y-102125000D01*
X122450000Y-102286287D01*
X122453007Y-102312204D01*
X122453008Y-102312208D01*
X122499695Y-102417944D01*
X122508767Y-102487222D01*
X122507879Y-102492220D01*
X122499500Y-102534346D01*
X122499500Y-103065658D01*
X122514614Y-103141641D01*
X122519133Y-103152552D01*
X122526599Y-103222021D01*
X122519133Y-103247448D01*
X122514614Y-103258358D01*
X122499500Y-103334341D01*
X122499500Y-103865658D01*
X122514614Y-103941641D01*
X122519133Y-103952552D01*
X122526599Y-104022021D01*
X122519133Y-104047448D01*
X122514614Y-104058358D01*
X122499500Y-104134341D01*
X122499500Y-104665653D01*
X122507879Y-104707780D01*
X122501650Y-104777372D01*
X122499695Y-104782056D01*
X122453008Y-104887791D01*
X122453007Y-104887795D01*
X122450000Y-104913712D01*
X122450000Y-105075000D01*
X124950000Y-105075000D01*
X124950000Y-104924500D01*
X124969685Y-104857461D01*
X125022489Y-104811706D01*
X125074000Y-104800500D01*
X127075500Y-104800500D01*
X127142539Y-104820185D01*
X127188294Y-104872989D01*
X127199500Y-104924500D01*
X127199500Y-114182745D01*
X127179815Y-114249784D01*
X127163181Y-114270426D01*
X126270426Y-115163181D01*
X126209103Y-115196666D01*
X126182745Y-115199500D01*
X125074000Y-115199500D01*
X125006961Y-115179815D01*
X124961206Y-115127011D01*
X124950000Y-115075500D01*
X124950000Y-114925000D01*
X122450000Y-114925000D01*
X122450000Y-115075500D01*
X122447449Y-115084185D01*
X122448738Y-115093147D01*
X122437759Y-115117187D01*
X122430315Y-115142539D01*
X122423474Y-115148466D01*
X122419713Y-115156703D01*
X122397478Y-115170992D01*
X122377511Y-115188294D01*
X122366996Y-115190581D01*
X122360935Y-115194477D01*
X122326000Y-115199500D01*
X122217255Y-115199500D01*
X122150216Y-115179815D01*
X122129574Y-115163181D01*
X118052680Y-111086287D01*
X122450000Y-111086287D01*
X122453007Y-111112204D01*
X122453008Y-111112208D01*
X122499695Y-111217944D01*
X122508767Y-111287222D01*
X122507879Y-111292220D01*
X122499500Y-111334346D01*
X122499500Y-111865658D01*
X122514614Y-111941641D01*
X122519133Y-111952552D01*
X122526599Y-112022021D01*
X122519133Y-112047448D01*
X122514614Y-112058358D01*
X122499500Y-112134341D01*
X122499500Y-112665658D01*
X122514614Y-112741641D01*
X122519133Y-112752552D01*
X122526599Y-112822021D01*
X122519133Y-112847448D01*
X122514614Y-112858358D01*
X122499500Y-112934341D01*
X122499500Y-113465658D01*
X122514614Y-113541641D01*
X122519133Y-113552552D01*
X122526599Y-113622021D01*
X122519133Y-113647448D01*
X122514614Y-113658358D01*
X122499500Y-113734341D01*
X122499500Y-113734346D01*
X122499500Y-114265654D01*
X122500449Y-114270426D01*
X122507879Y-114307780D01*
X122501650Y-114377372D01*
X122499695Y-114382056D01*
X122453008Y-114487791D01*
X122453007Y-114487795D01*
X122450000Y-114513712D01*
X122450000Y-114675000D01*
X124950000Y-114675000D01*
X124950000Y-114513715D01*
X124949999Y-114513712D01*
X124946992Y-114487795D01*
X124946992Y-114487794D01*
X124900304Y-114382057D01*
X124891232Y-114312779D01*
X124892121Y-114307778D01*
X124900500Y-114265656D01*
X124900500Y-113734343D01*
X124900499Y-113734341D01*
X124885386Y-113658360D01*
X124880870Y-113647459D01*
X124873397Y-113577990D01*
X124880870Y-113552541D01*
X124885386Y-113541639D01*
X124900499Y-113465658D01*
X124900500Y-113465656D01*
X124900500Y-112934343D01*
X124900499Y-112934341D01*
X124885386Y-112858360D01*
X124880870Y-112847459D01*
X124873397Y-112777990D01*
X124880870Y-112752541D01*
X124885386Y-112741639D01*
X124900499Y-112665658D01*
X124900500Y-112665656D01*
X124900500Y-112134343D01*
X124900499Y-112134341D01*
X124885386Y-112058360D01*
X124880870Y-112047459D01*
X124873397Y-111977990D01*
X124880870Y-111952541D01*
X124885386Y-111941639D01*
X124900499Y-111865658D01*
X124900500Y-111865656D01*
X124900500Y-111334343D01*
X124892121Y-111292221D01*
X124898348Y-111222629D01*
X124900304Y-111217942D01*
X124946992Y-111112205D01*
X124946992Y-111112204D01*
X124949999Y-111086287D01*
X124950000Y-111086284D01*
X124950000Y-110925000D01*
X122450000Y-110925000D01*
X122450000Y-111086287D01*
X118052680Y-111086287D01*
X117045915Y-110079522D01*
X117045913Y-110079520D01*
X117000250Y-110053156D01*
X116954589Y-110026793D01*
X116907552Y-110014190D01*
X116852727Y-109999500D01*
X116852726Y-109999500D01*
X116844877Y-109997397D01*
X116845582Y-109994765D01*
X116793887Y-109971876D01*
X116755435Y-109913539D01*
X116750000Y-109877230D01*
X116750000Y-109725000D01*
X114250000Y-109725000D01*
X114250000Y-109886287D01*
X114253007Y-109912204D01*
X114253008Y-109912208D01*
X114299695Y-110017944D01*
X114308767Y-110087222D01*
X114307879Y-110092220D01*
X114299500Y-110134346D01*
X114299500Y-110665658D01*
X114314614Y-110741641D01*
X114319133Y-110752552D01*
X114326599Y-110822021D01*
X114319133Y-110847448D01*
X114314614Y-110858358D01*
X114299500Y-110934341D01*
X114299500Y-111465653D01*
X114307879Y-111507780D01*
X114301650Y-111577372D01*
X114299695Y-111582056D01*
X114253008Y-111687791D01*
X114253007Y-111687795D01*
X114250000Y-111713712D01*
X114250000Y-111875000D01*
X116750000Y-111875000D01*
X116750000Y-111724500D01*
X116769685Y-111657461D01*
X116822489Y-111611706D01*
X116874000Y-111600500D01*
X116952725Y-111600500D01*
X116952727Y-111600500D01*
X117054588Y-111573207D01*
X117145913Y-111520480D01*
X117162317Y-111504076D01*
X117223639Y-111470589D01*
X117293331Y-111475572D01*
X117337681Y-111504074D01*
X121679519Y-115845912D01*
X121679520Y-115845913D01*
X121754087Y-115920480D01*
X121845413Y-115973207D01*
X121947273Y-116000500D01*
X122493703Y-116000500D01*
X122560742Y-116020185D01*
X122562594Y-116021398D01*
X122658357Y-116085385D01*
X122734341Y-116100499D01*
X122734344Y-116100500D01*
X122734346Y-116100500D01*
X124665656Y-116100500D01*
X124665657Y-116100499D01*
X124741642Y-116085385D01*
X124827810Y-116027810D01*
X124827810Y-116027809D01*
X124837406Y-116021398D01*
X124904084Y-116000520D01*
X124906297Y-116000500D01*
X126452725Y-116000500D01*
X126452727Y-116000500D01*
X126554588Y-115973207D01*
X126645913Y-115920480D01*
X126820480Y-115745913D01*
X127920480Y-114645913D01*
X127973207Y-114554588D01*
X128000500Y-114452727D01*
X128000500Y-114347273D01*
X128000500Y-114327525D01*
X129249500Y-114327525D01*
X129249500Y-114472475D01*
X129271503Y-114554589D01*
X129287017Y-114612488D01*
X129359488Y-114738011D01*
X129359490Y-114738013D01*
X129359491Y-114738015D01*
X129461985Y-114840509D01*
X129461986Y-114840510D01*
X129461988Y-114840511D01*
X129587511Y-114912982D01*
X129587512Y-114912982D01*
X129587515Y-114912984D01*
X129727525Y-114950500D01*
X129727528Y-114950500D01*
X129872472Y-114950500D01*
X129872475Y-114950500D01*
X130012485Y-114912984D01*
X130138015Y-114840509D01*
X130240509Y-114738015D01*
X130312984Y-114612485D01*
X130350500Y-114472475D01*
X130350500Y-114327525D01*
X130312984Y-114187515D01*
X130291613Y-114150500D01*
X130240511Y-114061988D01*
X130240510Y-114061987D01*
X130240509Y-114061985D01*
X130138015Y-113959491D01*
X130138014Y-113959490D01*
X130136818Y-113958294D01*
X130103334Y-113896971D01*
X130100500Y-113870613D01*
X130100500Y-113527525D01*
X130749500Y-113527525D01*
X130749500Y-113672475D01*
X130770273Y-113750000D01*
X130787017Y-113812488D01*
X130859488Y-113938011D01*
X130859490Y-113938013D01*
X130859491Y-113938015D01*
X130961985Y-114040509D01*
X130961986Y-114040510D01*
X130961988Y-114040511D01*
X131087511Y-114112982D01*
X131087512Y-114112982D01*
X131087515Y-114112984D01*
X131227525Y-114150500D01*
X131227528Y-114150500D01*
X131372472Y-114150500D01*
X131372475Y-114150500D01*
X131512485Y-114112984D01*
X131638015Y-114040509D01*
X131740509Y-113938015D01*
X131812984Y-113812485D01*
X131850500Y-113672475D01*
X131850500Y-113527525D01*
X131812984Y-113387515D01*
X131791613Y-113350500D01*
X131740511Y-113261988D01*
X131740510Y-113261987D01*
X131740509Y-113261985D01*
X131638015Y-113159491D01*
X131638014Y-113159490D01*
X131636818Y-113158294D01*
X131603334Y-113096971D01*
X131600500Y-113070613D01*
X131600500Y-112727525D01*
X132249500Y-112727525D01*
X132249500Y-112872475D01*
X132287016Y-113012485D01*
X132287017Y-113012488D01*
X132359488Y-113138011D01*
X132359490Y-113138013D01*
X132359491Y-113138015D01*
X132461985Y-113240509D01*
X132461986Y-113240510D01*
X132461988Y-113240511D01*
X132587511Y-113312982D01*
X132587512Y-113312982D01*
X132587515Y-113312984D01*
X132727525Y-113350500D01*
X132727528Y-113350500D01*
X132872472Y-113350500D01*
X132872475Y-113350500D01*
X133012485Y-113312984D01*
X133138015Y-113240509D01*
X133240509Y-113138015D01*
X133312984Y-113012485D01*
X133350500Y-112872475D01*
X133350500Y-112727525D01*
X133312984Y-112587515D01*
X133262914Y-112500792D01*
X133240511Y-112461988D01*
X133240510Y-112461987D01*
X133240509Y-112461985D01*
X133138015Y-112359491D01*
X133138014Y-112359490D01*
X133136818Y-112358294D01*
X133103334Y-112296971D01*
X133100500Y-112270613D01*
X133100500Y-91528059D01*
X140000000Y-91528059D01*
X140000000Y-91871940D01*
X140033705Y-92214165D01*
X140033708Y-92214182D01*
X140100791Y-92551437D01*
X140100792Y-92551443D01*
X140200623Y-92880540D01*
X140332219Y-93198241D01*
X140332226Y-93198255D01*
X140494322Y-93501518D01*
X140494333Y-93501536D01*
X140685377Y-93787453D01*
X140685387Y-93787467D01*
X140903543Y-94053290D01*
X140936738Y-94086484D01*
X141891331Y-93131890D01*
X142068107Y-93308666D01*
X141113514Y-94263260D01*
X141146709Y-94296456D01*
X141412532Y-94514612D01*
X141412546Y-94514622D01*
X141698463Y-94705666D01*
X141698481Y-94705677D01*
X142001744Y-94867773D01*
X142001758Y-94867780D01*
X142319459Y-94999376D01*
X142648556Y-95099207D01*
X142648562Y-95099208D01*
X142985817Y-95166291D01*
X142985834Y-95166294D01*
X143328059Y-95200000D01*
X143671941Y-95200000D01*
X144014165Y-95166294D01*
X144014182Y-95166291D01*
X144351437Y-95099208D01*
X144351443Y-95099207D01*
X144680540Y-94999376D01*
X144998241Y-94867780D01*
X144998255Y-94867773D01*
X145301518Y-94705677D01*
X145301536Y-94705666D01*
X145587453Y-94514622D01*
X145587467Y-94514612D01*
X145853295Y-94296452D01*
X145886485Y-94263261D01*
X145886485Y-94263260D01*
X144931891Y-93308667D01*
X145108667Y-93131891D01*
X146063260Y-94086485D01*
X146063262Y-94086485D01*
X146096452Y-94053295D01*
X146314612Y-93787467D01*
X146314622Y-93787453D01*
X146505666Y-93501536D01*
X146505677Y-93501518D01*
X146667773Y-93198255D01*
X146667780Y-93198241D01*
X146799376Y-92880540D01*
X146899207Y-92551443D01*
X146899208Y-92551437D01*
X146966291Y-92214182D01*
X146966294Y-92214165D01*
X147000000Y-91871940D01*
X147000000Y-91528059D01*
X146966294Y-91185834D01*
X146966291Y-91185817D01*
X146899208Y-90848562D01*
X146899207Y-90848556D01*
X146799376Y-90519459D01*
X146667780Y-90201758D01*
X146667773Y-90201744D01*
X146505677Y-89898481D01*
X146505666Y-89898463D01*
X146314622Y-89612546D01*
X146314612Y-89612532D01*
X146096456Y-89346709D01*
X146063261Y-89313514D01*
X146063260Y-89313514D01*
X145108666Y-90268107D01*
X144931890Y-90091331D01*
X145886485Y-89136738D01*
X145853290Y-89103543D01*
X145587467Y-88885387D01*
X145587453Y-88885377D01*
X145301536Y-88694333D01*
X145301518Y-88694322D01*
X144998255Y-88532226D01*
X144998241Y-88532219D01*
X144680540Y-88400623D01*
X144351443Y-88300792D01*
X144351437Y-88300791D01*
X144014182Y-88233708D01*
X144014165Y-88233705D01*
X143671941Y-88200000D01*
X143328059Y-88200000D01*
X142985834Y-88233705D01*
X142985817Y-88233708D01*
X142648562Y-88300791D01*
X142648556Y-88300792D01*
X142319459Y-88400623D01*
X142001758Y-88532219D01*
X142001744Y-88532226D01*
X141698481Y-88694322D01*
X141698463Y-88694333D01*
X141412546Y-88885377D01*
X141412532Y-88885387D01*
X141146703Y-89103548D01*
X141113514Y-89136737D01*
X142068108Y-90091332D01*
X141891332Y-90268108D01*
X140936738Y-89313514D01*
X140936737Y-89313514D01*
X140903548Y-89346703D01*
X140685387Y-89612532D01*
X140685377Y-89612546D01*
X140494333Y-89898463D01*
X140494322Y-89898481D01*
X140332226Y-90201744D01*
X140332219Y-90201758D01*
X140200623Y-90519459D01*
X140100792Y-90848556D01*
X140100791Y-90848562D01*
X140033708Y-91185817D01*
X140033705Y-91185834D01*
X140000000Y-91528059D01*
X133100500Y-91528059D01*
X133100500Y-86843832D01*
X133120185Y-86776793D01*
X133136814Y-86756156D01*
X143277896Y-76615073D01*
X143339217Y-76581590D01*
X143408909Y-76586574D01*
X143413007Y-76588186D01*
X143533580Y-76638130D01*
X143714711Y-76674159D01*
X143736530Y-76678499D01*
X143736534Y-76678500D01*
X143736535Y-76678500D01*
X143943466Y-76678500D01*
X143943467Y-76678499D01*
X144146420Y-76638130D01*
X144337598Y-76558941D01*
X144509655Y-76443977D01*
X144655977Y-76297655D01*
X144770941Y-76125598D01*
X144850130Y-75934420D01*
X144890500Y-75731465D01*
X144890500Y-75524535D01*
X144850130Y-75321580D01*
X144770941Y-75130402D01*
X144655977Y-74958345D01*
X144655975Y-74958342D01*
X144509657Y-74812024D01*
X144421876Y-74753371D01*
X145280000Y-74753371D01*
X145280000Y-75503000D01*
X145895856Y-75503000D01*
X145880000Y-75562174D01*
X145880000Y-75693826D01*
X145895856Y-75753000D01*
X145280000Y-75753000D01*
X145280000Y-76502628D01*
X145294503Y-76575540D01*
X145294505Y-76575544D01*
X145349760Y-76658239D01*
X145432455Y-76713494D01*
X145432459Y-76713496D01*
X145505371Y-76727999D01*
X145505374Y-76728000D01*
X146255000Y-76728000D01*
X146255000Y-76112144D01*
X146314174Y-76128000D01*
X146445826Y-76128000D01*
X146505000Y-76112144D01*
X146505000Y-76728000D01*
X147254626Y-76728000D01*
X147254628Y-76727999D01*
X147327540Y-76713496D01*
X147327544Y-76713494D01*
X147410239Y-76658239D01*
X147465494Y-76575544D01*
X147465496Y-76575540D01*
X147479999Y-76502628D01*
X147480000Y-76502626D01*
X147480000Y-75753000D01*
X146864144Y-75753000D01*
X146880000Y-75693826D01*
X146880000Y-75562174D01*
X146869913Y-75524530D01*
X147869500Y-75524530D01*
X147869500Y-75731469D01*
X147909868Y-75934412D01*
X147909870Y-75934420D01*
X147975939Y-76093925D01*
X147989059Y-76125598D01*
X148004294Y-76148399D01*
X148104024Y-76297657D01*
X148250342Y-76443975D01*
X148250345Y-76443977D01*
X148422402Y-76558941D01*
X148613580Y-76638130D01*
X148794711Y-76674159D01*
X148816530Y-76678499D01*
X148816534Y-76678500D01*
X148816535Y-76678500D01*
X149023466Y-76678500D01*
X149023467Y-76678499D01*
X149226420Y-76638130D01*
X149417598Y-76558941D01*
X149589655Y-76443977D01*
X149735977Y-76297655D01*
X149850941Y-76125598D01*
X149930130Y-75934420D01*
X149970500Y-75731465D01*
X149970500Y-75524535D01*
X149970499Y-75524530D01*
X150409500Y-75524530D01*
X150409500Y-75731469D01*
X150449868Y-75934412D01*
X150449870Y-75934420D01*
X150515939Y-76093925D01*
X150529059Y-76125598D01*
X150544294Y-76148399D01*
X150644024Y-76297657D01*
X150790342Y-76443975D01*
X150790345Y-76443977D01*
X150962402Y-76558941D01*
X151153580Y-76638130D01*
X151334711Y-76674159D01*
X151356530Y-76678499D01*
X151356534Y-76678500D01*
X151356535Y-76678500D01*
X151563466Y-76678500D01*
X151563467Y-76678499D01*
X151766420Y-76638130D01*
X151957598Y-76558941D01*
X152129655Y-76443977D01*
X152275977Y-76297655D01*
X152390941Y-76125598D01*
X152470130Y-75934420D01*
X152510500Y-75731465D01*
X152510500Y-75524535D01*
X152510499Y-75524530D01*
X152949500Y-75524530D01*
X152949500Y-75731469D01*
X152989868Y-75934412D01*
X152989870Y-75934420D01*
X153055939Y-76093925D01*
X153069059Y-76125598D01*
X153084294Y-76148399D01*
X153184024Y-76297657D01*
X153330342Y-76443975D01*
X153330345Y-76443977D01*
X153502402Y-76558941D01*
X153693580Y-76638130D01*
X153874711Y-76674159D01*
X153896530Y-76678499D01*
X153896534Y-76678500D01*
X153896535Y-76678500D01*
X154103466Y-76678500D01*
X154103467Y-76678499D01*
X154306420Y-76638130D01*
X154497598Y-76558941D01*
X154669655Y-76443977D01*
X154815977Y-76297655D01*
X154930941Y-76125598D01*
X155010130Y-75934420D01*
X155050500Y-75731465D01*
X155050500Y-75524535D01*
X155050499Y-75524530D01*
X155489500Y-75524530D01*
X155489500Y-75731469D01*
X155529868Y-75934412D01*
X155529870Y-75934420D01*
X155595939Y-76093925D01*
X155609059Y-76125598D01*
X155624294Y-76148399D01*
X155724024Y-76297657D01*
X155870342Y-76443975D01*
X155870345Y-76443977D01*
X156042402Y-76558941D01*
X156233580Y-76638130D01*
X156414711Y-76674159D01*
X156436530Y-76678499D01*
X156436534Y-76678500D01*
X156436535Y-76678500D01*
X156643466Y-76678500D01*
X156643467Y-76678499D01*
X156846420Y-76638130D01*
X157037598Y-76558941D01*
X157209655Y-76443977D01*
X157355977Y-76297655D01*
X157470941Y-76125598D01*
X157550130Y-75934420D01*
X157590500Y-75731465D01*
X157590500Y-75524535D01*
X157590499Y-75524530D01*
X158029500Y-75524530D01*
X158029500Y-75731469D01*
X158069868Y-75934412D01*
X158069870Y-75934420D01*
X158135939Y-76093925D01*
X158149059Y-76125598D01*
X158164294Y-76148399D01*
X158264024Y-76297657D01*
X158410342Y-76443975D01*
X158410345Y-76443977D01*
X158582402Y-76558941D01*
X158773580Y-76638130D01*
X158954711Y-76674159D01*
X158976530Y-76678499D01*
X158976534Y-76678500D01*
X158976535Y-76678500D01*
X159183466Y-76678500D01*
X159183467Y-76678499D01*
X159386420Y-76638130D01*
X159577598Y-76558941D01*
X159749655Y-76443977D01*
X159895977Y-76297655D01*
X160010941Y-76125598D01*
X160090130Y-75934420D01*
X160130500Y-75731465D01*
X160130500Y-75524535D01*
X160090130Y-75321580D01*
X160010941Y-75130402D01*
X159895977Y-74958345D01*
X159895975Y-74958342D01*
X159749657Y-74812024D01*
X159613671Y-74721162D01*
X159577598Y-74697059D01*
X159537522Y-74680459D01*
X159386420Y-74617870D01*
X159386412Y-74617868D01*
X159183469Y-74577500D01*
X159183465Y-74577500D01*
X158976535Y-74577500D01*
X158976530Y-74577500D01*
X158773587Y-74617868D01*
X158773579Y-74617870D01*
X158582403Y-74697058D01*
X158410342Y-74812024D01*
X158264024Y-74958342D01*
X158149058Y-75130403D01*
X158069870Y-75321579D01*
X158069868Y-75321587D01*
X158029500Y-75524530D01*
X157590499Y-75524530D01*
X157550130Y-75321580D01*
X157470941Y-75130402D01*
X157355977Y-74958345D01*
X157355975Y-74958342D01*
X157209657Y-74812024D01*
X157073671Y-74721162D01*
X157037598Y-74697059D01*
X156997522Y-74680459D01*
X156846420Y-74617870D01*
X156846412Y-74617868D01*
X156643469Y-74577500D01*
X156643465Y-74577500D01*
X156436535Y-74577500D01*
X156436530Y-74577500D01*
X156233587Y-74617868D01*
X156233579Y-74617870D01*
X156042403Y-74697058D01*
X155870342Y-74812024D01*
X155724024Y-74958342D01*
X155609058Y-75130403D01*
X155529870Y-75321579D01*
X155529868Y-75321587D01*
X155489500Y-75524530D01*
X155050499Y-75524530D01*
X155010130Y-75321580D01*
X154930941Y-75130402D01*
X154815977Y-74958345D01*
X154815975Y-74958342D01*
X154669657Y-74812024D01*
X154533671Y-74721162D01*
X154497598Y-74697059D01*
X154457522Y-74680459D01*
X154306420Y-74617870D01*
X154306412Y-74617868D01*
X154103469Y-74577500D01*
X154103465Y-74577500D01*
X153896535Y-74577500D01*
X153896530Y-74577500D01*
X153693587Y-74617868D01*
X153693579Y-74617870D01*
X153502403Y-74697058D01*
X153330342Y-74812024D01*
X153184024Y-74958342D01*
X153069058Y-75130403D01*
X152989870Y-75321579D01*
X152989868Y-75321587D01*
X152949500Y-75524530D01*
X152510499Y-75524530D01*
X152470130Y-75321580D01*
X152390941Y-75130402D01*
X152275977Y-74958345D01*
X152275975Y-74958342D01*
X152129657Y-74812024D01*
X151993671Y-74721162D01*
X151957598Y-74697059D01*
X151917522Y-74680459D01*
X151766420Y-74617870D01*
X151766412Y-74617868D01*
X151563469Y-74577500D01*
X151563465Y-74577500D01*
X151356535Y-74577500D01*
X151356530Y-74577500D01*
X151153587Y-74617868D01*
X151153579Y-74617870D01*
X150962403Y-74697058D01*
X150790342Y-74812024D01*
X150644024Y-74958342D01*
X150529058Y-75130403D01*
X150449870Y-75321579D01*
X150449868Y-75321587D01*
X150409500Y-75524530D01*
X149970499Y-75524530D01*
X149930130Y-75321580D01*
X149850941Y-75130402D01*
X149735977Y-74958345D01*
X149735975Y-74958342D01*
X149589657Y-74812024D01*
X149453671Y-74721162D01*
X149417598Y-74697059D01*
X149377522Y-74680459D01*
X149226420Y-74617870D01*
X149226412Y-74617868D01*
X149023469Y-74577500D01*
X149023465Y-74577500D01*
X148816535Y-74577500D01*
X148816530Y-74577500D01*
X148613587Y-74617868D01*
X148613579Y-74617870D01*
X148422403Y-74697058D01*
X148250342Y-74812024D01*
X148104024Y-74958342D01*
X147989058Y-75130403D01*
X147909870Y-75321579D01*
X147909868Y-75321587D01*
X147869500Y-75524530D01*
X146869913Y-75524530D01*
X146864144Y-75503000D01*
X147480000Y-75503000D01*
X147480000Y-74753373D01*
X147479999Y-74753371D01*
X147465496Y-74680459D01*
X147465494Y-74680455D01*
X147410239Y-74597760D01*
X147327544Y-74542505D01*
X147327540Y-74542503D01*
X147254627Y-74528000D01*
X146505000Y-74528000D01*
X146505000Y-75143855D01*
X146445826Y-75128000D01*
X146314174Y-75128000D01*
X146255000Y-75143855D01*
X146255000Y-74528000D01*
X145505373Y-74528000D01*
X145432459Y-74542503D01*
X145432455Y-74542505D01*
X145349760Y-74597760D01*
X145294505Y-74680455D01*
X145294503Y-74680459D01*
X145280000Y-74753371D01*
X144421876Y-74753371D01*
X144373671Y-74721162D01*
X144337598Y-74697059D01*
X144297522Y-74680459D01*
X144146420Y-74617870D01*
X144146412Y-74617868D01*
X143943469Y-74577500D01*
X143943465Y-74577500D01*
X143736535Y-74577500D01*
X143736530Y-74577500D01*
X143533587Y-74617868D01*
X143533579Y-74617870D01*
X143342403Y-74697058D01*
X143170342Y-74812024D01*
X143024024Y-74958342D01*
X142909058Y-75130403D01*
X142829870Y-75321579D01*
X142829868Y-75321587D01*
X142789500Y-75524530D01*
X142789500Y-75731469D01*
X142829868Y-75934412D01*
X142829871Y-75934424D01*
X142879803Y-76054971D01*
X142887272Y-76124440D01*
X142855997Y-76186919D01*
X142852923Y-76190104D01*
X132615489Y-86427540D01*
X132559541Y-86483487D01*
X132559535Y-86483495D01*
X132519982Y-86552004D01*
X132519979Y-86552009D01*
X132499500Y-86628439D01*
X132499500Y-112270613D01*
X132479815Y-112337652D01*
X132463182Y-112358294D01*
X132359488Y-112461988D01*
X132287017Y-112587511D01*
X132287016Y-112587515D01*
X132249500Y-112727525D01*
X131600500Y-112727525D01*
X131600500Y-85803832D01*
X131620185Y-85736793D01*
X131636814Y-85716156D01*
X140737896Y-76615073D01*
X140799217Y-76581590D01*
X140868909Y-76586574D01*
X140873007Y-76588186D01*
X140993580Y-76638130D01*
X141174711Y-76674159D01*
X141196530Y-76678499D01*
X141196534Y-76678500D01*
X141196535Y-76678500D01*
X141403466Y-76678500D01*
X141403467Y-76678499D01*
X141606420Y-76638130D01*
X141797598Y-76558941D01*
X141969655Y-76443977D01*
X142115977Y-76297655D01*
X142230941Y-76125598D01*
X142310130Y-75934420D01*
X142350500Y-75731465D01*
X142350500Y-75524535D01*
X142310130Y-75321580D01*
X142230941Y-75130402D01*
X142115977Y-74958345D01*
X142115975Y-74958342D01*
X141969657Y-74812024D01*
X141833671Y-74721162D01*
X141797598Y-74697059D01*
X141757522Y-74680459D01*
X141606420Y-74617870D01*
X141606412Y-74617868D01*
X141403469Y-74577500D01*
X141403465Y-74577500D01*
X141196535Y-74577500D01*
X141196530Y-74577500D01*
X140993587Y-74617868D01*
X140993579Y-74617870D01*
X140802403Y-74697058D01*
X140630342Y-74812024D01*
X140484024Y-74958342D01*
X140369058Y-75130403D01*
X140289870Y-75321579D01*
X140289868Y-75321587D01*
X140249500Y-75524530D01*
X140249500Y-75731469D01*
X140289868Y-75934412D01*
X140289871Y-75934424D01*
X140339803Y-76054971D01*
X140347272Y-76124440D01*
X140315997Y-76186919D01*
X140312923Y-76190104D01*
X131115489Y-85387540D01*
X131059541Y-85443487D01*
X131059535Y-85443495D01*
X131019982Y-85512004D01*
X131019979Y-85512009D01*
X130999500Y-85588439D01*
X130999500Y-113070613D01*
X130979815Y-113137652D01*
X130963182Y-113158294D01*
X130859488Y-113261988D01*
X130787017Y-113387511D01*
X130787016Y-113387515D01*
X130749500Y-113527525D01*
X130100500Y-113527525D01*
X130100500Y-84763832D01*
X130120185Y-84696793D01*
X130136814Y-84676156D01*
X138197896Y-76615073D01*
X138259217Y-76581590D01*
X138328909Y-76586574D01*
X138333007Y-76588186D01*
X138453580Y-76638130D01*
X138634711Y-76674159D01*
X138656530Y-76678499D01*
X138656534Y-76678500D01*
X138656535Y-76678500D01*
X138863466Y-76678500D01*
X138863467Y-76678499D01*
X139066420Y-76638130D01*
X139257598Y-76558941D01*
X139429655Y-76443977D01*
X139575977Y-76297655D01*
X139690941Y-76125598D01*
X139770130Y-75934420D01*
X139810500Y-75731465D01*
X139810500Y-75524535D01*
X139770130Y-75321580D01*
X139690941Y-75130402D01*
X139575977Y-74958345D01*
X139575975Y-74958342D01*
X139429657Y-74812024D01*
X139293671Y-74721162D01*
X139257598Y-74697059D01*
X139217522Y-74680459D01*
X139066420Y-74617870D01*
X139066412Y-74617868D01*
X138863469Y-74577500D01*
X138863465Y-74577500D01*
X138656535Y-74577500D01*
X138656530Y-74577500D01*
X138453587Y-74617868D01*
X138453579Y-74617870D01*
X138262403Y-74697058D01*
X138090342Y-74812024D01*
X137944024Y-74958342D01*
X137829058Y-75130403D01*
X137749870Y-75321579D01*
X137749868Y-75321587D01*
X137709500Y-75524530D01*
X137709500Y-75731469D01*
X137749868Y-75934412D01*
X137749871Y-75934424D01*
X137799803Y-76054971D01*
X137807272Y-76124440D01*
X137775997Y-76186919D01*
X137772923Y-76190104D01*
X129615489Y-84347540D01*
X129559541Y-84403487D01*
X129559535Y-84403495D01*
X129519982Y-84472004D01*
X129519979Y-84472009D01*
X129499500Y-84548439D01*
X129499500Y-113870613D01*
X129479815Y-113937652D01*
X129463182Y-113958294D01*
X129359488Y-114061988D01*
X129287017Y-114187511D01*
X129287016Y-114187515D01*
X129249500Y-114327525D01*
X128000500Y-114327525D01*
X128000500Y-104347273D01*
X128000500Y-92347273D01*
X128000500Y-79524500D01*
X128020185Y-79457461D01*
X128072989Y-79411706D01*
X128124500Y-79400500D01*
X132900725Y-79400500D01*
X132900727Y-79400500D01*
X133002588Y-79373207D01*
X133093913Y-79320480D01*
X135757896Y-76656495D01*
X135819217Y-76623012D01*
X135888909Y-76627996D01*
X135893027Y-76629617D01*
X135913575Y-76638128D01*
X135913580Y-76638130D01*
X136094711Y-76674159D01*
X136116530Y-76678499D01*
X136116534Y-76678500D01*
X136116535Y-76678500D01*
X136323466Y-76678500D01*
X136323467Y-76678499D01*
X136526420Y-76638130D01*
X136717598Y-76558941D01*
X136889655Y-76443977D01*
X137035977Y-76297655D01*
X137150941Y-76125598D01*
X137230130Y-75934420D01*
X137270500Y-75731465D01*
X137270500Y-75524535D01*
X137230130Y-75321580D01*
X137150941Y-75130402D01*
X137035977Y-74958345D01*
X137035975Y-74958342D01*
X136889657Y-74812024D01*
X136753671Y-74721162D01*
X136717598Y-74697059D01*
X136677522Y-74680459D01*
X136526420Y-74617870D01*
X136526412Y-74617868D01*
X136323469Y-74577500D01*
X136323465Y-74577500D01*
X136116535Y-74577500D01*
X136116530Y-74577500D01*
X135913587Y-74617868D01*
X135913579Y-74617870D01*
X135722403Y-74697058D01*
X135550342Y-74812024D01*
X135404024Y-74958342D01*
X135289058Y-75130403D01*
X135209870Y-75321579D01*
X135209868Y-75321587D01*
X135169500Y-75524530D01*
X135169500Y-75731469D01*
X135209868Y-75934412D01*
X135209870Y-75934420D01*
X135218382Y-75954969D01*
X135225851Y-76024438D01*
X135194576Y-76086917D01*
X135191502Y-76090103D01*
X132718426Y-78563181D01*
X132657103Y-78596666D01*
X132630745Y-78599500D01*
X119417254Y-78599500D01*
X119350215Y-78579815D01*
X119329573Y-78563181D01*
X116907409Y-76141016D01*
X116873924Y-76079693D01*
X116878908Y-76010001D01*
X116880529Y-76005882D01*
X116910130Y-75934420D01*
X116950500Y-75731465D01*
X116950500Y-75524535D01*
X116950499Y-75524530D01*
X117389500Y-75524530D01*
X117389500Y-75731469D01*
X117429868Y-75934412D01*
X117429870Y-75934420D01*
X117495939Y-76093925D01*
X117509059Y-76125598D01*
X117524294Y-76148399D01*
X117624024Y-76297657D01*
X117770342Y-76443975D01*
X117770345Y-76443977D01*
X117942402Y-76558941D01*
X118133580Y-76638130D01*
X118314711Y-76674159D01*
X118336530Y-76678499D01*
X118336534Y-76678500D01*
X118336535Y-76678500D01*
X118543466Y-76678500D01*
X118543467Y-76678499D01*
X118746420Y-76638130D01*
X118937598Y-76558941D01*
X119109655Y-76443977D01*
X119255977Y-76297655D01*
X119370941Y-76125598D01*
X119450130Y-75934420D01*
X119490500Y-75731465D01*
X119490500Y-75524535D01*
X119490499Y-75524530D01*
X119929500Y-75524530D01*
X119929500Y-75731469D01*
X119969868Y-75934412D01*
X119969870Y-75934420D01*
X120035939Y-76093925D01*
X120049059Y-76125598D01*
X120064294Y-76148399D01*
X120164024Y-76297657D01*
X120310342Y-76443975D01*
X120310345Y-76443977D01*
X120482402Y-76558941D01*
X120673580Y-76638130D01*
X120854711Y-76674159D01*
X120876530Y-76678499D01*
X120876534Y-76678500D01*
X120876535Y-76678500D01*
X121083466Y-76678500D01*
X121083467Y-76678499D01*
X121286420Y-76638130D01*
X121477598Y-76558941D01*
X121649655Y-76443977D01*
X121795977Y-76297655D01*
X121910941Y-76125598D01*
X121990130Y-75934420D01*
X122030500Y-75731465D01*
X122030500Y-75524535D01*
X122030499Y-75524530D01*
X122469500Y-75524530D01*
X122469500Y-75731469D01*
X122509868Y-75934412D01*
X122509870Y-75934420D01*
X122575939Y-76093925D01*
X122589059Y-76125598D01*
X122604294Y-76148399D01*
X122704024Y-76297657D01*
X122850342Y-76443975D01*
X122850345Y-76443977D01*
X123022402Y-76558941D01*
X123213580Y-76638130D01*
X123394711Y-76674159D01*
X123416530Y-76678499D01*
X123416534Y-76678500D01*
X123416535Y-76678500D01*
X123623466Y-76678500D01*
X123623467Y-76678499D01*
X123826420Y-76638130D01*
X124017598Y-76558941D01*
X124189655Y-76443977D01*
X124335977Y-76297655D01*
X124450941Y-76125598D01*
X124530130Y-75934420D01*
X124570500Y-75731465D01*
X124570500Y-75524535D01*
X124530130Y-75321580D01*
X124450941Y-75130402D01*
X124335977Y-74958345D01*
X124335975Y-74958342D01*
X124189657Y-74812024D01*
X124101876Y-74753371D01*
X124960000Y-74753371D01*
X124960000Y-75503000D01*
X125575856Y-75503000D01*
X125560000Y-75562174D01*
X125560000Y-75693826D01*
X125575856Y-75753000D01*
X124960000Y-75753000D01*
X124960000Y-76502628D01*
X124974503Y-76575540D01*
X124974505Y-76575544D01*
X125029760Y-76658239D01*
X125112455Y-76713494D01*
X125112459Y-76713496D01*
X125185371Y-76727999D01*
X125185374Y-76728000D01*
X125935000Y-76728000D01*
X125935000Y-76112144D01*
X125994174Y-76128000D01*
X126125826Y-76128000D01*
X126185000Y-76112144D01*
X126185000Y-76728000D01*
X126934626Y-76728000D01*
X126934628Y-76727999D01*
X127007540Y-76713496D01*
X127007544Y-76713494D01*
X127090239Y-76658239D01*
X127145494Y-76575544D01*
X127145496Y-76575540D01*
X127159999Y-76502628D01*
X127160000Y-76502626D01*
X127160000Y-75753000D01*
X126544144Y-75753000D01*
X126560000Y-75693826D01*
X126560000Y-75562174D01*
X126549913Y-75524530D01*
X127549500Y-75524530D01*
X127549500Y-75731469D01*
X127589868Y-75934412D01*
X127589870Y-75934420D01*
X127655939Y-76093925D01*
X127669059Y-76125598D01*
X127684294Y-76148399D01*
X127784024Y-76297657D01*
X127930342Y-76443975D01*
X127930345Y-76443977D01*
X128102402Y-76558941D01*
X128293580Y-76638130D01*
X128474711Y-76674159D01*
X128496530Y-76678499D01*
X128496534Y-76678500D01*
X128496535Y-76678500D01*
X128703466Y-76678500D01*
X128703467Y-76678499D01*
X128906420Y-76638130D01*
X129097598Y-76558941D01*
X129269655Y-76443977D01*
X129415977Y-76297655D01*
X129530941Y-76125598D01*
X129610130Y-75934420D01*
X129650500Y-75731465D01*
X129650500Y-75524535D01*
X129650499Y-75524530D01*
X130089500Y-75524530D01*
X130089500Y-75731469D01*
X130129868Y-75934412D01*
X130129870Y-75934420D01*
X130195939Y-76093925D01*
X130209059Y-76125598D01*
X130224294Y-76148399D01*
X130324024Y-76297657D01*
X130470342Y-76443975D01*
X130470345Y-76443977D01*
X130642402Y-76558941D01*
X130833580Y-76638130D01*
X131014711Y-76674159D01*
X131036530Y-76678499D01*
X131036534Y-76678500D01*
X131036535Y-76678500D01*
X131243466Y-76678500D01*
X131243467Y-76678499D01*
X131446420Y-76638130D01*
X131637598Y-76558941D01*
X131809655Y-76443977D01*
X131955977Y-76297655D01*
X132070941Y-76125598D01*
X132150130Y-75934420D01*
X132190500Y-75731465D01*
X132190500Y-75524535D01*
X132190499Y-75524530D01*
X132629500Y-75524530D01*
X132629500Y-75731469D01*
X132669868Y-75934412D01*
X132669870Y-75934420D01*
X132735939Y-76093925D01*
X132749059Y-76125598D01*
X132764294Y-76148399D01*
X132864024Y-76297657D01*
X133010342Y-76443975D01*
X133010345Y-76443977D01*
X133182402Y-76558941D01*
X133373580Y-76638130D01*
X133554711Y-76674159D01*
X133576530Y-76678499D01*
X133576534Y-76678500D01*
X133576535Y-76678500D01*
X133783466Y-76678500D01*
X133783467Y-76678499D01*
X133986420Y-76638130D01*
X134177598Y-76558941D01*
X134349655Y-76443977D01*
X134495977Y-76297655D01*
X134610941Y-76125598D01*
X134690130Y-75934420D01*
X134730500Y-75731465D01*
X134730500Y-75524535D01*
X134690130Y-75321580D01*
X134610941Y-75130402D01*
X134495977Y-74958345D01*
X134495975Y-74958342D01*
X134349657Y-74812024D01*
X134213671Y-74721162D01*
X134177598Y-74697059D01*
X134137522Y-74680459D01*
X133986420Y-74617870D01*
X133986412Y-74617868D01*
X133783469Y-74577500D01*
X133783465Y-74577500D01*
X133576535Y-74577500D01*
X133576530Y-74577500D01*
X133373587Y-74617868D01*
X133373579Y-74617870D01*
X133182403Y-74697058D01*
X133010342Y-74812024D01*
X132864024Y-74958342D01*
X132749058Y-75130403D01*
X132669870Y-75321579D01*
X132669868Y-75321587D01*
X132629500Y-75524530D01*
X132190499Y-75524530D01*
X132150130Y-75321580D01*
X132070941Y-75130402D01*
X131955977Y-74958345D01*
X131955975Y-74958342D01*
X131809657Y-74812024D01*
X131673671Y-74721162D01*
X131637598Y-74697059D01*
X131597522Y-74680459D01*
X131446420Y-74617870D01*
X131446412Y-74617868D01*
X131243469Y-74577500D01*
X131243465Y-74577500D01*
X131036535Y-74577500D01*
X131036530Y-74577500D01*
X130833587Y-74617868D01*
X130833579Y-74617870D01*
X130642403Y-74697058D01*
X130470342Y-74812024D01*
X130324024Y-74958342D01*
X130209058Y-75130403D01*
X130129870Y-75321579D01*
X130129868Y-75321587D01*
X130089500Y-75524530D01*
X129650499Y-75524530D01*
X129610130Y-75321580D01*
X129530941Y-75130402D01*
X129415977Y-74958345D01*
X129415975Y-74958342D01*
X129269657Y-74812024D01*
X129133671Y-74721162D01*
X129097598Y-74697059D01*
X129057522Y-74680459D01*
X128906420Y-74617870D01*
X128906412Y-74617868D01*
X128703469Y-74577500D01*
X128703465Y-74577500D01*
X128496535Y-74577500D01*
X128496530Y-74577500D01*
X128293587Y-74617868D01*
X128293579Y-74617870D01*
X128102403Y-74697058D01*
X127930342Y-74812024D01*
X127784024Y-74958342D01*
X127669058Y-75130403D01*
X127589870Y-75321579D01*
X127589868Y-75321587D01*
X127549500Y-75524530D01*
X126549913Y-75524530D01*
X126544144Y-75503000D01*
X127160000Y-75503000D01*
X127160000Y-74753373D01*
X127159999Y-74753371D01*
X127145496Y-74680459D01*
X127145494Y-74680455D01*
X127090239Y-74597760D01*
X127007544Y-74542505D01*
X127007540Y-74542503D01*
X126934627Y-74528000D01*
X126185000Y-74528000D01*
X126185000Y-75143855D01*
X126125826Y-75128000D01*
X125994174Y-75128000D01*
X125935000Y-75143855D01*
X125935000Y-74528000D01*
X125185373Y-74528000D01*
X125112459Y-74542503D01*
X125112455Y-74542505D01*
X125029760Y-74597760D01*
X124974505Y-74680455D01*
X124974503Y-74680459D01*
X124960000Y-74753371D01*
X124101876Y-74753371D01*
X124053671Y-74721162D01*
X124017598Y-74697059D01*
X123977522Y-74680459D01*
X123826420Y-74617870D01*
X123826412Y-74617868D01*
X123623469Y-74577500D01*
X123623465Y-74577500D01*
X123416535Y-74577500D01*
X123416530Y-74577500D01*
X123213587Y-74617868D01*
X123213579Y-74617870D01*
X123022403Y-74697058D01*
X122850342Y-74812024D01*
X122704024Y-74958342D01*
X122589058Y-75130403D01*
X122509870Y-75321579D01*
X122509868Y-75321587D01*
X122469500Y-75524530D01*
X122030499Y-75524530D01*
X121990130Y-75321580D01*
X121910941Y-75130402D01*
X121795977Y-74958345D01*
X121795975Y-74958342D01*
X121649657Y-74812024D01*
X121513671Y-74721162D01*
X121477598Y-74697059D01*
X121437522Y-74680459D01*
X121286420Y-74617870D01*
X121286412Y-74617868D01*
X121083469Y-74577500D01*
X121083465Y-74577500D01*
X120876535Y-74577500D01*
X120876530Y-74577500D01*
X120673587Y-74617868D01*
X120673579Y-74617870D01*
X120482403Y-74697058D01*
X120310342Y-74812024D01*
X120164024Y-74958342D01*
X120049058Y-75130403D01*
X119969870Y-75321579D01*
X119969868Y-75321587D01*
X119929500Y-75524530D01*
X119490499Y-75524530D01*
X119450130Y-75321580D01*
X119370941Y-75130402D01*
X119255977Y-74958345D01*
X119255975Y-74958342D01*
X119109657Y-74812024D01*
X118973671Y-74721162D01*
X118937598Y-74697059D01*
X118897522Y-74680459D01*
X118746420Y-74617870D01*
X118746412Y-74617868D01*
X118543469Y-74577500D01*
X118543465Y-74577500D01*
X118336535Y-74577500D01*
X118336530Y-74577500D01*
X118133587Y-74617868D01*
X118133579Y-74617870D01*
X117942403Y-74697058D01*
X117770342Y-74812024D01*
X117624024Y-74958342D01*
X117509058Y-75130403D01*
X117429870Y-75321579D01*
X117429868Y-75321587D01*
X117389500Y-75524530D01*
X116950499Y-75524530D01*
X116910130Y-75321580D01*
X116830941Y-75130402D01*
X116715977Y-74958345D01*
X116715975Y-74958342D01*
X116569657Y-74812024D01*
X116433671Y-74721162D01*
X116397598Y-74697059D01*
X116357522Y-74680459D01*
X116206420Y-74617870D01*
X116206412Y-74617868D01*
X116003469Y-74577500D01*
X116003465Y-74577500D01*
X115796535Y-74577500D01*
X115796530Y-74577500D01*
X115593587Y-74617868D01*
X115593579Y-74617870D01*
X115402403Y-74697058D01*
X115230342Y-74812024D01*
X115084024Y-74958342D01*
X114969058Y-75130403D01*
X114889870Y-75321579D01*
X114889868Y-75321587D01*
X114849500Y-75524530D01*
X114849500Y-75731469D01*
X114889868Y-75934412D01*
X114889870Y-75934420D01*
X114955939Y-76093925D01*
X114969059Y-76125598D01*
X114984294Y-76148399D01*
X115084024Y-76297657D01*
X115230342Y-76443975D01*
X115230345Y-76443977D01*
X115402402Y-76558941D01*
X115593580Y-76638130D01*
X115774711Y-76674159D01*
X115796530Y-76678499D01*
X115796534Y-76678500D01*
X115796535Y-76678500D01*
X116003466Y-76678500D01*
X116003466Y-76678499D01*
X116195896Y-76640223D01*
X116265486Y-76646450D01*
X116307767Y-76674159D01*
X118879518Y-79245910D01*
X118879520Y-79245913D01*
X118954087Y-79320480D01*
X118999750Y-79346843D01*
X119045412Y-79373207D01*
X119147273Y-79400501D01*
X119147276Y-79400501D01*
X119260323Y-79400501D01*
X119260339Y-79400500D01*
X127075500Y-79400500D01*
X127142539Y-79420185D01*
X127188294Y-79472989D01*
X127199500Y-79524500D01*
X127199500Y-91875500D01*
X127179815Y-91942539D01*
X127127011Y-91988294D01*
X127075500Y-91999500D01*
X124906297Y-91999500D01*
X124839258Y-91979815D01*
X124837406Y-91978602D01*
X124741642Y-91914614D01*
X124665657Y-91899500D01*
X124665654Y-91899500D01*
X122734346Y-91899500D01*
X122734343Y-91899500D01*
X122658358Y-91914614D01*
X122658357Y-91914614D01*
X122572190Y-91972190D01*
X122514614Y-92058357D01*
X122514614Y-92058358D01*
X122499500Y-92134341D01*
X122499500Y-92321614D01*
X122479815Y-92388653D01*
X122427011Y-92434408D01*
X122357853Y-92444352D01*
X122294297Y-92415327D01*
X122287819Y-92409295D01*
X122238017Y-92359493D01*
X122238011Y-92359488D01*
X122112488Y-92287017D01*
X122112489Y-92287017D01*
X122101006Y-92283940D01*
X121972475Y-92249500D01*
X121827525Y-92249500D01*
X121698993Y-92283940D01*
X121687511Y-92287017D01*
X121561988Y-92359488D01*
X121561982Y-92359493D01*
X121458295Y-92463181D01*
X121396972Y-92496666D01*
X121370614Y-92499500D01*
X120072630Y-92499500D01*
X120005591Y-92479815D01*
X119959836Y-92427011D01*
X119949892Y-92357853D01*
X119978917Y-92294297D01*
X120025177Y-92260939D01*
X120029910Y-92258978D01*
X120097598Y-92230941D01*
X120269655Y-92115977D01*
X120415977Y-91969655D01*
X120530941Y-91797598D01*
X120610130Y-91606420D01*
X120650500Y-91403465D01*
X120650500Y-91196535D01*
X120610130Y-90993580D01*
X120530941Y-90802402D01*
X120415977Y-90630345D01*
X120415975Y-90630342D01*
X120269657Y-90484024D01*
X120183626Y-90426541D01*
X120097598Y-90369059D01*
X120047928Y-90348485D01*
X119906420Y-90289870D01*
X119906412Y-90289868D01*
X119703469Y-90249500D01*
X119703465Y-90249500D01*
X119496535Y-90249500D01*
X119496530Y-90249500D01*
X119293587Y-90289868D01*
X119293580Y-90289870D01*
X119279502Y-90295701D01*
X119210032Y-90303167D01*
X119147554Y-90271890D01*
X119111904Y-90211800D01*
X119114400Y-90141975D01*
X119144370Y-90093459D01*
X121301011Y-87936819D01*
X121362334Y-87903334D01*
X121388692Y-87900500D01*
X125670614Y-87900500D01*
X125737653Y-87920185D01*
X125758295Y-87936819D01*
X125759491Y-87938015D01*
X125861985Y-88040509D01*
X125861986Y-88040510D01*
X125861988Y-88040511D01*
X125987511Y-88112982D01*
X125987512Y-88112982D01*
X125987515Y-88112984D01*
X126127525Y-88150500D01*
X126127528Y-88150500D01*
X126272472Y-88150500D01*
X126272475Y-88150500D01*
X126412485Y-88112984D01*
X126538015Y-88040509D01*
X126640509Y-87938015D01*
X126712984Y-87812485D01*
X126750500Y-87672475D01*
X126750500Y-87527525D01*
X126712984Y-87387515D01*
X126673991Y-87319978D01*
X126640511Y-87261988D01*
X126640506Y-87261982D01*
X126538017Y-87159493D01*
X126538011Y-87159488D01*
X126412488Y-87087017D01*
X126412489Y-87087017D01*
X126401006Y-87083940D01*
X126272475Y-87049500D01*
X126127525Y-87049500D01*
X125998993Y-87083940D01*
X125987511Y-87087017D01*
X125861988Y-87159488D01*
X125861982Y-87159493D01*
X125758295Y-87263181D01*
X125696972Y-87296666D01*
X125670614Y-87299500D01*
X121173297Y-87299500D01*
X121096869Y-87319978D01*
X121028348Y-87359540D01*
X121028345Y-87359542D01*
X118161681Y-90226206D01*
X118100358Y-90259691D01*
X118030666Y-90254707D01*
X117974733Y-90212835D01*
X117950316Y-90147371D01*
X117950000Y-90138525D01*
X117950000Y-89225000D01*
X116225000Y-89225000D01*
X116225000Y-90500000D01*
X117588525Y-90500000D01*
X117655564Y-90519685D01*
X117701319Y-90572489D01*
X117711263Y-90641647D01*
X117682238Y-90705203D01*
X117676206Y-90711681D01*
X116809434Y-91578452D01*
X116748111Y-91611937D01*
X116678419Y-91606953D01*
X116634072Y-91578452D01*
X116627810Y-91572190D01*
X116541642Y-91514614D01*
X116465657Y-91499500D01*
X116465654Y-91499500D01*
X114534346Y-91499500D01*
X114534343Y-91499500D01*
X114458358Y-91514614D01*
X114458357Y-91514614D01*
X114372190Y-91572190D01*
X114314614Y-91658357D01*
X114314614Y-91658358D01*
X114299500Y-91734341D01*
X114299500Y-92265658D01*
X114314614Y-92341641D01*
X114319133Y-92352552D01*
X114326599Y-92422021D01*
X114319133Y-92447448D01*
X114314614Y-92458358D01*
X114299500Y-92534341D01*
X114299500Y-93065658D01*
X114314614Y-93141641D01*
X114319133Y-93152552D01*
X114326599Y-93222021D01*
X114319133Y-93247448D01*
X114314614Y-93258358D01*
X114299500Y-93334341D01*
X114299500Y-93865658D01*
X114314614Y-93941641D01*
X114319133Y-93952552D01*
X114326599Y-94022021D01*
X114319133Y-94047448D01*
X114314614Y-94058358D01*
X114299500Y-94134341D01*
X114299500Y-94665653D01*
X114307879Y-94707780D01*
X114306554Y-94722582D01*
X114310159Y-94736998D01*
X114303724Y-94771700D01*
X114250000Y-94930535D01*
X113000500Y-94930535D01*
X113000500Y-91184108D01*
X113000500Y-91142682D01*
X112969954Y-90930231D01*
X112909484Y-90724290D01*
X112909483Y-90724288D01*
X112909482Y-90724284D01*
X112820327Y-90529061D01*
X112820320Y-90529048D01*
X112756819Y-90430239D01*
X112704281Y-90348487D01*
X112653487Y-90289868D01*
X112640282Y-90274628D01*
X114250000Y-90274628D01*
X114264503Y-90347540D01*
X114264505Y-90347544D01*
X114319760Y-90430239D01*
X114402455Y-90485494D01*
X114402459Y-90485496D01*
X114475371Y-90499999D01*
X114475374Y-90500000D01*
X115975000Y-90500000D01*
X115975000Y-89225000D01*
X114250000Y-89225000D01*
X114250000Y-90274628D01*
X112640282Y-90274628D01*
X112563724Y-90186275D01*
X112401514Y-90045720D01*
X112401513Y-90045719D01*
X112336991Y-90004253D01*
X112220951Y-89929679D01*
X112220938Y-89929672D01*
X112025715Y-89840517D01*
X111819774Y-89780047D01*
X111819764Y-89780044D01*
X111628754Y-89752582D01*
X111607318Y-89749500D01*
X111607317Y-89749500D01*
X108506962Y-89749500D01*
X108493078Y-89748720D01*
X108480553Y-89747308D01*
X108402735Y-89738540D01*
X108375666Y-89732362D01*
X108296462Y-89704648D01*
X108271444Y-89692600D01*
X108200395Y-89647957D01*
X108178686Y-89630644D01*
X108119355Y-89571313D01*
X108102042Y-89549604D01*
X108057399Y-89478555D01*
X108045351Y-89453537D01*
X108017637Y-89374333D01*
X108011459Y-89347263D01*
X108007656Y-89313514D01*
X108001280Y-89256922D01*
X108000500Y-89243038D01*
X108000500Y-87925371D01*
X114250000Y-87925371D01*
X114250000Y-88975000D01*
X115975000Y-88975000D01*
X116225000Y-88975000D01*
X117950000Y-88975000D01*
X117950000Y-87925373D01*
X117949999Y-87925371D01*
X117935496Y-87852459D01*
X117935494Y-87852455D01*
X117880239Y-87769760D01*
X117797544Y-87714505D01*
X117797540Y-87714503D01*
X117724627Y-87700000D01*
X116225000Y-87700000D01*
X116225000Y-88975000D01*
X115975000Y-88975000D01*
X115975000Y-87700000D01*
X114475373Y-87700000D01*
X114402459Y-87714503D01*
X114402455Y-87714505D01*
X114319760Y-87769760D01*
X114264505Y-87852455D01*
X114264503Y-87852459D01*
X114250000Y-87925371D01*
X108000500Y-87925371D01*
X108000500Y-74118872D01*
X108999499Y-74118872D01*
X108999499Y-74381127D01*
X109028008Y-74597662D01*
X109033729Y-74641116D01*
X109101601Y-74894420D01*
X109101604Y-74894427D01*
X109201954Y-75136693D01*
X109201959Y-75136704D01*
X109333071Y-75363795D01*
X109333082Y-75363811D01*
X109492715Y-75571850D01*
X109492721Y-75571857D01*
X109678142Y-75757278D01*
X109678148Y-75757283D01*
X109886197Y-75916924D01*
X109886204Y-75916928D01*
X110113295Y-76048040D01*
X110113300Y-76048042D01*
X110113303Y-76048044D01*
X110355580Y-76148399D01*
X110608884Y-76216271D01*
X110868880Y-76250501D01*
X110868887Y-76250501D01*
X111131113Y-76250501D01*
X111131120Y-76250501D01*
X111391116Y-76216271D01*
X111644420Y-76148399D01*
X111886697Y-76048044D01*
X112113803Y-75916924D01*
X112321852Y-75757283D01*
X112507283Y-75571852D01*
X112666924Y-75363803D01*
X112798044Y-75136697D01*
X112898399Y-74894420D01*
X112966271Y-74641116D01*
X113000501Y-74381120D01*
X113000501Y-74118880D01*
X112966271Y-73858884D01*
X112898399Y-73605580D01*
X112798044Y-73363303D01*
X112798042Y-73363300D01*
X112798040Y-73363295D01*
X112666928Y-73136204D01*
X112666924Y-73136197D01*
X112603798Y-73053929D01*
X112550546Y-72984530D01*
X114849500Y-72984530D01*
X114849500Y-73191469D01*
X114889868Y-73394412D01*
X114889870Y-73394420D01*
X114955939Y-73553925D01*
X114969059Y-73585598D01*
X115010032Y-73646919D01*
X115084024Y-73757657D01*
X115230342Y-73903975D01*
X115230345Y-73903977D01*
X115402402Y-74018941D01*
X115593580Y-74098130D01*
X115796530Y-74138499D01*
X115796534Y-74138500D01*
X115796535Y-74138500D01*
X116003466Y-74138500D01*
X116003467Y-74138499D01*
X116206420Y-74098130D01*
X116397598Y-74018941D01*
X116569655Y-73903977D01*
X116715977Y-73757655D01*
X116830941Y-73585598D01*
X116910130Y-73394420D01*
X116950500Y-73191465D01*
X116950500Y-72984535D01*
X116950499Y-72984530D01*
X117389500Y-72984530D01*
X117389500Y-73191469D01*
X117429868Y-73394412D01*
X117429870Y-73394420D01*
X117495939Y-73553925D01*
X117509059Y-73585598D01*
X117550032Y-73646919D01*
X117624024Y-73757657D01*
X117770342Y-73903975D01*
X117770345Y-73903977D01*
X117942402Y-74018941D01*
X118133580Y-74098130D01*
X118336530Y-74138499D01*
X118336534Y-74138500D01*
X118336535Y-74138500D01*
X118543466Y-74138500D01*
X118543467Y-74138499D01*
X118746420Y-74098130D01*
X118937598Y-74018941D01*
X119109655Y-73903977D01*
X119255977Y-73757655D01*
X119370941Y-73585598D01*
X119450130Y-73394420D01*
X119490500Y-73191465D01*
X119490500Y-72984535D01*
X119450130Y-72781580D01*
X119370941Y-72590402D01*
X119255977Y-72418345D01*
X119255975Y-72418342D01*
X119109657Y-72272024D01*
X119021875Y-72213371D01*
X119880000Y-72213371D01*
X119880000Y-72963000D01*
X120495856Y-72963000D01*
X120480000Y-73022174D01*
X120480000Y-73153826D01*
X120495856Y-73213000D01*
X119880000Y-73213000D01*
X119880000Y-73962628D01*
X119894503Y-74035540D01*
X119894505Y-74035544D01*
X119949760Y-74118239D01*
X120032455Y-74173494D01*
X120032459Y-74173496D01*
X120105371Y-74187999D01*
X120105374Y-74188000D01*
X120855000Y-74188000D01*
X120855000Y-73572144D01*
X120914174Y-73588000D01*
X121045826Y-73588000D01*
X121105000Y-73572144D01*
X121105000Y-74188000D01*
X121854626Y-74188000D01*
X121854628Y-74187999D01*
X121927540Y-74173496D01*
X121927544Y-74173494D01*
X122010239Y-74118239D01*
X122065494Y-74035544D01*
X122065496Y-74035540D01*
X122079999Y-73962628D01*
X122080000Y-73962626D01*
X122080000Y-73213000D01*
X121464144Y-73213000D01*
X121480000Y-73153826D01*
X121480000Y-73022174D01*
X121469913Y-72984530D01*
X122469500Y-72984530D01*
X122469500Y-73191469D01*
X122509868Y-73394412D01*
X122509870Y-73394420D01*
X122575939Y-73553925D01*
X122589059Y-73585598D01*
X122630032Y-73646919D01*
X122704024Y-73757657D01*
X122850342Y-73903975D01*
X122850345Y-73903977D01*
X123022402Y-74018941D01*
X123213580Y-74098130D01*
X123416530Y-74138499D01*
X123416534Y-74138500D01*
X123416535Y-74138500D01*
X123623466Y-74138500D01*
X123623467Y-74138499D01*
X123826420Y-74098130D01*
X124017598Y-74018941D01*
X124189655Y-73903977D01*
X124335977Y-73757655D01*
X124450941Y-73585598D01*
X124530130Y-73394420D01*
X124570500Y-73191465D01*
X124570500Y-72984535D01*
X124570499Y-72984530D01*
X125009500Y-72984530D01*
X125009500Y-73191469D01*
X125049868Y-73394412D01*
X125049870Y-73394420D01*
X125115939Y-73553925D01*
X125129059Y-73585598D01*
X125170032Y-73646919D01*
X125244024Y-73757657D01*
X125390342Y-73903975D01*
X125390345Y-73903977D01*
X125562402Y-74018941D01*
X125753580Y-74098130D01*
X125956530Y-74138499D01*
X125956534Y-74138500D01*
X125956535Y-74138500D01*
X126163466Y-74138500D01*
X126163467Y-74138499D01*
X126366420Y-74098130D01*
X126557598Y-74018941D01*
X126729655Y-73903977D01*
X126875977Y-73757655D01*
X126990941Y-73585598D01*
X127070130Y-73394420D01*
X127110500Y-73191465D01*
X127110500Y-72984535D01*
X127110499Y-72984530D01*
X127549500Y-72984530D01*
X127549500Y-73191469D01*
X127589868Y-73394412D01*
X127589870Y-73394420D01*
X127655939Y-73553925D01*
X127669059Y-73585598D01*
X127710032Y-73646919D01*
X127784024Y-73757657D01*
X127930342Y-73903975D01*
X127930345Y-73903977D01*
X128102402Y-74018941D01*
X128293580Y-74098130D01*
X128496530Y-74138499D01*
X128496534Y-74138500D01*
X128496535Y-74138500D01*
X128703466Y-74138500D01*
X128703467Y-74138499D01*
X128906420Y-74098130D01*
X129097598Y-74018941D01*
X129269655Y-73903977D01*
X129415977Y-73757655D01*
X129530941Y-73585598D01*
X129610130Y-73394420D01*
X129650500Y-73191465D01*
X129650500Y-72984535D01*
X129610130Y-72781580D01*
X129530941Y-72590402D01*
X129415977Y-72418345D01*
X129415975Y-72418342D01*
X129269657Y-72272024D01*
X129181875Y-72213371D01*
X130040000Y-72213371D01*
X130040000Y-72963000D01*
X130655856Y-72963000D01*
X130640000Y-73022174D01*
X130640000Y-73153826D01*
X130655856Y-73213000D01*
X130040000Y-73213000D01*
X130040000Y-73962628D01*
X130054503Y-74035540D01*
X130054505Y-74035544D01*
X130109760Y-74118239D01*
X130192455Y-74173494D01*
X130192459Y-74173496D01*
X130265371Y-74187999D01*
X130265374Y-74188000D01*
X131015000Y-74188000D01*
X131015000Y-73572144D01*
X131074174Y-73588000D01*
X131205826Y-73588000D01*
X131265000Y-73572144D01*
X131265000Y-74188000D01*
X132014626Y-74188000D01*
X132014628Y-74187999D01*
X132087540Y-74173496D01*
X132087544Y-74173494D01*
X132170239Y-74118239D01*
X132225494Y-74035544D01*
X132225496Y-74035540D01*
X132239999Y-73962628D01*
X132240000Y-73962626D01*
X132240000Y-73213000D01*
X131624144Y-73213000D01*
X131640000Y-73153826D01*
X131640000Y-73022174D01*
X131629913Y-72984530D01*
X132629500Y-72984530D01*
X132629500Y-73191469D01*
X132669868Y-73394412D01*
X132669870Y-73394420D01*
X132735939Y-73553925D01*
X132749059Y-73585598D01*
X132790032Y-73646919D01*
X132864024Y-73757657D01*
X133010342Y-73903975D01*
X133010345Y-73903977D01*
X133182402Y-74018941D01*
X133373580Y-74098130D01*
X133576530Y-74138499D01*
X133576534Y-74138500D01*
X133576535Y-74138500D01*
X133783466Y-74138500D01*
X133783467Y-74138499D01*
X133986420Y-74098130D01*
X134177598Y-74018941D01*
X134349655Y-73903977D01*
X134495977Y-73757655D01*
X134610941Y-73585598D01*
X134690130Y-73394420D01*
X134730500Y-73191465D01*
X134730500Y-72984535D01*
X134730499Y-72984530D01*
X135169500Y-72984530D01*
X135169500Y-73191469D01*
X135209868Y-73394412D01*
X135209870Y-73394420D01*
X135275939Y-73553925D01*
X135289059Y-73585598D01*
X135330032Y-73646919D01*
X135404024Y-73757657D01*
X135550342Y-73903975D01*
X135550345Y-73903977D01*
X135722402Y-74018941D01*
X135913580Y-74098130D01*
X136116530Y-74138499D01*
X136116534Y-74138500D01*
X136116535Y-74138500D01*
X136323466Y-74138500D01*
X136323467Y-74138499D01*
X136526420Y-74098130D01*
X136717598Y-74018941D01*
X136889655Y-73903977D01*
X137035977Y-73757655D01*
X137150941Y-73585598D01*
X137230130Y-73394420D01*
X137270500Y-73191465D01*
X137270500Y-72984535D01*
X137230130Y-72781580D01*
X137150941Y-72590402D01*
X137035977Y-72418345D01*
X137035975Y-72418342D01*
X136889657Y-72272024D01*
X136801875Y-72213371D01*
X137660000Y-72213371D01*
X137660000Y-72963000D01*
X138275856Y-72963000D01*
X138260000Y-73022174D01*
X138260000Y-73153826D01*
X138275856Y-73213000D01*
X137660000Y-73213000D01*
X137660000Y-73962628D01*
X137674503Y-74035540D01*
X137674505Y-74035544D01*
X137729760Y-74118239D01*
X137812455Y-74173494D01*
X137812459Y-74173496D01*
X137885371Y-74187999D01*
X137885374Y-74188000D01*
X138635000Y-74188000D01*
X138635000Y-73572144D01*
X138694174Y-73588000D01*
X138825826Y-73588000D01*
X138885000Y-73572144D01*
X138885000Y-74188000D01*
X139634626Y-74188000D01*
X139634628Y-74187999D01*
X139707540Y-74173496D01*
X139707544Y-74173494D01*
X139790239Y-74118239D01*
X139845494Y-74035544D01*
X139845496Y-74035540D01*
X139859999Y-73962628D01*
X139860000Y-73962626D01*
X139860000Y-73213000D01*
X139244144Y-73213000D01*
X139260000Y-73153826D01*
X139260000Y-73022174D01*
X139249913Y-72984530D01*
X140249500Y-72984530D01*
X140249500Y-73191469D01*
X140289868Y-73394412D01*
X140289870Y-73394420D01*
X140355939Y-73553925D01*
X140369059Y-73585598D01*
X140410032Y-73646919D01*
X140484024Y-73757657D01*
X140630342Y-73903975D01*
X140630345Y-73903977D01*
X140802402Y-74018941D01*
X140993580Y-74098130D01*
X141196530Y-74138499D01*
X141196534Y-74138500D01*
X141196535Y-74138500D01*
X141403466Y-74138500D01*
X141403467Y-74138499D01*
X141606420Y-74098130D01*
X141797598Y-74018941D01*
X141969655Y-73903977D01*
X142115977Y-73757655D01*
X142230941Y-73585598D01*
X142310130Y-73394420D01*
X142350500Y-73191465D01*
X142350500Y-72984535D01*
X142350499Y-72984530D01*
X142789500Y-72984530D01*
X142789500Y-73191469D01*
X142829868Y-73394412D01*
X142829870Y-73394420D01*
X142895939Y-73553925D01*
X142909059Y-73585598D01*
X142950032Y-73646919D01*
X143024024Y-73757657D01*
X143170342Y-73903975D01*
X143170345Y-73903977D01*
X143342402Y-74018941D01*
X143533580Y-74098130D01*
X143736530Y-74138499D01*
X143736534Y-74138500D01*
X143736535Y-74138500D01*
X143943466Y-74138500D01*
X143943467Y-74138499D01*
X144146420Y-74098130D01*
X144337598Y-74018941D01*
X144509655Y-73903977D01*
X144655977Y-73757655D01*
X144770941Y-73585598D01*
X144850130Y-73394420D01*
X144890500Y-73191465D01*
X144890500Y-72984535D01*
X144890499Y-72984530D01*
X145329500Y-72984530D01*
X145329500Y-73191469D01*
X145369868Y-73394412D01*
X145369870Y-73394420D01*
X145435939Y-73553925D01*
X145449059Y-73585598D01*
X145490032Y-73646919D01*
X145564024Y-73757657D01*
X145710342Y-73903975D01*
X145710345Y-73903977D01*
X145882402Y-74018941D01*
X146073580Y-74098130D01*
X146276530Y-74138499D01*
X146276534Y-74138500D01*
X146276535Y-74138500D01*
X146483466Y-74138500D01*
X146483467Y-74138499D01*
X146686420Y-74098130D01*
X146877598Y-74018941D01*
X147049655Y-73903977D01*
X147195977Y-73757655D01*
X147310941Y-73585598D01*
X147390130Y-73394420D01*
X147430500Y-73191465D01*
X147430500Y-72984535D01*
X147430499Y-72984530D01*
X147869500Y-72984530D01*
X147869500Y-73191469D01*
X147909868Y-73394412D01*
X147909870Y-73394420D01*
X147975939Y-73553925D01*
X147989059Y-73585598D01*
X148030032Y-73646919D01*
X148104024Y-73757657D01*
X148250342Y-73903975D01*
X148250345Y-73903977D01*
X148422402Y-74018941D01*
X148613580Y-74098130D01*
X148816530Y-74138499D01*
X148816534Y-74138500D01*
X148816535Y-74138500D01*
X149023466Y-74138500D01*
X149023467Y-74138499D01*
X149226420Y-74098130D01*
X149417598Y-74018941D01*
X149589655Y-73903977D01*
X149735977Y-73757655D01*
X149850941Y-73585598D01*
X149930130Y-73394420D01*
X149970500Y-73191465D01*
X149970500Y-72984535D01*
X149930130Y-72781580D01*
X149850941Y-72590402D01*
X149735977Y-72418345D01*
X149735975Y-72418342D01*
X149589657Y-72272024D01*
X149501875Y-72213371D01*
X150360000Y-72213371D01*
X150360000Y-72963000D01*
X150975856Y-72963000D01*
X150960000Y-73022174D01*
X150960000Y-73153826D01*
X150975856Y-73213000D01*
X150360000Y-73213000D01*
X150360000Y-73962628D01*
X150374503Y-74035540D01*
X150374505Y-74035544D01*
X150429760Y-74118239D01*
X150512455Y-74173494D01*
X150512459Y-74173496D01*
X150585371Y-74187999D01*
X150585374Y-74188000D01*
X151335000Y-74188000D01*
X151335000Y-73572144D01*
X151394174Y-73588000D01*
X151525826Y-73588000D01*
X151585000Y-73572144D01*
X151585000Y-74188000D01*
X152334626Y-74188000D01*
X152334628Y-74187999D01*
X152407540Y-74173496D01*
X152407544Y-74173494D01*
X152490239Y-74118239D01*
X152545494Y-74035544D01*
X152545496Y-74035540D01*
X152559999Y-73962628D01*
X152560000Y-73962626D01*
X152560000Y-73213000D01*
X151944144Y-73213000D01*
X151960000Y-73153826D01*
X151960000Y-73022174D01*
X151949913Y-72984530D01*
X152949500Y-72984530D01*
X152949500Y-73191469D01*
X152989868Y-73394412D01*
X152989870Y-73394420D01*
X153055939Y-73553925D01*
X153069059Y-73585598D01*
X153110032Y-73646919D01*
X153184024Y-73757657D01*
X153330342Y-73903975D01*
X153330345Y-73903977D01*
X153502402Y-74018941D01*
X153693580Y-74098130D01*
X153896530Y-74138499D01*
X153896534Y-74138500D01*
X153896535Y-74138500D01*
X154103466Y-74138500D01*
X154103467Y-74138499D01*
X154306420Y-74098130D01*
X154497598Y-74018941D01*
X154669655Y-73903977D01*
X154815977Y-73757655D01*
X154930941Y-73585598D01*
X155010130Y-73394420D01*
X155050500Y-73191465D01*
X155050500Y-72984535D01*
X155010130Y-72781580D01*
X154930941Y-72590402D01*
X154815977Y-72418345D01*
X154815975Y-72418342D01*
X154669657Y-72272024D01*
X154581875Y-72213371D01*
X155440000Y-72213371D01*
X155440000Y-72963000D01*
X156055856Y-72963000D01*
X156040000Y-73022174D01*
X156040000Y-73153826D01*
X156055856Y-73213000D01*
X155440000Y-73213000D01*
X155440000Y-73962628D01*
X155454503Y-74035540D01*
X155454505Y-74035544D01*
X155509760Y-74118239D01*
X155592455Y-74173494D01*
X155592459Y-74173496D01*
X155665371Y-74187999D01*
X155665374Y-74188000D01*
X156415000Y-74188000D01*
X156415000Y-73572144D01*
X156474174Y-73588000D01*
X156605826Y-73588000D01*
X156665000Y-73572144D01*
X156665000Y-74188000D01*
X157414626Y-74188000D01*
X157414628Y-74187999D01*
X157487540Y-74173496D01*
X157487544Y-74173494D01*
X157570239Y-74118239D01*
X157625494Y-74035544D01*
X157625496Y-74035540D01*
X157639999Y-73962628D01*
X157640000Y-73962626D01*
X157640000Y-73213000D01*
X157024144Y-73213000D01*
X157040000Y-73153826D01*
X157040000Y-73022174D01*
X157029913Y-72984530D01*
X158029500Y-72984530D01*
X158029500Y-73191469D01*
X158069868Y-73394412D01*
X158069870Y-73394420D01*
X158135939Y-73553925D01*
X158149059Y-73585598D01*
X158190032Y-73646919D01*
X158264024Y-73757657D01*
X158410342Y-73903975D01*
X158410345Y-73903977D01*
X158582402Y-74018941D01*
X158773580Y-74098130D01*
X158976530Y-74138499D01*
X158976534Y-74138500D01*
X158976535Y-74138500D01*
X159183466Y-74138500D01*
X159183467Y-74138499D01*
X159386420Y-74098130D01*
X159577598Y-74018941D01*
X159749655Y-73903977D01*
X159895977Y-73757655D01*
X160010941Y-73585598D01*
X160090130Y-73394420D01*
X160130500Y-73191465D01*
X160130500Y-72984535D01*
X160130499Y-72984530D01*
X160569500Y-72984530D01*
X160569500Y-73191469D01*
X160609868Y-73394412D01*
X160609870Y-73394420D01*
X160675939Y-73553925D01*
X160689059Y-73585598D01*
X160730032Y-73646919D01*
X160804024Y-73757657D01*
X160950342Y-73903975D01*
X160950345Y-73903977D01*
X161122402Y-74018941D01*
X161313580Y-74098130D01*
X161516530Y-74138499D01*
X161516534Y-74138500D01*
X161516535Y-74138500D01*
X161723466Y-74138500D01*
X161723467Y-74138499D01*
X161926420Y-74098130D01*
X162117598Y-74018941D01*
X162289655Y-73903977D01*
X162435977Y-73757655D01*
X162550941Y-73585598D01*
X162630130Y-73394420D01*
X162670500Y-73191465D01*
X162670500Y-72984535D01*
X162630130Y-72781580D01*
X162550941Y-72590402D01*
X162435977Y-72418345D01*
X162435975Y-72418342D01*
X162289657Y-72272024D01*
X162201875Y-72213371D01*
X162117598Y-72157059D01*
X162077522Y-72140459D01*
X161926420Y-72077870D01*
X161926412Y-72077868D01*
X161723469Y-72037500D01*
X161723465Y-72037500D01*
X161516535Y-72037500D01*
X161516530Y-72037500D01*
X161313587Y-72077868D01*
X161313579Y-72077870D01*
X161122403Y-72157058D01*
X160950342Y-72272024D01*
X160804024Y-72418342D01*
X160689058Y-72590403D01*
X160609870Y-72781579D01*
X160609868Y-72781587D01*
X160569500Y-72984530D01*
X160130499Y-72984530D01*
X160090130Y-72781580D01*
X160010941Y-72590402D01*
X159895977Y-72418345D01*
X159895975Y-72418342D01*
X159749657Y-72272024D01*
X159661875Y-72213371D01*
X159577598Y-72157059D01*
X159537522Y-72140459D01*
X159386420Y-72077870D01*
X159386412Y-72077868D01*
X159183469Y-72037500D01*
X159183465Y-72037500D01*
X158976535Y-72037500D01*
X158976530Y-72037500D01*
X158773587Y-72077868D01*
X158773579Y-72077870D01*
X158582403Y-72157058D01*
X158410342Y-72272024D01*
X158264024Y-72418342D01*
X158149058Y-72590403D01*
X158069870Y-72781579D01*
X158069868Y-72781587D01*
X158029500Y-72984530D01*
X157029913Y-72984530D01*
X157024144Y-72963000D01*
X157640000Y-72963000D01*
X157640000Y-72213373D01*
X157639999Y-72213371D01*
X157625496Y-72140459D01*
X157625494Y-72140455D01*
X157570239Y-72057760D01*
X157487544Y-72002505D01*
X157487540Y-72002503D01*
X157414627Y-71988000D01*
X156665000Y-71988000D01*
X156665000Y-72603855D01*
X156605826Y-72588000D01*
X156474174Y-72588000D01*
X156415000Y-72603855D01*
X156415000Y-71988000D01*
X155665373Y-71988000D01*
X155592459Y-72002503D01*
X155592455Y-72002505D01*
X155509760Y-72057760D01*
X155454505Y-72140455D01*
X155454503Y-72140459D01*
X155440000Y-72213371D01*
X154581875Y-72213371D01*
X154497598Y-72157059D01*
X154457522Y-72140459D01*
X154306420Y-72077870D01*
X154306412Y-72077868D01*
X154103469Y-72037500D01*
X154103465Y-72037500D01*
X153896535Y-72037500D01*
X153896530Y-72037500D01*
X153693587Y-72077868D01*
X153693579Y-72077870D01*
X153502403Y-72157058D01*
X153330342Y-72272024D01*
X153184024Y-72418342D01*
X153069058Y-72590403D01*
X152989870Y-72781579D01*
X152989868Y-72781587D01*
X152949500Y-72984530D01*
X151949913Y-72984530D01*
X151944144Y-72963000D01*
X152560000Y-72963000D01*
X152560000Y-72213373D01*
X152559999Y-72213371D01*
X152545496Y-72140459D01*
X152545494Y-72140455D01*
X152490239Y-72057760D01*
X152407544Y-72002505D01*
X152407540Y-72002503D01*
X152334627Y-71988000D01*
X151585000Y-71988000D01*
X151585000Y-72603855D01*
X151525826Y-72588000D01*
X151394174Y-72588000D01*
X151335000Y-72603855D01*
X151335000Y-71988000D01*
X150585373Y-71988000D01*
X150512459Y-72002503D01*
X150512455Y-72002505D01*
X150429760Y-72057760D01*
X150374505Y-72140455D01*
X150374503Y-72140459D01*
X150360000Y-72213371D01*
X149501875Y-72213371D01*
X149417598Y-72157059D01*
X149377522Y-72140459D01*
X149226420Y-72077870D01*
X149226412Y-72077868D01*
X149023469Y-72037500D01*
X149023465Y-72037500D01*
X148816535Y-72037500D01*
X148816530Y-72037500D01*
X148613587Y-72077868D01*
X148613579Y-72077870D01*
X148422403Y-72157058D01*
X148250342Y-72272024D01*
X148104024Y-72418342D01*
X147989058Y-72590403D01*
X147909870Y-72781579D01*
X147909868Y-72781587D01*
X147869500Y-72984530D01*
X147430499Y-72984530D01*
X147390130Y-72781580D01*
X147310941Y-72590402D01*
X147195977Y-72418345D01*
X147195975Y-72418342D01*
X147049657Y-72272024D01*
X146961875Y-72213371D01*
X146877598Y-72157059D01*
X146837522Y-72140459D01*
X146686420Y-72077870D01*
X146686412Y-72077868D01*
X146483469Y-72037500D01*
X146483465Y-72037500D01*
X146276535Y-72037500D01*
X146276530Y-72037500D01*
X146073587Y-72077868D01*
X146073579Y-72077870D01*
X145882403Y-72157058D01*
X145710342Y-72272024D01*
X145564024Y-72418342D01*
X145449058Y-72590403D01*
X145369870Y-72781579D01*
X145369868Y-72781587D01*
X145329500Y-72984530D01*
X144890499Y-72984530D01*
X144850130Y-72781580D01*
X144770941Y-72590402D01*
X144655977Y-72418345D01*
X144655975Y-72418342D01*
X144509657Y-72272024D01*
X144421875Y-72213371D01*
X144337598Y-72157059D01*
X144297522Y-72140459D01*
X144146420Y-72077870D01*
X144146412Y-72077868D01*
X143943469Y-72037500D01*
X143943465Y-72037500D01*
X143736535Y-72037500D01*
X143736530Y-72037500D01*
X143533587Y-72077868D01*
X143533579Y-72077870D01*
X143342403Y-72157058D01*
X143170342Y-72272024D01*
X143024024Y-72418342D01*
X142909058Y-72590403D01*
X142829870Y-72781579D01*
X142829868Y-72781587D01*
X142789500Y-72984530D01*
X142350499Y-72984530D01*
X142310130Y-72781580D01*
X142230941Y-72590402D01*
X142115977Y-72418345D01*
X142115975Y-72418342D01*
X141969657Y-72272024D01*
X141881875Y-72213371D01*
X141797598Y-72157059D01*
X141757522Y-72140459D01*
X141606420Y-72077870D01*
X141606412Y-72077868D01*
X141403469Y-72037500D01*
X141403465Y-72037500D01*
X141196535Y-72037500D01*
X141196530Y-72037500D01*
X140993587Y-72077868D01*
X140993579Y-72077870D01*
X140802403Y-72157058D01*
X140630342Y-72272024D01*
X140484024Y-72418342D01*
X140369058Y-72590403D01*
X140289870Y-72781579D01*
X140289868Y-72781587D01*
X140249500Y-72984530D01*
X139249913Y-72984530D01*
X139244144Y-72963000D01*
X139860000Y-72963000D01*
X139860000Y-72213373D01*
X139859999Y-72213371D01*
X139845496Y-72140459D01*
X139845494Y-72140455D01*
X139790239Y-72057760D01*
X139707544Y-72002505D01*
X139707540Y-72002503D01*
X139634627Y-71988000D01*
X138885000Y-71988000D01*
X138885000Y-72603855D01*
X138825826Y-72588000D01*
X138694174Y-72588000D01*
X138635000Y-72603855D01*
X138635000Y-71988000D01*
X137885373Y-71988000D01*
X137812459Y-72002503D01*
X137812455Y-72002505D01*
X137729760Y-72057760D01*
X137674505Y-72140455D01*
X137674503Y-72140459D01*
X137660000Y-72213371D01*
X136801875Y-72213371D01*
X136717598Y-72157059D01*
X136677522Y-72140459D01*
X136526420Y-72077870D01*
X136526412Y-72077868D01*
X136323469Y-72037500D01*
X136323465Y-72037500D01*
X136116535Y-72037500D01*
X136116530Y-72037500D01*
X135913587Y-72077868D01*
X135913579Y-72077870D01*
X135722403Y-72157058D01*
X135550342Y-72272024D01*
X135404024Y-72418342D01*
X135289058Y-72590403D01*
X135209870Y-72781579D01*
X135209868Y-72781587D01*
X135169500Y-72984530D01*
X134730499Y-72984530D01*
X134690130Y-72781580D01*
X134610941Y-72590402D01*
X134495977Y-72418345D01*
X134495975Y-72418342D01*
X134349657Y-72272024D01*
X134261875Y-72213371D01*
X134177598Y-72157059D01*
X134137522Y-72140459D01*
X133986420Y-72077870D01*
X133986412Y-72077868D01*
X133783469Y-72037500D01*
X133783465Y-72037500D01*
X133576535Y-72037500D01*
X133576530Y-72037500D01*
X133373587Y-72077868D01*
X133373579Y-72077870D01*
X133182403Y-72157058D01*
X133010342Y-72272024D01*
X132864024Y-72418342D01*
X132749058Y-72590403D01*
X132669870Y-72781579D01*
X132669868Y-72781587D01*
X132629500Y-72984530D01*
X131629913Y-72984530D01*
X131624144Y-72963000D01*
X132240000Y-72963000D01*
X132240000Y-72213373D01*
X132239999Y-72213371D01*
X132225496Y-72140459D01*
X132225494Y-72140455D01*
X132170239Y-72057760D01*
X132087544Y-72002505D01*
X132087540Y-72002503D01*
X132014627Y-71988000D01*
X131265000Y-71988000D01*
X131265000Y-72603855D01*
X131205826Y-72588000D01*
X131074174Y-72588000D01*
X131015000Y-72603855D01*
X131015000Y-71988000D01*
X130265373Y-71988000D01*
X130192459Y-72002503D01*
X130192455Y-72002505D01*
X130109760Y-72057760D01*
X130054505Y-72140455D01*
X130054503Y-72140459D01*
X130040000Y-72213371D01*
X129181875Y-72213371D01*
X129097598Y-72157059D01*
X129057522Y-72140459D01*
X128906420Y-72077870D01*
X128906412Y-72077868D01*
X128703469Y-72037500D01*
X128703465Y-72037500D01*
X128496535Y-72037500D01*
X128496530Y-72037500D01*
X128293587Y-72077868D01*
X128293579Y-72077870D01*
X128102403Y-72157058D01*
X127930342Y-72272024D01*
X127784024Y-72418342D01*
X127669058Y-72590403D01*
X127589870Y-72781579D01*
X127589868Y-72781587D01*
X127549500Y-72984530D01*
X127110499Y-72984530D01*
X127070130Y-72781580D01*
X126990941Y-72590402D01*
X126875977Y-72418345D01*
X126875975Y-72418342D01*
X126729657Y-72272024D01*
X126641875Y-72213371D01*
X126557598Y-72157059D01*
X126517522Y-72140459D01*
X126366420Y-72077870D01*
X126366412Y-72077868D01*
X126163469Y-72037500D01*
X126163465Y-72037500D01*
X125956535Y-72037500D01*
X125956530Y-72037500D01*
X125753587Y-72077868D01*
X125753579Y-72077870D01*
X125562403Y-72157058D01*
X125390342Y-72272024D01*
X125244024Y-72418342D01*
X125129058Y-72590403D01*
X125049870Y-72781579D01*
X125049868Y-72781587D01*
X125009500Y-72984530D01*
X124570499Y-72984530D01*
X124530130Y-72781580D01*
X124450941Y-72590402D01*
X124335977Y-72418345D01*
X124335975Y-72418342D01*
X124189657Y-72272024D01*
X124101875Y-72213371D01*
X124017598Y-72157059D01*
X123977522Y-72140459D01*
X123826420Y-72077870D01*
X123826412Y-72077868D01*
X123623469Y-72037500D01*
X123623465Y-72037500D01*
X123416535Y-72037500D01*
X123416530Y-72037500D01*
X123213587Y-72077868D01*
X123213579Y-72077870D01*
X123022403Y-72157058D01*
X122850342Y-72272024D01*
X122704024Y-72418342D01*
X122589058Y-72590403D01*
X122509870Y-72781579D01*
X122509868Y-72781587D01*
X122469500Y-72984530D01*
X121469913Y-72984530D01*
X121464144Y-72963000D01*
X122080000Y-72963000D01*
X122080000Y-72213373D01*
X122079999Y-72213371D01*
X122065496Y-72140459D01*
X122065494Y-72140455D01*
X122010239Y-72057760D01*
X121927544Y-72002505D01*
X121927540Y-72002503D01*
X121854627Y-71988000D01*
X121105000Y-71988000D01*
X121105000Y-72603855D01*
X121045826Y-72588000D01*
X120914174Y-72588000D01*
X120855000Y-72603855D01*
X120855000Y-71988000D01*
X120105373Y-71988000D01*
X120032459Y-72002503D01*
X120032455Y-72002505D01*
X119949760Y-72057760D01*
X119894505Y-72140455D01*
X119894503Y-72140459D01*
X119880000Y-72213371D01*
X119021875Y-72213371D01*
X118937598Y-72157059D01*
X118897522Y-72140459D01*
X118746420Y-72077870D01*
X118746412Y-72077868D01*
X118543469Y-72037500D01*
X118543465Y-72037500D01*
X118336535Y-72037500D01*
X118336530Y-72037500D01*
X118133587Y-72077868D01*
X118133579Y-72077870D01*
X117942403Y-72157058D01*
X117770342Y-72272024D01*
X117624024Y-72418342D01*
X117509058Y-72590403D01*
X117429870Y-72781579D01*
X117429868Y-72781587D01*
X117389500Y-72984530D01*
X116950499Y-72984530D01*
X116910130Y-72781580D01*
X116830941Y-72590402D01*
X116715977Y-72418345D01*
X116715975Y-72418342D01*
X116569657Y-72272024D01*
X116481875Y-72213371D01*
X116397598Y-72157059D01*
X116357522Y-72140459D01*
X116206420Y-72077870D01*
X116206412Y-72077868D01*
X116003469Y-72037500D01*
X116003465Y-72037500D01*
X115796535Y-72037500D01*
X115796530Y-72037500D01*
X115593587Y-72077868D01*
X115593579Y-72077870D01*
X115402403Y-72157058D01*
X115230342Y-72272024D01*
X115084024Y-72418342D01*
X114969058Y-72590403D01*
X114889870Y-72781579D01*
X114889868Y-72781587D01*
X114849500Y-72984530D01*
X112550546Y-72984530D01*
X112507284Y-72928149D01*
X112507278Y-72928142D01*
X112321857Y-72742721D01*
X112321850Y-72742715D01*
X112113811Y-72583082D01*
X112113809Y-72583080D01*
X112113803Y-72583076D01*
X112113798Y-72583073D01*
X112113795Y-72583071D01*
X111886704Y-72451959D01*
X111886693Y-72451954D01*
X111644427Y-72351604D01*
X111644428Y-72351604D01*
X111644420Y-72351601D01*
X111391116Y-72283729D01*
X111347662Y-72278008D01*
X111131127Y-72249499D01*
X111131120Y-72249499D01*
X110868880Y-72249499D01*
X110868872Y-72249499D01*
X110621402Y-72282080D01*
X110608884Y-72283729D01*
X110524449Y-72306353D01*
X110355586Y-72351599D01*
X110355572Y-72351604D01*
X110113306Y-72451954D01*
X110113295Y-72451959D01*
X109886204Y-72583071D01*
X109886188Y-72583082D01*
X109678149Y-72742715D01*
X109678142Y-72742721D01*
X109492721Y-72928142D01*
X109492715Y-72928149D01*
X109333082Y-73136188D01*
X109333071Y-73136204D01*
X109201959Y-73363295D01*
X109201954Y-73363306D01*
X109101604Y-73605572D01*
X109101599Y-73605586D01*
X109033730Y-73858881D01*
X109033728Y-73858892D01*
X108999499Y-74118872D01*
X108000500Y-74118872D01*
X108000500Y-73253750D01*
X108000726Y-73246263D01*
X108014281Y-73022174D01*
X108018271Y-72956201D01*
X108020076Y-72941340D01*
X108022494Y-72928149D01*
X108071780Y-72659197D01*
X108075364Y-72644663D01*
X108092272Y-72590403D01*
X108160696Y-72370822D01*
X108165998Y-72356841D01*
X108283731Y-72095249D01*
X108290676Y-72082016D01*
X108439080Y-71836526D01*
X108447567Y-71824230D01*
X108624480Y-71598417D01*
X108634395Y-71587226D01*
X108837226Y-71384395D01*
X108848417Y-71374480D01*
X109074230Y-71197567D01*
X109086526Y-71189080D01*
X109332016Y-71040676D01*
X109345249Y-71033731D01*
X109606841Y-70915998D01*
X109620822Y-70910696D01*
X109894668Y-70825362D01*
X109909197Y-70821780D01*
X110191344Y-70770075D01*
X110206201Y-70768271D01*
X110496264Y-70750726D01*
X110503751Y-70750500D01*
X110565892Y-70750500D01*
X169434108Y-70750500D01*
X169496249Y-70750500D01*
X169503736Y-70750726D01*
G37*
%TD.AperFunction*%
%TD*%
M02*
