M48
; DRILL file {KiCad 9.0.3} date 2025-08-29T17:45:02+0200
; FORMAT={-:-/ absolute / metric / decimal}
; #@! TF.CreationDate,2025-08-29T17:45:02+02:00
; #@! TF.GenerationSoftware,Kicad,Pcbnew,9.0.3
; #@! TF.FileFunction,Plated,1,2,PTH
FMAT,2
METRIC
; #@! TA.AperFunction,Plated,PTH,ViaDrill
T1C0.300
; #@! TA.AperFunction,Plated,PTH,ComponentDrill
T2C1.000
; #@! TA.AperFunction,Plated,PTH,ComponentDrill
T3C4.300
%
G90
G05
T1
X113.5Y-112.8
X113.5Y-114.4
X117.5Y-113.6
X117.9Y-94.4
X117.9Y-96.0
X118.4Y-106.8
X118.9Y-93.6
X119.4Y-96.8
X121.4Y-107.6
X121.9Y-92.8
X126.2Y-87.6
X129.8Y-114.4
X131.3Y-113.6
X132.8Y-112.8
T2
X115.9Y-73.088
X115.9Y-75.628
X118.44Y-73.088
X118.44Y-75.628
X120.98Y-73.088
X120.98Y-75.628
X123.52Y-73.088
X123.52Y-75.628
X126.06Y-73.088
X126.06Y-75.628
X128.6Y-73.088
X128.6Y-75.628
X131.14Y-73.088
X131.14Y-75.628
X133.68Y-73.088
X133.68Y-75.628
X136.22Y-73.088
X136.22Y-75.628
X138.76Y-73.088
X138.76Y-75.628
X141.3Y-73.088
X141.3Y-75.628
X143.84Y-73.088
X143.84Y-75.628
X146.38Y-73.088
X146.38Y-75.628
X148.92Y-73.088
X148.92Y-75.628
X151.46Y-73.088
X151.46Y-75.628
X154.0Y-73.088
X154.0Y-75.628
X156.54Y-73.088
X156.54Y-75.628
X159.08Y-73.088
X159.08Y-75.628
X161.62Y-73.088
X161.62Y-75.628
X164.16Y-73.088
X164.16Y-75.628
T3
X143.5Y-91.7
X143.5Y-115.9
X167.65Y-91.7
X167.65Y-115.9
M30
