%TF.GenerationSoftware,KiCad,Pcbnew,9.0.3*%
%TF.CreationDate,2025-08-29T17:44:56+02:00*%
%TF.ProjectId,RadioHAT,52616469-6f48-4415-942e-6b696361645f,rev?*%
%TF.SameCoordinates,Original*%
%TF.FileFunction,Soldermask,Top*%
%TF.FilePolarity,Negative*%
%FSLAX46Y46*%
G04 Gerber Fmt 4.6, Leading zero omitted, Abs format (unit mm)*
G04 Created by KiCad (PCBNEW 9.0.3) date 2025-08-29 17:44:56*
%MOMM*%
%LPD*%
G01*
G04 APERTURE LIST*
G04 Aperture macros list*
%AMRoundRect*
0 Rectangle with rounded corners*
0 $1 Rounding radius*
0 $2 $3 $4 $5 $6 $7 $8 $9 X,Y pos of 4 corners*
0 Add a 4 corners polygon primitive as box body*
4,1,4,$2,$3,$4,$5,$6,$7,$8,$9,$2,$3,0*
0 Add four circle primitives for the rounded corners*
1,1,$1+$1,$2,$3*
1,1,$1+$1,$4,$5*
1,1,$1+$1,$6,$7*
1,1,$1+$1,$8,$9*
0 Add four rect primitives between the rounded corners*
20,1,$1+$1,$2,$3,$4,$5,0*
20,1,$1+$1,$4,$5,$6,$7,0*
20,1,$1+$1,$6,$7,$8,$9,0*
20,1,$1+$1,$8,$9,$2,$3,0*%
G04 Aperture macros list end*
%ADD10C,1.600000*%
%ADD11C,1.100000*%
%ADD12RoundRect,0.060000X0.940000X0.240000X-0.940000X0.240000X-0.940000X-0.240000X0.940000X-0.240000X0*%
%ADD13R,3.200000X2.300000*%
%ADD14C,6.500000*%
%ADD15C,1.700000*%
%ADD16O,1.700000X1.700000*%
%ADD17R,1.700000X1.700000*%
G04 APERTURE END LIST*
D10*
%TO.C,J2*%
X119600000Y-91300000D03*
D11*
X119600000Y-116300000D03*
D12*
X115500000Y-92000000D03*
X123700000Y-92400000D03*
X115500000Y-92800000D03*
X123700000Y-93200000D03*
X115500000Y-93600000D03*
X123700000Y-94000000D03*
X115500000Y-94400000D03*
X123700000Y-94800000D03*
X115500000Y-95200000D03*
X123700000Y-95600000D03*
X115500000Y-96000000D03*
X123700000Y-96400000D03*
X115500000Y-96800000D03*
X123700000Y-97200000D03*
X115500000Y-97600000D03*
X123700000Y-98000000D03*
X115500000Y-101600000D03*
X123700000Y-102000000D03*
X115500000Y-102400000D03*
X123700000Y-102800000D03*
X115500000Y-103200000D03*
X123700000Y-103600000D03*
X115500000Y-104000000D03*
X123700000Y-104400000D03*
X115500000Y-104800000D03*
X123700000Y-105200000D03*
X115500000Y-105600000D03*
X123700000Y-106000000D03*
X115500000Y-106400000D03*
X123700000Y-106800000D03*
X115500000Y-107200000D03*
X123700000Y-107600000D03*
X115500000Y-108000000D03*
X123700000Y-108400000D03*
X115500000Y-108800000D03*
X123700000Y-109200000D03*
X115500000Y-109600000D03*
X123700000Y-110000000D03*
X115500000Y-110400000D03*
X123700000Y-110800000D03*
X115500000Y-111200000D03*
X123700000Y-111600000D03*
X115500000Y-112000000D03*
X123700000Y-112400000D03*
X115500000Y-112800000D03*
X123700000Y-113200000D03*
X115500000Y-113600000D03*
X123700000Y-114000000D03*
X115500000Y-114400000D03*
X123700000Y-114800000D03*
X115500000Y-115200000D03*
X123700000Y-115600000D03*
D13*
X116100000Y-89100000D03*
X116100000Y-118400000D03*
D14*
X143500000Y-91700000D03*
X143500000Y-115900000D03*
X167650000Y-91700000D03*
X167650000Y-115900000D03*
%TD*%
D15*
%TO.C,J1*%
X115900000Y-75628000D03*
D16*
X115900000Y-73088000D03*
X118440000Y-75628000D03*
X118440000Y-73088000D03*
X120980000Y-75628000D03*
D17*
X120980000Y-73088000D03*
D16*
X123520000Y-75628000D03*
X123520000Y-73088000D03*
D17*
X126060000Y-75628000D03*
D16*
X126060000Y-73088000D03*
X128600000Y-75628000D03*
X128600000Y-73088000D03*
X131140000Y-75628000D03*
D17*
X131140000Y-73088000D03*
D16*
X133680000Y-75628000D03*
X133680000Y-73088000D03*
X136220000Y-75628000D03*
X136220000Y-73088000D03*
X138760000Y-75628000D03*
D17*
X138760000Y-73088000D03*
D16*
X141300000Y-75628000D03*
X141300000Y-73088000D03*
X143840000Y-75628000D03*
X143840000Y-73088000D03*
D17*
X146380000Y-75628000D03*
D16*
X146380000Y-73088000D03*
X148920000Y-75628000D03*
X148920000Y-73088000D03*
X151460000Y-75628000D03*
D17*
X151460000Y-73088000D03*
D16*
X154000000Y-75628000D03*
X154000000Y-73088000D03*
X156540000Y-75628000D03*
D17*
X156540000Y-73088000D03*
D16*
X159080000Y-75628000D03*
X159080000Y-73088000D03*
X161620000Y-75628000D03*
X161620000Y-73088000D03*
D17*
X164160000Y-75628000D03*
D16*
X164160000Y-73088000D03*
%TD*%
M02*
