%TF.GenerationSoftware,KiCad,Pcbnew,9.0.3*%
%TF.CreationDate,2025-08-29T17:44:56+02:00*%
%TF.ProjectId,RadioHAT,52616469-6f48-4415-942e-6b696361645f,rev?*%
%TF.SameCoordinates,Original*%
%TF.FileFunction,Profile,NP*%
%FSLAX46Y46*%
G04 Gerber Fmt 4.6, Leading zero omitted, Abs format (unit mm)*
G04 Created by KiCad (PCBNEW 9.0.3) date 2025-08-29 17:44:56*
%MOMM*%
%LPD*%
G01*
G04 APERTURE LIST*
%TA.AperFunction,Profile*%
%ADD10C,0.100000*%
%TD*%
%TA.AperFunction,Profile*%
%ADD11C,0.050000*%
%TD*%
G04 APERTURE END LIST*
D10*
%TO.C,J1*%
X107500000Y-73250000D02*
X107500000Y-89250000D01*
X107500000Y-108250000D02*
X107500000Y-123750000D01*
X108500000Y-90250000D02*
X111500000Y-90250000D01*
X108500000Y-107250000D02*
X111500000Y-107250000D01*
X110500000Y-70250000D02*
X169500000Y-70250000D01*
X110500000Y-126750000D02*
X169500000Y-126750000D01*
X112500000Y-91250000D02*
X112500000Y-106250000D01*
X172500000Y-73250000D02*
X172500000Y-123750000D01*
X107500000Y-73250000D02*
G75*
G02*
X110500000Y-70250000I3000001J-1D01*
G01*
X107500000Y-108250000D02*
G75*
G02*
X108500000Y-107250000I999999J1D01*
G01*
X108500000Y-90250000D02*
G75*
G02*
X107500000Y-89250000I-1J999999D01*
G01*
X110500000Y-126750000D02*
G75*
G02*
X107500000Y-123750000I1J3000001D01*
G01*
X111500000Y-90250000D02*
G75*
G02*
X112500000Y-91250000I1J-999999D01*
G01*
X112500000Y-106250000D02*
G75*
G02*
X111500000Y-107250000I-999999J-1D01*
G01*
X169500000Y-70250000D02*
G75*
G02*
X172500000Y-73250000I0J-3000000D01*
G01*
X172500000Y-123750000D02*
G75*
G02*
X169500000Y-126750000I-3000000J0D01*
G01*
D11*
X112500001Y-74250000D02*
G75*
G02*
X109499999Y-74250000I-1500001J0D01*
G01*
X109499999Y-74250000D02*
G75*
G02*
X112500001Y-74250000I1500001J0D01*
G01*
X112500001Y-123250000D02*
G75*
G02*
X109499999Y-123250000I-1500001J0D01*
G01*
X109499999Y-123250000D02*
G75*
G02*
X112500001Y-123250000I1500001J0D01*
G01*
X170500001Y-74250000D02*
G75*
G02*
X167499999Y-74250000I-1500001J0D01*
G01*
X167499999Y-74250000D02*
G75*
G02*
X170500001Y-74250000I1500001J0D01*
G01*
X170500001Y-123250000D02*
G75*
G02*
X167499999Y-123250000I-1500001J0D01*
G01*
X167499999Y-123250000D02*
G75*
G02*
X170500001Y-123250000I1500001J0D01*
G01*
%TD*%
M02*
