%TF.GenerationSoftware,KiCad,Pcbnew,9.0.3*%
%TF.CreationDate,2025-08-29T17:44:56+02:00*%
%TF.ProjectId,RadioHAT,52616469-6f48-4415-942e-6b696361645f,rev?*%
%TF.SameCoordinates,Original*%
%TF.FileFunction,Legend,Top*%
%TF.FilePolarity,Positive*%
%FSLAX46Y46*%
G04 Gerber Fmt 4.6, Leading zero omitted, Abs format (unit mm)*
G04 Created by KiCad (PCBNEW 9.0.3) date 2025-08-29 17:44:56*
%MOMM*%
%LPD*%
G01*
G04 APERTURE LIST*
%ADD10C,0.100000*%
G04 APERTURE END LIST*
D10*
X114100000Y-121000000D02*
X166200000Y-121000000D01*
X166200000Y-125200000D01*
X114100000Y-125200000D01*
X114100000Y-121000000D01*
G36*
X114100000Y-121000000D02*
G01*
X166200000Y-121000000D01*
X166200000Y-125200000D01*
X114100000Y-125200000D01*
X114100000Y-121000000D01*
G37*
X102442580Y-91966666D02*
X101728295Y-91966666D01*
X101728295Y-91966666D02*
X101585438Y-91919047D01*
X101585438Y-91919047D02*
X101490200Y-91823809D01*
X101490200Y-91823809D02*
X101442580Y-91680952D01*
X101442580Y-91680952D02*
X101442580Y-91585714D01*
X102347342Y-92395238D02*
X102394961Y-92442857D01*
X102394961Y-92442857D02*
X102442580Y-92538095D01*
X102442580Y-92538095D02*
X102442580Y-92776190D01*
X102442580Y-92776190D02*
X102394961Y-92871428D01*
X102394961Y-92871428D02*
X102347342Y-92919047D01*
X102347342Y-92919047D02*
X102252104Y-92966666D01*
X102252104Y-92966666D02*
X102156866Y-92966666D01*
X102156866Y-92966666D02*
X102014009Y-92919047D01*
X102014009Y-92919047D02*
X101442580Y-92347619D01*
X101442580Y-92347619D02*
X101442580Y-92966666D01*
X113466666Y-75107419D02*
X113466666Y-75821704D01*
X113466666Y-75821704D02*
X113419047Y-75964561D01*
X113419047Y-75964561D02*
X113323809Y-76059800D01*
X113323809Y-76059800D02*
X113180952Y-76107419D01*
X113180952Y-76107419D02*
X113085714Y-76107419D01*
X114466666Y-76107419D02*
X113895238Y-76107419D01*
X114180952Y-76107419D02*
X114180952Y-75107419D01*
X114180952Y-75107419D02*
X114085714Y-75250276D01*
X114085714Y-75250276D02*
X113990476Y-75345514D01*
X113990476Y-75345514D02*
X113895238Y-75393133D01*
X163672857Y-77095942D02*
X163615715Y-77067371D01*
X163615715Y-77067371D02*
X163530000Y-77067371D01*
X163530000Y-77067371D02*
X163444286Y-77095942D01*
X163444286Y-77095942D02*
X163387143Y-77153085D01*
X163387143Y-77153085D02*
X163358572Y-77210228D01*
X163358572Y-77210228D02*
X163330000Y-77324514D01*
X163330000Y-77324514D02*
X163330000Y-77410228D01*
X163330000Y-77410228D02*
X163358572Y-77524514D01*
X163358572Y-77524514D02*
X163387143Y-77581657D01*
X163387143Y-77581657D02*
X163444286Y-77638800D01*
X163444286Y-77638800D02*
X163530000Y-77667371D01*
X163530000Y-77667371D02*
X163587143Y-77667371D01*
X163587143Y-77667371D02*
X163672857Y-77638800D01*
X163672857Y-77638800D02*
X163701429Y-77610228D01*
X163701429Y-77610228D02*
X163701429Y-77410228D01*
X163701429Y-77410228D02*
X163587143Y-77410228D01*
X163958572Y-77667371D02*
X163958572Y-77067371D01*
X163958572Y-77067371D02*
X164301429Y-77667371D01*
X164301429Y-77667371D02*
X164301429Y-77067371D01*
X164587143Y-77667371D02*
X164587143Y-77067371D01*
X164587143Y-77067371D02*
X164730000Y-77067371D01*
X164730000Y-77067371D02*
X164815714Y-77095942D01*
X164815714Y-77095942D02*
X164872857Y-77153085D01*
X164872857Y-77153085D02*
X164901428Y-77210228D01*
X164901428Y-77210228D02*
X164930000Y-77324514D01*
X164930000Y-77324514D02*
X164930000Y-77410228D01*
X164930000Y-77410228D02*
X164901428Y-77524514D01*
X164901428Y-77524514D02*
X164872857Y-77581657D01*
X164872857Y-77581657D02*
X164815714Y-77638800D01*
X164815714Y-77638800D02*
X164730000Y-77667371D01*
X164730000Y-77667371D02*
X164587143Y-77667371D01*
X163387143Y-71631371D02*
X163387143Y-71031371D01*
X163387143Y-71031371D02*
X163730000Y-71631371D01*
X163730000Y-71631371D02*
X163730000Y-71031371D01*
X163987142Y-71602800D02*
X164072857Y-71631371D01*
X164072857Y-71631371D02*
X164215714Y-71631371D01*
X164215714Y-71631371D02*
X164272857Y-71602800D01*
X164272857Y-71602800D02*
X164301428Y-71574228D01*
X164301428Y-71574228D02*
X164329999Y-71517085D01*
X164329999Y-71517085D02*
X164329999Y-71459942D01*
X164329999Y-71459942D02*
X164301428Y-71402800D01*
X164301428Y-71402800D02*
X164272857Y-71374228D01*
X164272857Y-71374228D02*
X164215714Y-71345657D01*
X164215714Y-71345657D02*
X164101428Y-71317085D01*
X164101428Y-71317085D02*
X164044285Y-71288514D01*
X164044285Y-71288514D02*
X164015714Y-71259942D01*
X164015714Y-71259942D02*
X163987142Y-71202800D01*
X163987142Y-71202800D02*
X163987142Y-71145657D01*
X163987142Y-71145657D02*
X164015714Y-71088514D01*
X164015714Y-71088514D02*
X164044285Y-71059942D01*
X164044285Y-71059942D02*
X164101428Y-71031371D01*
X164101428Y-71031371D02*
X164244285Y-71031371D01*
X164244285Y-71031371D02*
X164329999Y-71059942D01*
X164558571Y-71602800D02*
X164644286Y-71631371D01*
X164644286Y-71631371D02*
X164787143Y-71631371D01*
X164787143Y-71631371D02*
X164844286Y-71602800D01*
X164844286Y-71602800D02*
X164872857Y-71574228D01*
X164872857Y-71574228D02*
X164901428Y-71517085D01*
X164901428Y-71517085D02*
X164901428Y-71459942D01*
X164901428Y-71459942D02*
X164872857Y-71402800D01*
X164872857Y-71402800D02*
X164844286Y-71374228D01*
X164844286Y-71374228D02*
X164787143Y-71345657D01*
X164787143Y-71345657D02*
X164672857Y-71317085D01*
X164672857Y-71317085D02*
X164615714Y-71288514D01*
X164615714Y-71288514D02*
X164587143Y-71259942D01*
X164587143Y-71259942D02*
X164558571Y-71202800D01*
X164558571Y-71202800D02*
X164558571Y-71145657D01*
X164558571Y-71145657D02*
X164587143Y-71088514D01*
X164587143Y-71088514D02*
X164615714Y-71059942D01*
X164615714Y-71059942D02*
X164672857Y-71031371D01*
X164672857Y-71031371D02*
X164815714Y-71031371D01*
X164815714Y-71031371D02*
X164901428Y-71059942D01*
X160704285Y-71059942D02*
X160647143Y-71031371D01*
X160647143Y-71031371D02*
X160561428Y-71031371D01*
X160561428Y-71031371D02*
X160475714Y-71059942D01*
X160475714Y-71059942D02*
X160418571Y-71117085D01*
X160418571Y-71117085D02*
X160390000Y-71174228D01*
X160390000Y-71174228D02*
X160361428Y-71288514D01*
X160361428Y-71288514D02*
X160361428Y-71374228D01*
X160361428Y-71374228D02*
X160390000Y-71488514D01*
X160390000Y-71488514D02*
X160418571Y-71545657D01*
X160418571Y-71545657D02*
X160475714Y-71602800D01*
X160475714Y-71602800D02*
X160561428Y-71631371D01*
X160561428Y-71631371D02*
X160618571Y-71631371D01*
X160618571Y-71631371D02*
X160704285Y-71602800D01*
X160704285Y-71602800D02*
X160732857Y-71574228D01*
X160732857Y-71574228D02*
X160732857Y-71374228D01*
X160732857Y-71374228D02*
X160618571Y-71374228D01*
X160990000Y-71631371D02*
X160990000Y-71031371D01*
X160990000Y-71031371D02*
X161218571Y-71031371D01*
X161218571Y-71031371D02*
X161275714Y-71059942D01*
X161275714Y-71059942D02*
X161304285Y-71088514D01*
X161304285Y-71088514D02*
X161332857Y-71145657D01*
X161332857Y-71145657D02*
X161332857Y-71231371D01*
X161332857Y-71231371D02*
X161304285Y-71288514D01*
X161304285Y-71288514D02*
X161275714Y-71317085D01*
X161275714Y-71317085D02*
X161218571Y-71345657D01*
X161218571Y-71345657D02*
X160990000Y-71345657D01*
X161590000Y-71631371D02*
X161590000Y-71031371D01*
X161989999Y-71031371D02*
X162104285Y-71031371D01*
X162104285Y-71031371D02*
X162161428Y-71059942D01*
X162161428Y-71059942D02*
X162218571Y-71117085D01*
X162218571Y-71117085D02*
X162247142Y-71231371D01*
X162247142Y-71231371D02*
X162247142Y-71431371D01*
X162247142Y-71431371D02*
X162218571Y-71545657D01*
X162218571Y-71545657D02*
X162161428Y-71602800D01*
X162161428Y-71602800D02*
X162104285Y-71631371D01*
X162104285Y-71631371D02*
X161989999Y-71631371D01*
X161989999Y-71631371D02*
X161932857Y-71602800D01*
X161932857Y-71602800D02*
X161875714Y-71545657D01*
X161875714Y-71545657D02*
X161847142Y-71431371D01*
X161847142Y-71431371D02*
X161847142Y-71231371D01*
X161847142Y-71231371D02*
X161875714Y-71117085D01*
X161875714Y-71117085D02*
X161932857Y-71059942D01*
X161932857Y-71059942D02*
X161989999Y-71031371D01*
X162618570Y-71031371D02*
X162675713Y-71031371D01*
X162675713Y-71031371D02*
X162732856Y-71059942D01*
X162732856Y-71059942D02*
X162761428Y-71088514D01*
X162761428Y-71088514D02*
X162789999Y-71145657D01*
X162789999Y-71145657D02*
X162818570Y-71259942D01*
X162818570Y-71259942D02*
X162818570Y-71402800D01*
X162818570Y-71402800D02*
X162789999Y-71517085D01*
X162789999Y-71517085D02*
X162761428Y-71574228D01*
X162761428Y-71574228D02*
X162732856Y-71602800D01*
X162732856Y-71602800D02*
X162675713Y-71631371D01*
X162675713Y-71631371D02*
X162618570Y-71631371D01*
X162618570Y-71631371D02*
X162561428Y-71602800D01*
X162561428Y-71602800D02*
X162532856Y-71574228D01*
X162532856Y-71574228D02*
X162504285Y-71517085D01*
X162504285Y-71517085D02*
X162475713Y-71402800D01*
X162475713Y-71402800D02*
X162475713Y-71259942D01*
X162475713Y-71259942D02*
X162504285Y-71145657D01*
X162504285Y-71145657D02*
X162532856Y-71088514D01*
X162532856Y-71088514D02*
X162561428Y-71059942D01*
X162561428Y-71059942D02*
X162618570Y-71031371D01*
X158150000Y-71631371D02*
X158150000Y-71031371D01*
X158778571Y-71631371D02*
X158578571Y-71345657D01*
X158435714Y-71631371D02*
X158435714Y-71031371D01*
X158435714Y-71031371D02*
X158664285Y-71031371D01*
X158664285Y-71031371D02*
X158721428Y-71059942D01*
X158721428Y-71059942D02*
X158749999Y-71088514D01*
X158749999Y-71088514D02*
X158778571Y-71145657D01*
X158778571Y-71145657D02*
X158778571Y-71231371D01*
X158778571Y-71231371D02*
X158749999Y-71288514D01*
X158749999Y-71288514D02*
X158721428Y-71317085D01*
X158721428Y-71317085D02*
X158664285Y-71345657D01*
X158664285Y-71345657D02*
X158435714Y-71345657D01*
X159435714Y-71688514D02*
X159378571Y-71659942D01*
X159378571Y-71659942D02*
X159321428Y-71602800D01*
X159321428Y-71602800D02*
X159235714Y-71517085D01*
X159235714Y-71517085D02*
X159178571Y-71488514D01*
X159178571Y-71488514D02*
X159121428Y-71488514D01*
X159149999Y-71631371D02*
X159092857Y-71602800D01*
X159092857Y-71602800D02*
X159035714Y-71545657D01*
X159035714Y-71545657D02*
X159007142Y-71431371D01*
X159007142Y-71431371D02*
X159007142Y-71231371D01*
X159007142Y-71231371D02*
X159035714Y-71117085D01*
X159035714Y-71117085D02*
X159092857Y-71059942D01*
X159092857Y-71059942D02*
X159149999Y-71031371D01*
X159149999Y-71031371D02*
X159264285Y-71031371D01*
X159264285Y-71031371D02*
X159321428Y-71059942D01*
X159321428Y-71059942D02*
X159378571Y-71117085D01*
X159378571Y-71117085D02*
X159407142Y-71231371D01*
X159407142Y-71231371D02*
X159407142Y-71431371D01*
X159407142Y-71431371D02*
X159378571Y-71545657D01*
X159378571Y-71545657D02*
X159321428Y-71602800D01*
X159321428Y-71602800D02*
X159264285Y-71631371D01*
X159264285Y-71631371D02*
X159149999Y-71631371D01*
X159778570Y-71031371D02*
X159835713Y-71031371D01*
X159835713Y-71031371D02*
X159892856Y-71059942D01*
X159892856Y-71059942D02*
X159921428Y-71088514D01*
X159921428Y-71088514D02*
X159949999Y-71145657D01*
X159949999Y-71145657D02*
X159978570Y-71259942D01*
X159978570Y-71259942D02*
X159978570Y-71402800D01*
X159978570Y-71402800D02*
X159949999Y-71517085D01*
X159949999Y-71517085D02*
X159921428Y-71574228D01*
X159921428Y-71574228D02*
X159892856Y-71602800D01*
X159892856Y-71602800D02*
X159835713Y-71631371D01*
X159835713Y-71631371D02*
X159778570Y-71631371D01*
X159778570Y-71631371D02*
X159721428Y-71602800D01*
X159721428Y-71602800D02*
X159692856Y-71574228D01*
X159692856Y-71574228D02*
X159664285Y-71517085D01*
X159664285Y-71517085D02*
X159635713Y-71402800D01*
X159635713Y-71402800D02*
X159635713Y-71259942D01*
X159635713Y-71259942D02*
X159664285Y-71145657D01*
X159664285Y-71145657D02*
X159692856Y-71088514D01*
X159692856Y-71088514D02*
X159721428Y-71059942D01*
X159721428Y-71059942D02*
X159778570Y-71031371D01*
X156052857Y-71059942D02*
X155995715Y-71031371D01*
X155995715Y-71031371D02*
X155910000Y-71031371D01*
X155910000Y-71031371D02*
X155824286Y-71059942D01*
X155824286Y-71059942D02*
X155767143Y-71117085D01*
X155767143Y-71117085D02*
X155738572Y-71174228D01*
X155738572Y-71174228D02*
X155710000Y-71288514D01*
X155710000Y-71288514D02*
X155710000Y-71374228D01*
X155710000Y-71374228D02*
X155738572Y-71488514D01*
X155738572Y-71488514D02*
X155767143Y-71545657D01*
X155767143Y-71545657D02*
X155824286Y-71602800D01*
X155824286Y-71602800D02*
X155910000Y-71631371D01*
X155910000Y-71631371D02*
X155967143Y-71631371D01*
X155967143Y-71631371D02*
X156052857Y-71602800D01*
X156052857Y-71602800D02*
X156081429Y-71574228D01*
X156081429Y-71574228D02*
X156081429Y-71374228D01*
X156081429Y-71374228D02*
X155967143Y-71374228D01*
X156338572Y-71631371D02*
X156338572Y-71031371D01*
X156338572Y-71031371D02*
X156681429Y-71631371D01*
X156681429Y-71631371D02*
X156681429Y-71031371D01*
X156967143Y-71631371D02*
X156967143Y-71031371D01*
X156967143Y-71031371D02*
X157110000Y-71031371D01*
X157110000Y-71031371D02*
X157195714Y-71059942D01*
X157195714Y-71059942D02*
X157252857Y-71117085D01*
X157252857Y-71117085D02*
X157281428Y-71174228D01*
X157281428Y-71174228D02*
X157310000Y-71288514D01*
X157310000Y-71288514D02*
X157310000Y-71374228D01*
X157310000Y-71374228D02*
X157281428Y-71488514D01*
X157281428Y-71488514D02*
X157252857Y-71545657D01*
X157252857Y-71545657D02*
X157195714Y-71602800D01*
X157195714Y-71602800D02*
X157110000Y-71631371D01*
X157110000Y-71631371D02*
X156967143Y-71631371D01*
X150972857Y-71059942D02*
X150915715Y-71031371D01*
X150915715Y-71031371D02*
X150830000Y-71031371D01*
X150830000Y-71031371D02*
X150744286Y-71059942D01*
X150744286Y-71059942D02*
X150687143Y-71117085D01*
X150687143Y-71117085D02*
X150658572Y-71174228D01*
X150658572Y-71174228D02*
X150630000Y-71288514D01*
X150630000Y-71288514D02*
X150630000Y-71374228D01*
X150630000Y-71374228D02*
X150658572Y-71488514D01*
X150658572Y-71488514D02*
X150687143Y-71545657D01*
X150687143Y-71545657D02*
X150744286Y-71602800D01*
X150744286Y-71602800D02*
X150830000Y-71631371D01*
X150830000Y-71631371D02*
X150887143Y-71631371D01*
X150887143Y-71631371D02*
X150972857Y-71602800D01*
X150972857Y-71602800D02*
X151001429Y-71574228D01*
X151001429Y-71574228D02*
X151001429Y-71374228D01*
X151001429Y-71374228D02*
X150887143Y-71374228D01*
X151258572Y-71631371D02*
X151258572Y-71031371D01*
X151258572Y-71031371D02*
X151601429Y-71631371D01*
X151601429Y-71631371D02*
X151601429Y-71031371D01*
X151887143Y-71631371D02*
X151887143Y-71031371D01*
X151887143Y-71031371D02*
X152030000Y-71031371D01*
X152030000Y-71031371D02*
X152115714Y-71059942D01*
X152115714Y-71059942D02*
X152172857Y-71117085D01*
X152172857Y-71117085D02*
X152201428Y-71174228D01*
X152201428Y-71174228D02*
X152230000Y-71288514D01*
X152230000Y-71288514D02*
X152230000Y-71374228D01*
X152230000Y-71374228D02*
X152201428Y-71488514D01*
X152201428Y-71488514D02*
X152172857Y-71545657D01*
X152172857Y-71545657D02*
X152115714Y-71602800D01*
X152115714Y-71602800D02*
X152030000Y-71631371D01*
X152030000Y-71631371D02*
X151887143Y-71631371D01*
X140655714Y-71631371D02*
X140455714Y-71345657D01*
X140312857Y-71631371D02*
X140312857Y-71031371D01*
X140312857Y-71031371D02*
X140541428Y-71031371D01*
X140541428Y-71031371D02*
X140598571Y-71059942D01*
X140598571Y-71059942D02*
X140627142Y-71088514D01*
X140627142Y-71088514D02*
X140655714Y-71145657D01*
X140655714Y-71145657D02*
X140655714Y-71231371D01*
X140655714Y-71231371D02*
X140627142Y-71288514D01*
X140627142Y-71288514D02*
X140598571Y-71317085D01*
X140598571Y-71317085D02*
X140541428Y-71345657D01*
X140541428Y-71345657D02*
X140312857Y-71345657D01*
X140884285Y-71602800D02*
X140970000Y-71631371D01*
X140970000Y-71631371D02*
X141112857Y-71631371D01*
X141112857Y-71631371D02*
X141170000Y-71602800D01*
X141170000Y-71602800D02*
X141198571Y-71574228D01*
X141198571Y-71574228D02*
X141227142Y-71517085D01*
X141227142Y-71517085D02*
X141227142Y-71459942D01*
X141227142Y-71459942D02*
X141198571Y-71402800D01*
X141198571Y-71402800D02*
X141170000Y-71374228D01*
X141170000Y-71374228D02*
X141112857Y-71345657D01*
X141112857Y-71345657D02*
X140998571Y-71317085D01*
X140998571Y-71317085D02*
X140941428Y-71288514D01*
X140941428Y-71288514D02*
X140912857Y-71259942D01*
X140912857Y-71259942D02*
X140884285Y-71202800D01*
X140884285Y-71202800D02*
X140884285Y-71145657D01*
X140884285Y-71145657D02*
X140912857Y-71088514D01*
X140912857Y-71088514D02*
X140941428Y-71059942D01*
X140941428Y-71059942D02*
X140998571Y-71031371D01*
X140998571Y-71031371D02*
X141141428Y-71031371D01*
X141141428Y-71031371D02*
X141227142Y-71059942D01*
X141398571Y-71031371D02*
X141741429Y-71031371D01*
X141570000Y-71631371D02*
X141570000Y-71031371D01*
X142255714Y-71631371D02*
X141912857Y-71631371D01*
X142084286Y-71631371D02*
X142084286Y-71031371D01*
X142084286Y-71031371D02*
X142027143Y-71117085D01*
X142027143Y-71117085D02*
X141970000Y-71174228D01*
X141970000Y-71174228D02*
X141912857Y-71202800D01*
X145892857Y-77095942D02*
X145835715Y-77067371D01*
X145835715Y-77067371D02*
X145750000Y-77067371D01*
X145750000Y-77067371D02*
X145664286Y-77095942D01*
X145664286Y-77095942D02*
X145607143Y-77153085D01*
X145607143Y-77153085D02*
X145578572Y-77210228D01*
X145578572Y-77210228D02*
X145550000Y-77324514D01*
X145550000Y-77324514D02*
X145550000Y-77410228D01*
X145550000Y-77410228D02*
X145578572Y-77524514D01*
X145578572Y-77524514D02*
X145607143Y-77581657D01*
X145607143Y-77581657D02*
X145664286Y-77638800D01*
X145664286Y-77638800D02*
X145750000Y-77667371D01*
X145750000Y-77667371D02*
X145807143Y-77667371D01*
X145807143Y-77667371D02*
X145892857Y-77638800D01*
X145892857Y-77638800D02*
X145921429Y-77610228D01*
X145921429Y-77610228D02*
X145921429Y-77410228D01*
X145921429Y-77410228D02*
X145807143Y-77410228D01*
X146178572Y-77667371D02*
X146178572Y-77067371D01*
X146178572Y-77067371D02*
X146521429Y-77667371D01*
X146521429Y-77667371D02*
X146521429Y-77067371D01*
X146807143Y-77667371D02*
X146807143Y-77067371D01*
X146807143Y-77067371D02*
X146950000Y-77067371D01*
X146950000Y-77067371D02*
X147035714Y-77095942D01*
X147035714Y-77095942D02*
X147092857Y-77153085D01*
X147092857Y-77153085D02*
X147121428Y-77210228D01*
X147121428Y-77210228D02*
X147150000Y-77324514D01*
X147150000Y-77324514D02*
X147150000Y-77410228D01*
X147150000Y-77410228D02*
X147121428Y-77524514D01*
X147121428Y-77524514D02*
X147092857Y-77581657D01*
X147092857Y-77581657D02*
X147035714Y-77638800D01*
X147035714Y-77638800D02*
X146950000Y-77667371D01*
X146950000Y-77667371D02*
X146807143Y-77667371D01*
X143038571Y-77638800D02*
X143124286Y-77667371D01*
X143124286Y-77667371D02*
X143267143Y-77667371D01*
X143267143Y-77667371D02*
X143324286Y-77638800D01*
X143324286Y-77638800D02*
X143352857Y-77610228D01*
X143352857Y-77610228D02*
X143381428Y-77553085D01*
X143381428Y-77553085D02*
X143381428Y-77495942D01*
X143381428Y-77495942D02*
X143352857Y-77438800D01*
X143352857Y-77438800D02*
X143324286Y-77410228D01*
X143324286Y-77410228D02*
X143267143Y-77381657D01*
X143267143Y-77381657D02*
X143152857Y-77353085D01*
X143152857Y-77353085D02*
X143095714Y-77324514D01*
X143095714Y-77324514D02*
X143067143Y-77295942D01*
X143067143Y-77295942D02*
X143038571Y-77238800D01*
X143038571Y-77238800D02*
X143038571Y-77181657D01*
X143038571Y-77181657D02*
X143067143Y-77124514D01*
X143067143Y-77124514D02*
X143095714Y-77095942D01*
X143095714Y-77095942D02*
X143152857Y-77067371D01*
X143152857Y-77067371D02*
X143295714Y-77067371D01*
X143295714Y-77067371D02*
X143381428Y-77095942D01*
X143981429Y-77610228D02*
X143952857Y-77638800D01*
X143952857Y-77638800D02*
X143867143Y-77667371D01*
X143867143Y-77667371D02*
X143810000Y-77667371D01*
X143810000Y-77667371D02*
X143724286Y-77638800D01*
X143724286Y-77638800D02*
X143667143Y-77581657D01*
X143667143Y-77581657D02*
X143638572Y-77524514D01*
X143638572Y-77524514D02*
X143610000Y-77410228D01*
X143610000Y-77410228D02*
X143610000Y-77324514D01*
X143610000Y-77324514D02*
X143638572Y-77210228D01*
X143638572Y-77210228D02*
X143667143Y-77153085D01*
X143667143Y-77153085D02*
X143724286Y-77095942D01*
X143724286Y-77095942D02*
X143810000Y-77067371D01*
X143810000Y-77067371D02*
X143867143Y-77067371D01*
X143867143Y-77067371D02*
X143952857Y-77095942D01*
X143952857Y-77095942D02*
X143981429Y-77124514D01*
X144238572Y-77667371D02*
X144238572Y-77067371D01*
X144581429Y-77667371D02*
X144324286Y-77324514D01*
X144581429Y-77067371D02*
X144238572Y-77410228D01*
X140327143Y-77667371D02*
X140327143Y-77067371D01*
X140327143Y-77067371D02*
X140527143Y-77495942D01*
X140527143Y-77495942D02*
X140727143Y-77067371D01*
X140727143Y-77067371D02*
X140727143Y-77667371D01*
X141012857Y-77667371D02*
X141012857Y-77067371D01*
X141269999Y-77638800D02*
X141355714Y-77667371D01*
X141355714Y-77667371D02*
X141498571Y-77667371D01*
X141498571Y-77667371D02*
X141555714Y-77638800D01*
X141555714Y-77638800D02*
X141584285Y-77610228D01*
X141584285Y-77610228D02*
X141612856Y-77553085D01*
X141612856Y-77553085D02*
X141612856Y-77495942D01*
X141612856Y-77495942D02*
X141584285Y-77438800D01*
X141584285Y-77438800D02*
X141555714Y-77410228D01*
X141555714Y-77410228D02*
X141498571Y-77381657D01*
X141498571Y-77381657D02*
X141384285Y-77353085D01*
X141384285Y-77353085D02*
X141327142Y-77324514D01*
X141327142Y-77324514D02*
X141298571Y-77295942D01*
X141298571Y-77295942D02*
X141269999Y-77238800D01*
X141269999Y-77238800D02*
X141269999Y-77181657D01*
X141269999Y-77181657D02*
X141298571Y-77124514D01*
X141298571Y-77124514D02*
X141327142Y-77095942D01*
X141327142Y-77095942D02*
X141384285Y-77067371D01*
X141384285Y-77067371D02*
X141527142Y-77067371D01*
X141527142Y-77067371D02*
X141612856Y-77095942D01*
X141984285Y-77067371D02*
X142098571Y-77067371D01*
X142098571Y-77067371D02*
X142155714Y-77095942D01*
X142155714Y-77095942D02*
X142212857Y-77153085D01*
X142212857Y-77153085D02*
X142241428Y-77267371D01*
X142241428Y-77267371D02*
X142241428Y-77467371D01*
X142241428Y-77467371D02*
X142212857Y-77581657D01*
X142212857Y-77581657D02*
X142155714Y-77638800D01*
X142155714Y-77638800D02*
X142098571Y-77667371D01*
X142098571Y-77667371D02*
X141984285Y-77667371D01*
X141984285Y-77667371D02*
X141927143Y-77638800D01*
X141927143Y-77638800D02*
X141870000Y-77581657D01*
X141870000Y-77581657D02*
X141841428Y-77467371D01*
X141841428Y-77467371D02*
X141841428Y-77267371D01*
X141841428Y-77267371D02*
X141870000Y-77153085D01*
X141870000Y-77153085D02*
X141927143Y-77095942D01*
X141927143Y-77095942D02*
X141984285Y-77067371D01*
X137787143Y-77667371D02*
X137787143Y-77067371D01*
X137787143Y-77067371D02*
X137987143Y-77495942D01*
X137987143Y-77495942D02*
X138187143Y-77067371D01*
X138187143Y-77067371D02*
X138187143Y-77667371D01*
X138587142Y-77067371D02*
X138701428Y-77067371D01*
X138701428Y-77067371D02*
X138758571Y-77095942D01*
X138758571Y-77095942D02*
X138815714Y-77153085D01*
X138815714Y-77153085D02*
X138844285Y-77267371D01*
X138844285Y-77267371D02*
X138844285Y-77467371D01*
X138844285Y-77467371D02*
X138815714Y-77581657D01*
X138815714Y-77581657D02*
X138758571Y-77638800D01*
X138758571Y-77638800D02*
X138701428Y-77667371D01*
X138701428Y-77667371D02*
X138587142Y-77667371D01*
X138587142Y-77667371D02*
X138530000Y-77638800D01*
X138530000Y-77638800D02*
X138472857Y-77581657D01*
X138472857Y-77581657D02*
X138444285Y-77467371D01*
X138444285Y-77467371D02*
X138444285Y-77267371D01*
X138444285Y-77267371D02*
X138472857Y-77153085D01*
X138472857Y-77153085D02*
X138530000Y-77095942D01*
X138530000Y-77095942D02*
X138587142Y-77067371D01*
X139072856Y-77638800D02*
X139158571Y-77667371D01*
X139158571Y-77667371D02*
X139301428Y-77667371D01*
X139301428Y-77667371D02*
X139358571Y-77638800D01*
X139358571Y-77638800D02*
X139387142Y-77610228D01*
X139387142Y-77610228D02*
X139415713Y-77553085D01*
X139415713Y-77553085D02*
X139415713Y-77495942D01*
X139415713Y-77495942D02*
X139387142Y-77438800D01*
X139387142Y-77438800D02*
X139358571Y-77410228D01*
X139358571Y-77410228D02*
X139301428Y-77381657D01*
X139301428Y-77381657D02*
X139187142Y-77353085D01*
X139187142Y-77353085D02*
X139129999Y-77324514D01*
X139129999Y-77324514D02*
X139101428Y-77295942D01*
X139101428Y-77295942D02*
X139072856Y-77238800D01*
X139072856Y-77238800D02*
X139072856Y-77181657D01*
X139072856Y-77181657D02*
X139101428Y-77124514D01*
X139101428Y-77124514D02*
X139129999Y-77095942D01*
X139129999Y-77095942D02*
X139187142Y-77067371D01*
X139187142Y-77067371D02*
X139329999Y-77067371D01*
X139329999Y-77067371D02*
X139415713Y-77095942D01*
X139672857Y-77667371D02*
X139672857Y-77067371D01*
X138272857Y-71059942D02*
X138215715Y-71031371D01*
X138215715Y-71031371D02*
X138130000Y-71031371D01*
X138130000Y-71031371D02*
X138044286Y-71059942D01*
X138044286Y-71059942D02*
X137987143Y-71117085D01*
X137987143Y-71117085D02*
X137958572Y-71174228D01*
X137958572Y-71174228D02*
X137930000Y-71288514D01*
X137930000Y-71288514D02*
X137930000Y-71374228D01*
X137930000Y-71374228D02*
X137958572Y-71488514D01*
X137958572Y-71488514D02*
X137987143Y-71545657D01*
X137987143Y-71545657D02*
X138044286Y-71602800D01*
X138044286Y-71602800D02*
X138130000Y-71631371D01*
X138130000Y-71631371D02*
X138187143Y-71631371D01*
X138187143Y-71631371D02*
X138272857Y-71602800D01*
X138272857Y-71602800D02*
X138301429Y-71574228D01*
X138301429Y-71574228D02*
X138301429Y-71374228D01*
X138301429Y-71374228D02*
X138187143Y-71374228D01*
X138558572Y-71631371D02*
X138558572Y-71031371D01*
X138558572Y-71031371D02*
X138901429Y-71631371D01*
X138901429Y-71631371D02*
X138901429Y-71031371D01*
X139187143Y-71631371D02*
X139187143Y-71031371D01*
X139187143Y-71031371D02*
X139330000Y-71031371D01*
X139330000Y-71031371D02*
X139415714Y-71059942D01*
X139415714Y-71059942D02*
X139472857Y-71117085D01*
X139472857Y-71117085D02*
X139501428Y-71174228D01*
X139501428Y-71174228D02*
X139530000Y-71288514D01*
X139530000Y-71288514D02*
X139530000Y-71374228D01*
X139530000Y-71374228D02*
X139501428Y-71488514D01*
X139501428Y-71488514D02*
X139472857Y-71545657D01*
X139472857Y-71545657D02*
X139415714Y-71602800D01*
X139415714Y-71602800D02*
X139330000Y-71631371D01*
X139330000Y-71631371D02*
X139187143Y-71631371D01*
X135447142Y-77067371D02*
X135818570Y-77067371D01*
X135818570Y-77067371D02*
X135618570Y-77295942D01*
X135618570Y-77295942D02*
X135704285Y-77295942D01*
X135704285Y-77295942D02*
X135761428Y-77324514D01*
X135761428Y-77324514D02*
X135789999Y-77353085D01*
X135789999Y-77353085D02*
X135818570Y-77410228D01*
X135818570Y-77410228D02*
X135818570Y-77553085D01*
X135818570Y-77553085D02*
X135789999Y-77610228D01*
X135789999Y-77610228D02*
X135761428Y-77638800D01*
X135761428Y-77638800D02*
X135704285Y-77667371D01*
X135704285Y-77667371D02*
X135532856Y-77667371D01*
X135532856Y-77667371D02*
X135475713Y-77638800D01*
X135475713Y-77638800D02*
X135447142Y-77610228D01*
X135989999Y-77067371D02*
X136189999Y-77667371D01*
X136189999Y-77667371D02*
X136389999Y-77067371D01*
X136532857Y-77067371D02*
X136904285Y-77067371D01*
X136904285Y-77067371D02*
X136704285Y-77295942D01*
X136704285Y-77295942D02*
X136790000Y-77295942D01*
X136790000Y-77295942D02*
X136847143Y-77324514D01*
X136847143Y-77324514D02*
X136875714Y-77353085D01*
X136875714Y-77353085D02*
X136904285Y-77410228D01*
X136904285Y-77410228D02*
X136904285Y-77553085D01*
X136904285Y-77553085D02*
X136875714Y-77610228D01*
X136875714Y-77610228D02*
X136847143Y-77638800D01*
X136847143Y-77638800D02*
X136790000Y-77667371D01*
X136790000Y-77667371D02*
X136618571Y-77667371D01*
X136618571Y-77667371D02*
X136561428Y-77638800D01*
X136561428Y-77638800D02*
X136532857Y-77610228D01*
X135290000Y-71631371D02*
X135290000Y-71031371D01*
X135918571Y-71631371D02*
X135718571Y-71345657D01*
X135575714Y-71631371D02*
X135575714Y-71031371D01*
X135575714Y-71031371D02*
X135804285Y-71031371D01*
X135804285Y-71031371D02*
X135861428Y-71059942D01*
X135861428Y-71059942D02*
X135889999Y-71088514D01*
X135889999Y-71088514D02*
X135918571Y-71145657D01*
X135918571Y-71145657D02*
X135918571Y-71231371D01*
X135918571Y-71231371D02*
X135889999Y-71288514D01*
X135889999Y-71288514D02*
X135861428Y-71317085D01*
X135861428Y-71317085D02*
X135804285Y-71345657D01*
X135804285Y-71345657D02*
X135575714Y-71345657D01*
X136575714Y-71688514D02*
X136518571Y-71659942D01*
X136518571Y-71659942D02*
X136461428Y-71602800D01*
X136461428Y-71602800D02*
X136375714Y-71517085D01*
X136375714Y-71517085D02*
X136318571Y-71488514D01*
X136318571Y-71488514D02*
X136261428Y-71488514D01*
X136289999Y-71631371D02*
X136232857Y-71602800D01*
X136232857Y-71602800D02*
X136175714Y-71545657D01*
X136175714Y-71545657D02*
X136147142Y-71431371D01*
X136147142Y-71431371D02*
X136147142Y-71231371D01*
X136147142Y-71231371D02*
X136175714Y-71117085D01*
X136175714Y-71117085D02*
X136232857Y-71059942D01*
X136232857Y-71059942D02*
X136289999Y-71031371D01*
X136289999Y-71031371D02*
X136404285Y-71031371D01*
X136404285Y-71031371D02*
X136461428Y-71059942D01*
X136461428Y-71059942D02*
X136518571Y-71117085D01*
X136518571Y-71117085D02*
X136547142Y-71231371D01*
X136547142Y-71231371D02*
X136547142Y-71431371D01*
X136547142Y-71431371D02*
X136518571Y-71545657D01*
X136518571Y-71545657D02*
X136461428Y-71602800D01*
X136461428Y-71602800D02*
X136404285Y-71631371D01*
X136404285Y-71631371D02*
X136289999Y-71631371D01*
X137118570Y-71631371D02*
X136775713Y-71631371D01*
X136947142Y-71631371D02*
X136947142Y-71031371D01*
X136947142Y-71031371D02*
X136889999Y-71117085D01*
X136889999Y-71117085D02*
X136832856Y-71174228D01*
X136832856Y-71174228D02*
X136775713Y-71202800D01*
X132764285Y-71059942D02*
X132707143Y-71031371D01*
X132707143Y-71031371D02*
X132621428Y-71031371D01*
X132621428Y-71031371D02*
X132535714Y-71059942D01*
X132535714Y-71059942D02*
X132478571Y-71117085D01*
X132478571Y-71117085D02*
X132450000Y-71174228D01*
X132450000Y-71174228D02*
X132421428Y-71288514D01*
X132421428Y-71288514D02*
X132421428Y-71374228D01*
X132421428Y-71374228D02*
X132450000Y-71488514D01*
X132450000Y-71488514D02*
X132478571Y-71545657D01*
X132478571Y-71545657D02*
X132535714Y-71602800D01*
X132535714Y-71602800D02*
X132621428Y-71631371D01*
X132621428Y-71631371D02*
X132678571Y-71631371D01*
X132678571Y-71631371D02*
X132764285Y-71602800D01*
X132764285Y-71602800D02*
X132792857Y-71574228D01*
X132792857Y-71574228D02*
X132792857Y-71374228D01*
X132792857Y-71374228D02*
X132678571Y-71374228D01*
X133050000Y-71631371D02*
X133050000Y-71031371D01*
X133050000Y-71031371D02*
X133278571Y-71031371D01*
X133278571Y-71031371D02*
X133335714Y-71059942D01*
X133335714Y-71059942D02*
X133364285Y-71088514D01*
X133364285Y-71088514D02*
X133392857Y-71145657D01*
X133392857Y-71145657D02*
X133392857Y-71231371D01*
X133392857Y-71231371D02*
X133364285Y-71288514D01*
X133364285Y-71288514D02*
X133335714Y-71317085D01*
X133335714Y-71317085D02*
X133278571Y-71345657D01*
X133278571Y-71345657D02*
X133050000Y-71345657D01*
X133650000Y-71631371D02*
X133650000Y-71031371D01*
X134049999Y-71031371D02*
X134164285Y-71031371D01*
X134164285Y-71031371D02*
X134221428Y-71059942D01*
X134221428Y-71059942D02*
X134278571Y-71117085D01*
X134278571Y-71117085D02*
X134307142Y-71231371D01*
X134307142Y-71231371D02*
X134307142Y-71431371D01*
X134307142Y-71431371D02*
X134278571Y-71545657D01*
X134278571Y-71545657D02*
X134221428Y-71602800D01*
X134221428Y-71602800D02*
X134164285Y-71631371D01*
X134164285Y-71631371D02*
X134049999Y-71631371D01*
X134049999Y-71631371D02*
X133992857Y-71602800D01*
X133992857Y-71602800D02*
X133935714Y-71545657D01*
X133935714Y-71545657D02*
X133907142Y-71431371D01*
X133907142Y-71431371D02*
X133907142Y-71231371D01*
X133907142Y-71231371D02*
X133935714Y-71117085D01*
X133935714Y-71117085D02*
X133992857Y-71059942D01*
X133992857Y-71059942D02*
X134049999Y-71031371D01*
X134878570Y-71631371D02*
X134535713Y-71631371D01*
X134707142Y-71631371D02*
X134707142Y-71031371D01*
X134707142Y-71031371D02*
X134649999Y-71117085D01*
X134649999Y-71117085D02*
X134592856Y-71174228D01*
X134592856Y-71174228D02*
X134535713Y-71202800D01*
X127955714Y-71631371D02*
X127755714Y-71345657D01*
X127612857Y-71631371D02*
X127612857Y-71031371D01*
X127612857Y-71031371D02*
X127841428Y-71031371D01*
X127841428Y-71031371D02*
X127898571Y-71059942D01*
X127898571Y-71059942D02*
X127927142Y-71088514D01*
X127927142Y-71088514D02*
X127955714Y-71145657D01*
X127955714Y-71145657D02*
X127955714Y-71231371D01*
X127955714Y-71231371D02*
X127927142Y-71288514D01*
X127927142Y-71288514D02*
X127898571Y-71317085D01*
X127898571Y-71317085D02*
X127841428Y-71345657D01*
X127841428Y-71345657D02*
X127612857Y-71345657D01*
X128184285Y-71602800D02*
X128270000Y-71631371D01*
X128270000Y-71631371D02*
X128412857Y-71631371D01*
X128412857Y-71631371D02*
X128470000Y-71602800D01*
X128470000Y-71602800D02*
X128498571Y-71574228D01*
X128498571Y-71574228D02*
X128527142Y-71517085D01*
X128527142Y-71517085D02*
X128527142Y-71459942D01*
X128527142Y-71459942D02*
X128498571Y-71402800D01*
X128498571Y-71402800D02*
X128470000Y-71374228D01*
X128470000Y-71374228D02*
X128412857Y-71345657D01*
X128412857Y-71345657D02*
X128298571Y-71317085D01*
X128298571Y-71317085D02*
X128241428Y-71288514D01*
X128241428Y-71288514D02*
X128212857Y-71259942D01*
X128212857Y-71259942D02*
X128184285Y-71202800D01*
X128184285Y-71202800D02*
X128184285Y-71145657D01*
X128184285Y-71145657D02*
X128212857Y-71088514D01*
X128212857Y-71088514D02*
X128241428Y-71059942D01*
X128241428Y-71059942D02*
X128298571Y-71031371D01*
X128298571Y-71031371D02*
X128441428Y-71031371D01*
X128441428Y-71031371D02*
X128527142Y-71059942D01*
X128698571Y-71031371D02*
X129041429Y-71031371D01*
X128870000Y-71631371D02*
X128870000Y-71031371D01*
X129355714Y-71031371D02*
X129412857Y-71031371D01*
X129412857Y-71031371D02*
X129470000Y-71059942D01*
X129470000Y-71059942D02*
X129498572Y-71088514D01*
X129498572Y-71088514D02*
X129527143Y-71145657D01*
X129527143Y-71145657D02*
X129555714Y-71259942D01*
X129555714Y-71259942D02*
X129555714Y-71402800D01*
X129555714Y-71402800D02*
X129527143Y-71517085D01*
X129527143Y-71517085D02*
X129498572Y-71574228D01*
X129498572Y-71574228D02*
X129470000Y-71602800D01*
X129470000Y-71602800D02*
X129412857Y-71631371D01*
X129412857Y-71631371D02*
X129355714Y-71631371D01*
X129355714Y-71631371D02*
X129298572Y-71602800D01*
X129298572Y-71602800D02*
X129270000Y-71574228D01*
X129270000Y-71574228D02*
X129241429Y-71517085D01*
X129241429Y-71517085D02*
X129212857Y-71402800D01*
X129212857Y-71402800D02*
X129212857Y-71259942D01*
X129212857Y-71259942D02*
X129241429Y-71145657D01*
X129241429Y-71145657D02*
X129270000Y-71088514D01*
X129270000Y-71088514D02*
X129298572Y-71059942D01*
X129298572Y-71059942D02*
X129355714Y-71031371D01*
X130652857Y-71059942D02*
X130595715Y-71031371D01*
X130595715Y-71031371D02*
X130510000Y-71031371D01*
X130510000Y-71031371D02*
X130424286Y-71059942D01*
X130424286Y-71059942D02*
X130367143Y-71117085D01*
X130367143Y-71117085D02*
X130338572Y-71174228D01*
X130338572Y-71174228D02*
X130310000Y-71288514D01*
X130310000Y-71288514D02*
X130310000Y-71374228D01*
X130310000Y-71374228D02*
X130338572Y-71488514D01*
X130338572Y-71488514D02*
X130367143Y-71545657D01*
X130367143Y-71545657D02*
X130424286Y-71602800D01*
X130424286Y-71602800D02*
X130510000Y-71631371D01*
X130510000Y-71631371D02*
X130567143Y-71631371D01*
X130567143Y-71631371D02*
X130652857Y-71602800D01*
X130652857Y-71602800D02*
X130681429Y-71574228D01*
X130681429Y-71574228D02*
X130681429Y-71374228D01*
X130681429Y-71374228D02*
X130567143Y-71374228D01*
X130938572Y-71631371D02*
X130938572Y-71031371D01*
X130938572Y-71031371D02*
X131281429Y-71631371D01*
X131281429Y-71631371D02*
X131281429Y-71031371D01*
X131567143Y-71631371D02*
X131567143Y-71031371D01*
X131567143Y-71031371D02*
X131710000Y-71031371D01*
X131710000Y-71031371D02*
X131795714Y-71059942D01*
X131795714Y-71059942D02*
X131852857Y-71117085D01*
X131852857Y-71117085D02*
X131881428Y-71174228D01*
X131881428Y-71174228D02*
X131910000Y-71288514D01*
X131910000Y-71288514D02*
X131910000Y-71374228D01*
X131910000Y-71374228D02*
X131881428Y-71488514D01*
X131881428Y-71488514D02*
X131852857Y-71545657D01*
X131852857Y-71545657D02*
X131795714Y-71602800D01*
X131795714Y-71602800D02*
X131710000Y-71631371D01*
X131710000Y-71631371D02*
X131567143Y-71631371D01*
X120492857Y-71059942D02*
X120435715Y-71031371D01*
X120435715Y-71031371D02*
X120350000Y-71031371D01*
X120350000Y-71031371D02*
X120264286Y-71059942D01*
X120264286Y-71059942D02*
X120207143Y-71117085D01*
X120207143Y-71117085D02*
X120178572Y-71174228D01*
X120178572Y-71174228D02*
X120150000Y-71288514D01*
X120150000Y-71288514D02*
X120150000Y-71374228D01*
X120150000Y-71374228D02*
X120178572Y-71488514D01*
X120178572Y-71488514D02*
X120207143Y-71545657D01*
X120207143Y-71545657D02*
X120264286Y-71602800D01*
X120264286Y-71602800D02*
X120350000Y-71631371D01*
X120350000Y-71631371D02*
X120407143Y-71631371D01*
X120407143Y-71631371D02*
X120492857Y-71602800D01*
X120492857Y-71602800D02*
X120521429Y-71574228D01*
X120521429Y-71574228D02*
X120521429Y-71374228D01*
X120521429Y-71374228D02*
X120407143Y-71374228D01*
X120778572Y-71631371D02*
X120778572Y-71031371D01*
X120778572Y-71031371D02*
X121121429Y-71631371D01*
X121121429Y-71631371D02*
X121121429Y-71031371D01*
X121407143Y-71631371D02*
X121407143Y-71031371D01*
X121407143Y-71031371D02*
X121550000Y-71031371D01*
X121550000Y-71031371D02*
X121635714Y-71059942D01*
X121635714Y-71059942D02*
X121692857Y-71117085D01*
X121692857Y-71117085D02*
X121721428Y-71174228D01*
X121721428Y-71174228D02*
X121750000Y-71288514D01*
X121750000Y-71288514D02*
X121750000Y-71374228D01*
X121750000Y-71374228D02*
X121721428Y-71488514D01*
X121721428Y-71488514D02*
X121692857Y-71545657D01*
X121692857Y-71545657D02*
X121635714Y-71602800D01*
X121635714Y-71602800D02*
X121550000Y-71631371D01*
X121550000Y-71631371D02*
X121407143Y-71631371D01*
X125572857Y-77095942D02*
X125515715Y-77067371D01*
X125515715Y-77067371D02*
X125430000Y-77067371D01*
X125430000Y-77067371D02*
X125344286Y-77095942D01*
X125344286Y-77095942D02*
X125287143Y-77153085D01*
X125287143Y-77153085D02*
X125258572Y-77210228D01*
X125258572Y-77210228D02*
X125230000Y-77324514D01*
X125230000Y-77324514D02*
X125230000Y-77410228D01*
X125230000Y-77410228D02*
X125258572Y-77524514D01*
X125258572Y-77524514D02*
X125287143Y-77581657D01*
X125287143Y-77581657D02*
X125344286Y-77638800D01*
X125344286Y-77638800D02*
X125430000Y-77667371D01*
X125430000Y-77667371D02*
X125487143Y-77667371D01*
X125487143Y-77667371D02*
X125572857Y-77638800D01*
X125572857Y-77638800D02*
X125601429Y-77610228D01*
X125601429Y-77610228D02*
X125601429Y-77410228D01*
X125601429Y-77410228D02*
X125487143Y-77410228D01*
X125858572Y-77667371D02*
X125858572Y-77067371D01*
X125858572Y-77067371D02*
X126201429Y-77667371D01*
X126201429Y-77667371D02*
X126201429Y-77067371D01*
X126487143Y-77667371D02*
X126487143Y-77067371D01*
X126487143Y-77067371D02*
X126630000Y-77067371D01*
X126630000Y-77067371D02*
X126715714Y-77095942D01*
X126715714Y-77095942D02*
X126772857Y-77153085D01*
X126772857Y-77153085D02*
X126801428Y-77210228D01*
X126801428Y-77210228D02*
X126830000Y-77324514D01*
X126830000Y-77324514D02*
X126830000Y-77410228D01*
X126830000Y-77410228D02*
X126801428Y-77524514D01*
X126801428Y-77524514D02*
X126772857Y-77581657D01*
X126772857Y-77581657D02*
X126715714Y-77638800D01*
X126715714Y-77638800D02*
X126630000Y-77667371D01*
X126630000Y-77667371D02*
X126487143Y-77667371D01*
X120235714Y-77638800D02*
X120321429Y-77667371D01*
X120321429Y-77667371D02*
X120464286Y-77667371D01*
X120464286Y-77667371D02*
X120521429Y-77638800D01*
X120521429Y-77638800D02*
X120550000Y-77610228D01*
X120550000Y-77610228D02*
X120578571Y-77553085D01*
X120578571Y-77553085D02*
X120578571Y-77495942D01*
X120578571Y-77495942D02*
X120550000Y-77438800D01*
X120550000Y-77438800D02*
X120521429Y-77410228D01*
X120521429Y-77410228D02*
X120464286Y-77381657D01*
X120464286Y-77381657D02*
X120350000Y-77353085D01*
X120350000Y-77353085D02*
X120292857Y-77324514D01*
X120292857Y-77324514D02*
X120264286Y-77295942D01*
X120264286Y-77295942D02*
X120235714Y-77238800D01*
X120235714Y-77238800D02*
X120235714Y-77181657D01*
X120235714Y-77181657D02*
X120264286Y-77124514D01*
X120264286Y-77124514D02*
X120292857Y-77095942D01*
X120292857Y-77095942D02*
X120350000Y-77067371D01*
X120350000Y-77067371D02*
X120492857Y-77067371D01*
X120492857Y-77067371D02*
X120578571Y-77095942D01*
X121178572Y-77610228D02*
X121150000Y-77638800D01*
X121150000Y-77638800D02*
X121064286Y-77667371D01*
X121064286Y-77667371D02*
X121007143Y-77667371D01*
X121007143Y-77667371D02*
X120921429Y-77638800D01*
X120921429Y-77638800D02*
X120864286Y-77581657D01*
X120864286Y-77581657D02*
X120835715Y-77524514D01*
X120835715Y-77524514D02*
X120807143Y-77410228D01*
X120807143Y-77410228D02*
X120807143Y-77324514D01*
X120807143Y-77324514D02*
X120835715Y-77210228D01*
X120835715Y-77210228D02*
X120864286Y-77153085D01*
X120864286Y-77153085D02*
X120921429Y-77095942D01*
X120921429Y-77095942D02*
X121007143Y-77067371D01*
X121007143Y-77067371D02*
X121064286Y-77067371D01*
X121064286Y-77067371D02*
X121150000Y-77095942D01*
X121150000Y-77095942D02*
X121178572Y-77124514D01*
X121721429Y-77667371D02*
X121435715Y-77667371D01*
X121435715Y-77667371D02*
X121435715Y-77067371D01*
X117681428Y-77644800D02*
X117767143Y-77673371D01*
X117767143Y-77673371D02*
X117910000Y-77673371D01*
X117910000Y-77673371D02*
X117967143Y-77644800D01*
X117967143Y-77644800D02*
X117995714Y-77616228D01*
X117995714Y-77616228D02*
X118024285Y-77559085D01*
X118024285Y-77559085D02*
X118024285Y-77501942D01*
X118024285Y-77501942D02*
X117995714Y-77444800D01*
X117995714Y-77444800D02*
X117967143Y-77416228D01*
X117967143Y-77416228D02*
X117910000Y-77387657D01*
X117910000Y-77387657D02*
X117795714Y-77359085D01*
X117795714Y-77359085D02*
X117738571Y-77330514D01*
X117738571Y-77330514D02*
X117710000Y-77301942D01*
X117710000Y-77301942D02*
X117681428Y-77244800D01*
X117681428Y-77244800D02*
X117681428Y-77187657D01*
X117681428Y-77187657D02*
X117710000Y-77130514D01*
X117710000Y-77130514D02*
X117738571Y-77101942D01*
X117738571Y-77101942D02*
X117795714Y-77073371D01*
X117795714Y-77073371D02*
X117938571Y-77073371D01*
X117938571Y-77073371D02*
X118024285Y-77101942D01*
X118281429Y-77673371D02*
X118281429Y-77073371D01*
X118281429Y-77073371D02*
X118424286Y-77073371D01*
X118424286Y-77073371D02*
X118510000Y-77101942D01*
X118510000Y-77101942D02*
X118567143Y-77159085D01*
X118567143Y-77159085D02*
X118595714Y-77216228D01*
X118595714Y-77216228D02*
X118624286Y-77330514D01*
X118624286Y-77330514D02*
X118624286Y-77416228D01*
X118624286Y-77416228D02*
X118595714Y-77530514D01*
X118595714Y-77530514D02*
X118567143Y-77587657D01*
X118567143Y-77587657D02*
X118510000Y-77644800D01*
X118510000Y-77644800D02*
X118424286Y-77673371D01*
X118424286Y-77673371D02*
X118281429Y-77673371D01*
X118852857Y-77501942D02*
X119138572Y-77501942D01*
X118795714Y-77673371D02*
X118995714Y-77073371D01*
X118995714Y-77073371D02*
X119195714Y-77673371D01*
X115157142Y-77073371D02*
X115528570Y-77073371D01*
X115528570Y-77073371D02*
X115328570Y-77301942D01*
X115328570Y-77301942D02*
X115414285Y-77301942D01*
X115414285Y-77301942D02*
X115471428Y-77330514D01*
X115471428Y-77330514D02*
X115499999Y-77359085D01*
X115499999Y-77359085D02*
X115528570Y-77416228D01*
X115528570Y-77416228D02*
X115528570Y-77559085D01*
X115528570Y-77559085D02*
X115499999Y-77616228D01*
X115499999Y-77616228D02*
X115471428Y-77644800D01*
X115471428Y-77644800D02*
X115414285Y-77673371D01*
X115414285Y-77673371D02*
X115242856Y-77673371D01*
X115242856Y-77673371D02*
X115185713Y-77644800D01*
X115185713Y-77644800D02*
X115157142Y-77616228D01*
X115699999Y-77073371D02*
X115899999Y-77673371D01*
X115899999Y-77673371D02*
X116099999Y-77073371D01*
X116242857Y-77073371D02*
X116614285Y-77073371D01*
X116614285Y-77073371D02*
X116414285Y-77301942D01*
X116414285Y-77301942D02*
X116500000Y-77301942D01*
X116500000Y-77301942D02*
X116557143Y-77330514D01*
X116557143Y-77330514D02*
X116585714Y-77359085D01*
X116585714Y-77359085D02*
X116614285Y-77416228D01*
X116614285Y-77416228D02*
X116614285Y-77559085D01*
X116614285Y-77559085D02*
X116585714Y-77616228D01*
X116585714Y-77616228D02*
X116557143Y-77644800D01*
X116557143Y-77644800D02*
X116500000Y-77673371D01*
X116500000Y-77673371D02*
X116328571Y-77673371D01*
X116328571Y-77673371D02*
X116271428Y-77644800D01*
X116271428Y-77644800D02*
X116242857Y-77616228D01*
%TO.C,J2*%
X116000000Y-91500000D02*
X116000000Y-90400000D01*
X116000000Y-98100000D02*
X116000000Y-101100000D01*
X116000000Y-115700000D02*
X116000000Y-117000000D01*
X117900000Y-117800000D02*
X123200000Y-117800000D01*
X123200000Y-89700000D02*
X117900000Y-89700000D01*
X123200000Y-91900000D02*
X123200000Y-89700000D01*
X123200000Y-98500000D02*
X123200000Y-101500000D01*
X123200000Y-117800000D02*
X123200000Y-116100000D01*
%TD*%
M02*
